<svg width="676" height="400" viewBox="0 0 676 400" fill="none" xmlns="http://www.w3.org/2000/svg">
<path d="M566.609 57.2168C567.368 37.8878 554.911 21.6876 538.786 21.0326C522.661 20.3775 508.974 35.5156 508.216 54.8446C507.457 74.1736 519.914 90.3738 536.038 91.0289C552.163 91.6839 565.85 76.5457 566.609 57.2168Z" fill="#EBEBEB"/>
<path d="M557.768 57.0132C556.94 74.6256 545.395 88.6229 531.152 90.3358C532.659 90.7049 534.204 90.9415 535.785 91.0267C551.907 91.869 565.712 76.8781 566.624 57.5621C567.536 38.2366 555.209 21.9018 539.088 21.0595C537.664 20.9838 536.25 21.0406 534.864 21.2015C548.651 24.599 558.586 39.5994 557.768 57.0132Z" fill="#E0E0E0"/>
<path d="M329.652 393.31C348.57 391.424 363.178 382.326 362.279 372.989C361.38 363.652 345.314 357.611 326.396 359.497C307.477 361.383 292.87 370.48 293.769 379.817C294.668 389.155 310.733 395.195 329.652 393.31Z" fill="#EBEBEB"/>
<path d="M328.305 387.649C311.039 389.031 296.657 383.844 294.127 375.79C293.857 376.699 293.717 377.617 293.736 378.544C293.894 387.952 309.374 394.34 328.314 392.826C347.255 391.311 362.484 382.453 362.325 373.046C362.316 372.213 362.177 371.409 361.925 370.623C359.442 378.951 345.385 386.286 328.305 387.649Z" fill="#E0E0E0"/>
<path d="M85.9908 341.754C95.6207 333.547 95.724 317.539 86.2215 306C76.719 294.46 61.2091 291.758 51.5791 299.965C41.9492 308.172 41.8459 324.18 51.3484 335.72C60.8509 347.26 76.3608 349.961 85.9908 341.754Z" fill="#EBEBEB"/>
<path d="M56.7111 331.285C65.4557 341.734 79.1122 344.772 88.6847 338.932C87.9312 339.888 87.0847 340.778 86.1544 341.601C76.619 349.92 61.1113 347.365 51.5108 335.904C41.9197 324.443 41.8731 308.411 51.4085 300.092C52.255 299.354 53.1481 298.71 54.0784 298.143C47.1757 306.906 48.0595 320.951 56.7111 331.285Z" fill="#E0E0E0"/>
<path d="M53.1088 209.395C53.2506 199.58 48.0183 191.544 41.422 191.445C34.8258 191.346 29.3635 199.223 29.2217 209.038C29.0798 218.853 34.3122 226.89 40.9084 226.988C47.5047 227.087 52.967 219.21 53.1088 209.395Z" fill="#EBEBEB"/>
<path d="M32.859 208.932C32.673 217.875 36.9522 225.409 42.7107 226.828C42.0874 226.961 41.4455 227.018 40.8036 226.999C34.2079 226.8 29.0356 218.68 29.2402 208.866C29.4449 199.052 34.9615 191.253 41.5571 191.452C42.1432 191.471 42.7107 191.547 43.2688 191.689C37.5476 192.872 33.0451 200.083 32.859 208.932Z" fill="#E0E0E0"/>
<path d="M601.464 276.324C596.459 285.93 598.915 297.192 606.934 301.488C614.962 305.785 625.521 301.479 630.526 291.873C635.531 282.267 633.075 271.005 625.046 266.708C617.027 262.421 606.469 266.727 601.464 276.324Z" fill="#EBEBEB"/>
<path d="M626.097 289.56C630.656 280.806 629.019 270.67 622.618 265.701C623.446 265.957 624.265 266.297 625.056 266.723C633.084 271.02 635.53 282.282 630.526 291.888C625.521 301.494 614.962 305.791 606.934 301.503C606.227 301.125 605.557 300.69 604.934 300.207C612.553 302.573 621.586 298.219 626.097 289.56Z" fill="#E0E0E0"/>
<path d="M182.172 55.6794C187.07 41.4752 181.431 26.5313 169.578 22.3012C157.724 18.0712 144.145 26.1569 139.247 40.3611C134.349 54.5653 139.988 69.5092 151.841 73.7392C163.695 77.9693 177.274 69.8836 182.172 55.6794Z" fill="#EBEBEB"/>
<path d="M144.036 41.9164C139.673 54.901 144.082 68.3966 153.906 73.7911C152.715 73.6208 151.524 73.3368 150.361 72.9393C138.454 68.8414 132.686 53.9735 137.477 39.7302C142.259 25.4869 155.785 17.2533 167.683 21.3512C168.734 21.7108 169.739 22.1651 170.697 22.6856C159.767 21.1241 148.352 29.0738 144.036 41.9164Z" fill="#E0E0E0"/>
<path d="M471.131 46.773L475.038 49.139C475.549 49.4419 475.503 50.2085 474.963 50.4829L470.814 52.5934C470.684 52.6596 470.572 52.7637 470.498 52.8868L468.07 56.909C467.754 57.4295 467.009 57.4106 466.749 56.8711L464.767 52.707C464.702 52.5745 464.609 52.4704 464.488 52.3947L460.581 50.0287C460.079 49.7258 460.116 48.9592 460.656 48.6848L464.805 46.5743C464.935 46.5081 465.047 46.404 465.121 46.2809L467.549 42.2587C467.865 41.7382 468.609 41.7571 468.87 42.2966L470.851 46.4607C470.917 46.5932 471.01 46.6973 471.131 46.773Z" fill="#E0E0E0"/>
<path d="M92.611 382.958L96.5182 385.324C97.0298 385.626 96.9833 386.393 96.4438 386.667L92.2947 388.778C92.1645 388.844 92.0528 388.948 91.9784 389.071L89.5504 393.094C89.2341 393.614 88.4899 393.595 88.2294 393.056L86.2479 388.892C86.1828 388.759 86.0898 388.655 85.9688 388.579L82.0617 386.213C81.5593 385.91 81.5965 385.144 82.1361 384.869L86.2851 382.759C86.4154 382.693 86.527 382.589 86.6014 382.465L89.0294 378.443C89.3457 377.923 90.09 377.942 90.3504 378.481L92.3319 382.645C92.3877 382.778 92.4901 382.891 92.611 382.958Z" fill="#E0E0E0"/>
<path d="M437.873 373.86L441.78 376.226C442.292 376.529 442.245 377.295 441.705 377.57L437.556 379.68C437.426 379.747 437.315 379.851 437.24 379.974L434.812 383.996C434.496 384.516 433.752 384.497 433.491 383.958L431.51 379.794C431.445 379.661 431.351 379.557 431.231 379.482L427.323 377.116C426.821 376.813 426.858 376.046 427.398 375.772L431.547 373.661C431.677 373.595 431.789 373.491 431.863 373.368L434.291 369.346C434.607 368.825 435.352 368.844 435.612 369.383L437.594 373.548C437.659 373.671 437.752 373.784 437.873 373.86Z" fill="#E0E0E0"/>
<path d="M608.263 370.442L612.17 372.808C612.673 373.111 612.636 373.877 612.096 374.152L607.947 376.262C607.817 376.329 607.705 376.433 607.631 376.556L605.203 380.578C604.886 381.098 604.142 381.08 603.882 380.54L601.9 376.376C601.835 376.243 601.742 376.139 601.621 376.064L597.714 373.698C597.212 373.395 597.249 372.628 597.788 372.354L601.937 370.243C602.068 370.177 602.179 370.073 602.254 369.95L604.682 365.928C604.998 365.407 605.742 365.426 606.003 365.966L607.984 370.13C608.04 370.253 608.142 370.366 608.263 370.442Z" fill="#E0E0E0"/>
<path d="M190.838 92.6275L194.745 94.9935C195.256 95.2964 195.21 96.063 194.67 96.3374L190.521 98.4479C190.391 98.5141 190.279 98.6182 190.205 98.7413L187.777 102.763C187.461 103.284 186.716 103.265 186.456 102.726L184.474 98.5615C184.409 98.429 184.316 98.3249 184.195 98.2491L180.288 95.8831C179.786 95.5803 179.823 94.8137 180.363 94.5393L184.512 92.4288C184.642 92.3626 184.754 92.2584 184.828 92.1354L187.256 88.1132C187.572 87.5927 188.317 87.6116 188.577 88.1511L190.558 92.3152C190.614 92.4383 190.717 92.5518 190.838 92.6275Z" fill="#E0E0E0"/>
<path d="M215.816 12.7105L219.723 15.0765C220.226 15.3794 220.188 16.146 219.649 16.4204L215.5 18.5309C215.37 18.5971 215.258 18.7012 215.183 18.8243L212.755 22.8465C212.439 23.367 211.695 23.3481 211.434 22.8086L209.453 18.6445C209.388 18.512 209.295 18.4079 209.174 18.3322L205.267 15.9662C204.764 15.6633 204.802 14.8967 205.341 14.6223L209.49 12.5118C209.62 12.4456 209.732 12.3415 209.806 12.2184L212.235 8.19623C212.551 7.67571 213.295 7.69464 213.556 8.23408L215.537 12.3982C215.593 12.5213 215.686 12.6348 215.816 12.7105Z" fill="#E0E0E0"/>
<path d="M89.1302 47.5252L91.1116 48.7272C91.3721 48.8786 91.3442 49.2666 91.0744 49.4086L88.972 50.478C88.9069 50.5159 88.8511 50.5632 88.8139 50.6294L87.5859 52.6736C87.4277 52.9386 87.0463 52.9292 86.9161 52.6547L85.9114 50.5443C85.8835 50.478 85.8277 50.4212 85.7719 50.3834L83.7904 49.1814C83.5299 49.03 83.5578 48.642 83.8276 48.5L85.93 47.4306C85.9951 47.3927 86.0509 47.3454 86.0882 47.2792L87.3161 45.235C87.4743 44.97 87.8557 44.9794 87.9859 45.2539L88.9906 47.3644C89.0185 47.4306 89.065 47.4874 89.1302 47.5252Z" fill="#E0E0E0"/>
<path d="M310.361 35.8631L312.342 37.0651C312.603 37.2165 312.575 37.6045 312.305 37.7465L310.202 38.8159C310.137 38.8538 310.082 38.9011 310.044 38.9673L308.816 41.0115C308.658 41.2765 308.277 41.2671 308.147 40.9926L307.142 38.8821C307.114 38.8159 307.058 38.7591 307.002 38.7213L305.021 37.5193C304.76 37.3679 304.788 36.9799 305.058 36.8379L307.16 35.7685C307.226 35.7306 307.281 35.6833 307.319 35.6171L308.547 33.5729C308.705 33.3079 309.086 33.3173 309.216 33.5918L310.221 35.7022C310.249 35.7685 310.295 35.8253 310.361 35.8631Z" fill="#E0E0E0"/>
<path d="M494.388 22.5614L496.369 23.7633C496.63 23.9147 496.602 24.3027 496.332 24.4447L494.23 25.5141C494.165 25.552 494.109 25.5993 494.072 25.6656L492.844 27.7098C492.686 27.9748 492.304 27.9653 492.174 27.6909L491.169 25.5804C491.141 25.5141 491.085 25.4574 491.03 25.4195L489.048 24.2176C488.788 24.0661 488.816 23.6781 489.085 23.5362L491.188 22.4667C491.253 22.4289 491.309 22.3816 491.346 22.3153L492.574 20.2711C492.732 20.0061 493.114 20.0156 493.244 20.29L494.248 22.4005C494.276 22.4762 494.332 22.533 494.388 22.5614Z" fill="#E0E0E0"/>
<path d="M621.484 29.1502L623.465 30.3522C623.726 30.5036 623.698 30.8916 623.428 31.0336L621.326 32.103C621.26 32.1409 621.205 32.1882 621.167 32.2544L619.939 34.2987C619.781 34.5636 619.4 34.5542 619.27 34.2797L618.265 32.1693C618.237 32.103 618.181 32.0462 618.125 32.0084L616.144 30.8064C615.883 30.655 615.911 30.267 616.181 30.125L618.284 29.0556C618.349 29.0177 618.404 28.9704 618.442 28.9042L619.67 26.86C619.828 26.595 620.209 26.6044 620.339 26.8789L621.344 28.9894C621.372 29.0556 621.419 29.1124 621.484 29.1502Z" fill="#E0E0E0"/>
<path d="M394.308 305.977L396.634 307.358C396.932 307.538 396.913 307.993 396.597 308.153L394.15 309.431C394.076 309.469 394.011 309.535 393.964 309.611L392.55 312.005C392.364 312.318 391.917 312.308 391.769 311.986L390.569 309.526C390.531 309.45 390.476 309.384 390.401 309.346L388.075 307.964C387.778 307.784 387.796 307.33 388.113 307.169L390.559 305.892C390.634 305.854 390.699 305.787 390.745 305.712L392.159 303.317C392.345 303.005 392.792 303.014 392.941 303.336L394.141 305.797C394.178 305.873 394.243 305.929 394.308 305.977Z" fill="#E0E0E0"/>
<path d="M637.576 235.14L639.901 236.522C640.199 236.701 640.181 237.156 639.864 237.316L637.418 238.594C637.343 238.632 637.278 238.698 637.232 238.774L635.818 241.168C635.632 241.481 635.185 241.471 635.036 241.149L633.836 238.689C633.799 238.613 633.743 238.547 633.669 238.509L631.343 237.127C631.045 236.947 631.064 236.493 631.38 236.332L633.827 235.055C633.901 235.017 633.966 234.95 634.013 234.875L635.427 232.48C635.613 232.168 636.059 232.178 636.208 232.499L637.408 234.96C637.446 235.026 637.511 235.092 637.576 235.14Z" fill="#E0E0E0"/>
<path d="M37.194 256.195L39.0638 257.33C39.3057 257.482 39.2871 257.841 39.0266 257.974L37.0358 258.987C36.9707 259.015 36.9242 259.072 36.887 259.128L35.7241 261.059C35.5753 261.305 35.2125 261.296 35.0915 261.04L34.1426 259.043C34.1147 258.977 34.0682 258.93 34.0031 258.892L32.1332 257.756C31.8914 257.605 31.91 257.245 32.1705 257.113L34.1613 256.1C34.2264 256.072 34.2729 256.015 34.3101 255.958L35.4729 254.027C35.6218 253.781 35.9846 253.791 36.1055 254.046L37.0544 256.043C37.0916 256.109 37.1381 256.157 37.194 256.195Z" fill="#E0E0E0"/>
<path d="M235.008 296.219L236.878 297.355C237.12 297.506 237.102 297.866 236.841 297.998L234.85 299.011C234.785 299.039 234.739 299.096 234.701 299.153L233.539 301.084C233.39 301.33 233.027 301.32 232.906 301.065L231.957 299.068C231.929 299.001 231.883 298.954 231.818 298.916L229.948 297.781C229.706 297.629 229.724 297.27 229.985 297.137L231.976 296.124C232.041 296.096 232.087 296.039 232.125 295.982L233.287 294.052C233.436 293.806 233.799 293.815 233.92 294.071L234.869 296.068C234.906 296.134 234.953 296.181 235.008 296.219Z" fill="#E0E0E0"/>
<path d="M591.667 338.049L593.536 339.185C593.778 339.336 593.76 339.696 593.499 339.828L591.508 340.841C591.443 340.869 591.397 340.926 591.36 340.983L590.197 342.914C590.048 343.16 589.685 343.15 589.564 342.895L588.615 340.898C588.587 340.832 588.541 340.784 588.476 340.746L586.606 339.611C586.364 339.459 586.383 339.1 586.643 338.967L588.634 337.955C588.699 337.926 588.746 337.869 588.783 337.813L589.946 335.882C590.094 335.636 590.457 335.645 590.578 335.901L591.527 337.898C591.564 337.964 591.611 338.011 591.667 338.049Z" fill="#E0E0E0"/>
<path d="M552.092 383.002L553.962 384.138C554.204 384.289 554.186 384.649 553.925 384.782L551.934 385.794C551.869 385.823 551.823 385.879 551.785 385.936L550.623 387.867C550.474 388.113 550.111 388.103 549.99 387.848L549.041 385.851C549.013 385.785 548.967 385.737 548.902 385.7L547.032 384.564C546.79 384.412 546.808 384.053 547.069 383.92L549.06 382.908C549.125 382.879 549.171 382.822 549.209 382.766L550.371 380.835C550.52 380.589 550.883 380.598 551.004 380.854L551.953 382.851C551.99 382.908 552.037 382.964 552.092 383.002Z" fill="#E0E0E0"/>
<path d="M592.105 106.052L594.133 107.282C594.393 107.443 594.374 107.84 594.095 107.982L591.937 109.08C591.872 109.118 591.816 109.165 591.77 109.232L590.514 111.323C590.346 111.598 589.965 111.579 589.825 111.304L588.793 109.147C588.765 109.08 588.709 109.023 588.644 108.986L586.616 107.755C586.355 107.594 586.374 107.197 586.653 107.055L588.811 105.957C588.876 105.919 588.932 105.872 588.979 105.806L590.235 103.714C590.402 103.44 590.784 103.459 590.923 103.733L591.956 105.891C591.984 105.957 592.039 106.014 592.105 106.052Z" fill="#E0E0E0"/>
<path d="M527.18 142.06L528.147 142.665C528.268 142.741 528.268 142.93 528.138 142.996L527.142 143.479C527.114 143.498 527.087 143.517 527.068 143.545L526.51 144.511C526.435 144.634 526.259 144.624 526.184 144.492L525.672 143.46C525.654 143.432 525.635 143.403 525.598 143.384L524.631 142.779C524.51 142.703 524.51 142.514 524.64 142.448L525.635 141.965C525.663 141.946 525.691 141.927 525.71 141.899L526.268 140.933C526.342 140.81 526.519 140.82 526.593 140.952L527.105 141.984C527.124 142.012 527.152 142.041 527.18 142.06Z" fill="#0E82FD"/>
<path d="M527.943 285.121L528.911 285.727C529.032 285.802 529.032 285.992 528.901 286.058L527.906 286.541C527.878 286.56 527.85 286.579 527.832 286.607L527.273 287.572C527.199 287.695 527.022 287.686 526.948 287.553L526.436 286.522C526.418 286.493 526.399 286.465 526.362 286.446L525.394 285.84C525.273 285.765 525.273 285.575 525.404 285.509L526.399 285.026C526.427 285.008 526.455 284.989 526.473 284.96L527.032 283.995C527.106 283.872 527.283 283.881 527.357 284.014L527.869 285.045C527.887 285.074 527.915 285.102 527.943 285.121Z" fill="#0E82FD"/>
<path d="M566.577 219.567L568.447 220.702C568.688 220.854 568.67 221.213 568.409 221.346L566.419 222.359C566.354 222.387 566.307 222.444 566.27 222.501L565.107 224.431C564.958 224.677 564.595 224.668 564.474 224.412L563.525 222.415C563.498 222.349 563.451 222.302 563.386 222.264L561.516 221.128C561.274 220.977 561.293 220.617 561.553 220.485L563.544 219.472C563.609 219.444 563.656 219.387 563.693 219.33L564.856 217.399C565.005 217.153 565.367 217.163 565.488 217.418L566.437 219.415C566.465 219.482 566.512 219.529 566.577 219.567Z" fill="#0E82FD"/>
<path d="M516.799 152.77L518.678 153.953C518.92 154.104 518.911 154.464 518.66 154.587L516.734 155.524C516.669 155.552 516.622 155.6 516.585 155.656L515.497 157.53C515.357 157.776 515.004 157.748 514.873 157.492L513.878 155.486C513.85 155.42 513.794 155.373 513.738 155.335L511.859 154.152C511.617 154 511.627 153.641 511.878 153.518L513.804 152.581C513.869 152.552 513.915 152.505 513.952 152.448L515.041 150.574C515.18 150.328 515.534 150.357 515.664 150.612L516.66 152.618C516.697 152.685 516.743 152.732 516.799 152.77Z" fill="#0E82FD"/>
<path d="M74.8425 208.43L76.2658 209.348C76.4519 209.471 76.4426 209.746 76.2472 209.831L74.7681 210.522C74.7215 210.541 74.6843 210.579 74.6564 210.626L73.8099 212.045C73.6982 212.225 73.4285 212.206 73.3354 212.008L72.5912 210.465C72.5726 210.418 72.5354 210.38 72.4889 210.351L71.0656 209.433C70.8795 209.31 70.8888 209.036 71.0842 208.951L72.5633 208.26C72.6098 208.241 72.647 208.203 72.6749 208.156L73.5215 206.736C73.6331 206.556 73.9029 206.575 73.9959 206.774L74.7402 208.317C74.7681 208.364 74.796 208.402 74.8425 208.43Z" fill="#0E82FD"/>
<path d="M105.653 241.187L107.03 241.992C107.207 242.096 107.207 242.351 107.039 242.446L105.681 243.165C105.634 243.184 105.607 243.222 105.579 243.269L104.844 244.641C104.751 244.821 104.49 244.812 104.397 244.632L103.634 243.222C103.606 243.175 103.579 243.137 103.532 243.118L102.155 242.313C101.978 242.209 101.978 241.954 102.146 241.859L103.504 241.14C103.551 241.121 103.579 241.083 103.606 241.036L104.341 239.663C104.434 239.484 104.695 239.493 104.788 239.673L105.551 241.083C105.579 241.121 105.616 241.159 105.653 241.187Z" fill="#0E82FD"/>
<path d="M146.864 132.699L148.241 133.503C148.418 133.607 148.418 133.863 148.25 133.958L146.892 134.677C146.845 134.696 146.818 134.734 146.79 134.781L146.055 136.153C145.962 136.333 145.701 136.324 145.608 136.144L144.845 134.734C144.817 134.686 144.79 134.648 144.743 134.629L143.366 133.825C143.189 133.721 143.189 133.465 143.357 133.371L144.715 132.652C144.762 132.633 144.789 132.595 144.817 132.547L145.552 131.175C145.645 130.995 145.906 131.005 145.999 131.185L146.762 132.595C146.79 132.633 146.827 132.67 146.864 132.699Z" fill="#0E82FD"/>
<path d="M253.79 109.701L255.167 110.505C255.343 110.609 255.343 110.865 255.176 110.96L253.818 111.679C253.771 111.698 253.743 111.736 253.715 111.783L252.98 113.155C252.887 113.335 252.627 113.326 252.534 113.146L251.771 111.736C251.743 111.688 251.715 111.65 251.669 111.631L250.292 110.827C250.115 110.723 250.115 110.467 250.283 110.373L251.641 109.653C251.687 109.635 251.715 109.597 251.743 109.549L252.478 108.177C252.571 107.997 252.832 108.007 252.925 108.187L253.687 109.597C253.715 109.635 253.753 109.672 253.79 109.701Z" fill="#0E82FD"/>
<path d="M95.6057 246.464L98.3314 248.054C98.6849 248.262 98.6942 248.773 98.3407 248.962L95.6429 250.391C95.5592 250.438 95.4848 250.505 95.4476 250.59L93.9963 253.306C93.8103 253.656 93.2986 253.647 93.1033 253.278L91.5869 250.476C91.5404 250.391 91.466 250.315 91.3823 250.268L88.6565 248.678C88.303 248.47 88.2937 247.959 88.6472 247.77L91.345 246.341C91.4288 246.293 91.5032 246.227 91.5404 246.142L92.9916 243.426C93.1777 243.075 93.6893 243.085 93.8847 243.454L95.4011 246.255C95.4476 246.341 95.522 246.407 95.6057 246.464Z" fill="#0E82FD"/>
<path d="M273.074 95.155L275.8 96.7449C276.154 96.9531 276.163 97.4642 275.809 97.6535L273.112 99.0825C273.028 99.1298 272.954 99.1961 272.916 99.2813L271.465 101.997C271.279 102.348 270.767 102.338 270.572 101.969L269.056 99.1677C269.009 99.0825 268.935 99.0068 268.851 98.9595L266.125 97.3696C265.772 97.1613 265.762 96.6503 266.116 96.461L268.814 95.0319C268.898 94.9846 268.963 94.9184 269.009 94.8332L270.46 92.117C270.646 91.7669 271.158 91.7763 271.353 92.1454L272.87 94.9468C272.916 95.032 272.991 95.1077 273.074 95.155Z" fill="#0E82FD"/>
<path d="M84.3635 262.65L87.0893 264.24C87.4428 264.448 87.4521 264.959 87.0986 265.149L84.4008 266.578C84.317 266.625 84.2426 266.691 84.2054 266.776L82.7542 269.493C82.5681 269.843 82.0564 269.833 81.8611 269.464L80.3447 266.663C80.2982 266.578 80.2238 266.502 80.1401 266.455L77.4144 264.865C77.0608 264.656 77.0516 264.145 77.4051 263.956L80.1029 262.527C80.1866 262.48 80.261 262.413 80.2982 262.328L81.7495 259.612C81.9355 259.262 82.4472 259.271 82.6425 259.641L84.1589 262.442C84.2054 262.527 84.2798 262.603 84.3635 262.65Z" fill="#0E82FD"/>
<path d="M488.026 315.872L490.751 317.462C491.105 317.67 491.114 318.181 490.761 318.37L488.063 319.799C487.979 319.847 487.905 319.913 487.867 319.998L486.416 322.714C486.23 323.064 485.719 323.055 485.523 322.686L484.007 319.885C483.96 319.799 483.886 319.724 483.802 319.676L481.076 318.086C480.723 317.878 480.714 317.367 481.067 317.178L483.765 315.749C483.849 315.701 483.923 315.635 483.96 315.55L485.412 312.834C485.598 312.484 486.109 312.493 486.305 312.862L487.821 315.664C487.868 315.749 487.942 315.824 488.026 315.872Z" fill="#0E82FD"/>
<path d="M450.488 110.34L452.265 111.371C452.497 111.504 452.497 111.844 452.274 111.958L450.516 112.885C450.46 112.914 450.413 112.961 450.385 113.018L449.437 114.788C449.316 115.015 448.981 115.005 448.86 114.769L447.874 112.942C447.846 112.885 447.799 112.838 447.743 112.8L445.967 111.769C445.734 111.636 445.734 111.295 445.957 111.182L447.716 110.254C447.771 110.226 447.818 110.179 447.846 110.122L448.795 108.352C448.916 108.125 449.251 108.134 449.371 108.371L450.358 110.198C450.385 110.264 450.432 110.311 450.488 110.34Z" fill="#0E82FD"/>
<path d="M253.689 66.7819C264.84 63.2668 272.451 55.7305 270.69 49.949C268.929 44.1675 258.462 42.3302 247.312 45.8453C236.162 49.3604 228.551 56.8968 230.312 62.6783C232.073 68.4598 242.539 70.297 253.689 66.7819Z" fill="#263238"/>
<path d="M247.883 49.139C258.005 45.8076 267.745 46.8771 270.935 51.4103C270.908 50.8235 270.805 50.2368 270.601 49.6784C268.563 43.9811 257.912 42.3344 246.804 45.9969C235.706 49.6595 228.357 57.2401 230.394 62.928C230.571 63.4296 230.822 63.9028 231.138 64.3476C230.915 58.9247 237.873 52.4419 247.883 49.139Z" fill="#455A64"/>
<path d="M532.748 370.36C548.832 355.081 554.05 334.175 544.404 323.666C534.757 313.156 513.899 317.022 497.815 332.301C481.732 347.58 476.513 368.486 486.16 378.995C495.806 389.505 516.665 385.638 532.748 370.36Z" fill="#263238"/>
<path d="M527.542 365.085C512.9 379.026 494.266 383.502 483.754 376.253C484.424 377.473 485.224 378.6 486.182 379.631C495.857 390.117 516.723 386.209 532.789 370.915C548.855 355.621 554.027 334.715 544.352 324.239C543.496 323.311 542.547 322.497 541.524 321.797C547.664 332.945 542.027 351.296 527.542 365.085Z" fill="#455A64"/>
<path d="M427.258 105.902C428.983 94.5222 406.701 81.5819 377.489 76.9993C348.277 72.4167 323.198 77.927 321.473 89.3069C319.748 100.687 342.03 113.627 371.242 118.21C400.454 122.792 425.533 117.282 427.258 105.902Z" fill="#263238"/>
<path d="M377.946 83.479C404.487 88.0785 424.469 99.4164 425.586 109.855C426.302 108.88 426.814 107.839 427.102 106.741C430.023 95.5551 408.794 82.4001 379.676 77.3464C350.559 72.3021 324.585 77.2707 321.655 88.4571C321.394 89.4508 321.329 90.454 321.441 91.4666C327.999 82.5232 351.694 78.9269 377.946 83.479Z" fill="#455A64"/>
<path d="M372.121 95.83C378.791 99.379 383.275 106.08 389.452 110.442C393.545 113.329 398.504 115.326 401.267 119.547C400.997 117.077 399.332 115.023 397.676 113.206C393.006 108.076 387.759 103.486 382.075 99.5494C379.154 97.5241 375.917 95.6218 372.391 95.6408" fill="#0CE0FF"/>
<g opacity="0.2">
<path d="M372.121 95.83C378.791 99.379 383.275 106.08 389.452 110.442C393.545 113.329 398.504 115.326 401.267 119.547C400.997 117.077 399.332 115.023 397.676 113.206C393.006 108.076 387.759 103.486 382.075 99.5494C379.154 97.5241 375.917 95.6218 372.391 95.6408" fill="black"/>
</g>
<path d="M403.863 4.24195C403.742 3.14413 403.546 1.97059 402.811 1.15669C401.807 0.0399415 400.123 -0.0736263 398.635 0.0304774C392.29 0.51314 384.215 10.0812 380.336 15.2107L380.987 43.6878C398.365 34.432 405.351 17.9174 403.863 4.24195Z" fill="#0CE0FF"/>
<g opacity="0.2">
<path d="M403.863 4.24195C403.742 3.14413 403.546 1.97059 402.811 1.15669C401.807 0.0399415 400.123 -0.0736263 398.635 0.0304774C392.29 0.51314 384.215 10.0812 380.336 15.2107L380.987 43.6878C398.365 34.432 405.351 17.9174 403.863 4.24195Z" fill="black"/>
</g>
<path d="M376.383 62.7181C379.704 61.5919 383.034 60.5603 386.337 60.0114C389.639 59.4625 392.97 58.0524 396.226 57.2763C400.449 56.2637 404.403 54.3236 408.459 52.7431C412.515 51.1626 416.841 49.9134 421.157 50.396C417.966 48.7588 414.338 48.1625 410.766 48.172C407.194 48.172 403.649 48.7493 400.124 49.3171C395.23 50.1121 390.244 50.9355 385.807 53.1879C381.378 55.4498 377.304 57.7685 376.383 62.7181Z" fill="#0CE0FF"/>
<g opacity="0.2">
<path d="M376.383 62.7181C379.704 61.5919 383.034 60.5603 386.337 60.0114C389.639 59.4625 392.97 58.0524 396.226 57.2763C400.449 56.2637 404.403 54.3236 408.459 52.7431C412.515 51.1626 416.841 49.9134 421.157 50.396C417.966 48.7588 414.338 48.1625 410.766 48.172C407.194 48.172 403.649 48.7493 400.124 49.3171C395.23 50.1121 390.244 50.9355 385.807 53.1879C381.378 55.4498 377.304 57.7685 376.383 62.7181Z" fill="black"/>
</g>
<path d="M353.842 63.6965C349.544 57.2988 340.948 55.425 333.553 53.5605C343.386 62.1822 353.544 73.0847 361.135 83.7885C362.856 78.5928 359.275 71.7787 353.842 63.6965Z" fill="#0CE0FF"/>
<g opacity="0.2">
<path d="M353.842 63.6965C349.544 57.2988 340.948 55.425 333.553 53.5605C343.386 62.1822 353.544 73.0847 361.135 83.7885C362.856 78.5928 359.275 71.7787 353.842 63.6965Z" fill="black"/>
</g>
<path d="M359.386 103.433C350.539 100.83 343.246 90.552 334.529 87.6466C344.586 87.1639 357.172 93.3155 359.386 103.433Z" fill="#0CE0FF"/>
<g opacity="0.2">
<path d="M359.386 103.433C350.539 100.83 343.246 90.552 334.529 87.6466C344.586 87.1639 357.172 93.3155 359.386 103.433Z" fill="black"/>
</g>
<path d="M368.197 82.6615C373.146 82.2545 378.123 83.5416 382.663 85.6048C387.203 87.6679 391.361 90.4693 395.501 93.2706C395.882 90.0055 394.012 86.9581 392.226 84.223C390.877 82.1694 389.529 80.0968 387.826 78.327C386.124 76.5667 384.031 75.1092 381.658 74.5698C378.802 73.9073 375.714 74.6455 373.277 76.3112C370.849 77.9768 369.267 79.8885 368.197 82.6615Z" fill="#455A64"/>
<path d="M360.057 115.821C360.057 115.821 364.448 85.2995 369.313 68.4726C374.178 51.6456 378.895 32.5 378.895 32.5L380.811 33.03C380.811 33.03 370.541 66.2675 366.541 86.9273C362.54 107.568 363.871 116.843 363.871 116.843L360.057 115.821Z" fill="#0E82FD"/>
<path d="M402.076 2.09928C402.085 2.10874 402.011 2.21285 401.871 2.41159C401.704 2.63873 401.499 2.92265 401.239 3.26335C400.681 4.00154 399.89 5.07097 398.922 6.41485C396.988 9.09316 394.429 12.8788 391.88 17.2416C389.341 21.6045 387.294 25.7024 385.899 28.712C385.201 30.2168 384.652 31.4376 384.289 32.2894C384.112 32.6869 383.964 33.0086 383.852 33.2642C383.75 33.4818 383.694 33.5954 383.675 33.5954C383.666 33.5954 383.703 33.4724 383.787 33.2358C383.889 32.9708 384.01 32.6395 384.168 32.2326C384.503 31.3619 385.015 30.1221 385.685 28.6079C387.024 25.5699 389.043 21.4437 391.592 17.0713C394.15 12.6989 396.746 8.92281 398.727 6.28236C399.723 4.9574 400.541 3.89743 401.127 3.18764C401.406 2.8564 401.63 2.58194 401.806 2.37373C401.983 2.18445 402.067 2.08981 402.076 2.09928Z" fill="#455A64"/>
<path d="M375.676 47.9863C369.955 41.5413 368.318 32.6168 370.699 24.2885C372.365 18.4587 375.993 13.4428 379.779 8.74865C380.104 8.3417 380.477 7.90636 380.988 7.81172C381.695 7.67922 382.337 8.2376 382.812 8.78651C386.942 13.5564 388.133 20.3136 387.835 26.6545C387.64 30.8754 386.84 35.1248 384.988 38.9104C383.146 42.7054 379.463 46.2355 375.676 47.9863Z" fill="#0CE0FF"/>
<path d="M375.676 47.9848C375.666 47.9848 375.694 47.8618 375.769 47.6252C375.852 47.3602 375.955 47.029 376.085 46.6315C376.373 45.7703 376.764 44.5116 377.211 42.95C378.113 39.8269 379.145 35.4545 379.936 30.5617C380.718 25.6593 381.164 21.1829 381.48 17.9462C381.629 16.3562 381.75 15.0597 381.843 14.1038C381.89 13.6779 381.927 13.3372 381.955 13.0628C381.983 12.8262 382.001 12.7031 382.02 12.7031C382.029 12.7031 382.029 12.8262 382.029 13.0722C382.02 13.3467 382.001 13.6968 381.983 14.1227C381.936 15.0313 381.853 16.3468 381.722 17.9746C381.471 21.2207 381.053 25.7066 380.271 30.6184C379.48 35.5302 378.411 39.9121 377.443 43.0257C376.959 44.5778 376.541 45.8271 376.215 46.6788C376.066 47.0763 375.936 47.3981 375.843 47.6536C375.741 47.8807 375.694 47.9943 375.676 47.9848Z" fill="#263238"/>
<g opacity="0.2">
<path d="M368.197 82.6615C373.146 82.2545 378.123 83.5416 382.663 85.6048C387.203 87.6679 391.361 90.4693 395.501 93.2706C395.882 90.0055 394.012 86.9581 392.226 84.223C390.877 82.1694 389.529 80.0968 387.826 78.327C386.124 76.5667 384.031 75.1092 381.658 74.5698C378.802 73.9073 375.714 74.6455 373.277 76.3112C370.849 77.9768 369.267 79.8885 368.197 82.6615Z" fill="#0CE0FF"/>
</g>
<path d="M389.891 107.51C389.881 107.52 389.798 107.453 389.639 107.311C389.463 107.141 389.239 106.933 388.97 106.687C388.402 106.138 387.584 105.334 386.532 104.387C386.021 103.904 385.444 103.384 384.821 102.835C384.207 102.277 383.528 101.709 382.802 101.122C381.351 99.958 379.723 98.7087 377.853 97.6677C375.992 96.6172 374.039 95.9642 372.197 95.9452C371.276 95.9168 370.401 95.9074 369.583 96.0115C368.773 96.1061 368.029 96.2859 367.359 96.4942C366.029 96.9106 365.024 97.4595 364.364 97.8759C363.703 98.2923 363.359 98.5668 363.341 98.5478C363.331 98.5384 363.415 98.4627 363.573 98.3302C363.731 98.1882 363.973 97.9989 364.299 97.7718C364.95 97.3175 365.945 96.7213 367.294 96.2765C367.964 96.0493 368.727 95.8601 369.555 95.7465C370.383 95.6235 371.276 95.6329 372.206 95.6519C374.095 95.6519 376.132 96.3238 378.011 97.3838C379.909 98.4343 381.546 99.7024 382.997 100.885C383.723 101.482 384.393 102.059 385.007 102.627C385.63 103.185 386.197 103.715 386.7 104.207C387.723 105.182 388.523 106.015 389.063 106.592C389.314 106.857 389.519 107.075 389.686 107.264C389.826 107.425 389.891 107.51 389.891 107.51Z" fill="#455A64"/>
<path d="M353.955 97.1222C353.964 97.1032 354.15 97.2168 354.466 97.4439C354.782 97.6616 355.229 98.0212 355.741 98.485C356.773 99.4124 358.076 100.87 359.164 102.715C360.253 104.57 360.904 106.416 361.22 107.788C361.378 108.469 361.481 109.028 361.518 109.425C361.564 109.813 361.574 110.031 361.555 110.031C361.499 110.04 361.369 109.179 360.997 107.845C360.625 106.51 359.946 104.703 358.885 102.886C357.815 101.069 356.569 99.6112 355.583 98.6553C354.606 97.69 353.917 97.1695 353.955 97.1222Z" fill="#455A64"/>
<path d="M342.297 60.6834C342.307 60.6739 342.428 60.7497 342.642 60.9011C342.893 61.0809 343.209 61.2986 343.609 61.5825C344.037 61.8948 344.539 62.2544 345.125 62.6803C345.712 63.1062 346.326 63.674 347.033 64.2513C349.833 66.6079 353.433 70.2704 356.596 74.9456C358.14 77.3022 359.489 79.6303 360.549 81.8354C361.601 84.0405 362.447 86.0847 363.061 87.8261C363.685 89.5675 364.131 90.9965 364.429 91.9902C364.568 92.454 364.689 92.8325 364.782 93.1259C364.857 93.3909 364.894 93.5234 364.885 93.5329C364.875 93.5329 364.819 93.4098 364.717 93.1543C364.615 92.8988 364.475 92.5202 364.308 92.0376C363.964 91.0628 363.489 89.6432 362.838 87.9207C362.196 86.1888 361.331 84.173 360.27 81.9868C359.201 79.8006 357.861 77.482 356.317 75.1444C353.172 70.507 349.628 66.8445 346.874 64.4406C346.177 63.8444 345.581 63.2765 345.005 62.8317C344.437 62.3964 343.944 62.0178 343.525 61.6961C343.144 61.3932 342.837 61.1566 342.595 60.9673C342.4 60.7875 342.288 60.6929 342.297 60.6834Z" fill="#455A64"/>
<path d="M382.876 81.2741C382.866 81.293 382.624 81.1889 382.197 80.9901C381.964 80.8766 381.703 80.7535 381.424 80.6116C381.127 80.4601 380.755 80.356 380.364 80.2046C378.801 79.6462 376.438 79.1352 373.936 79.7409C372.68 80.0059 371.554 80.5169 370.596 81.0658C369.628 81.6148 368.838 82.2488 368.214 82.8167C366.949 83.9618 366.41 84.8893 366.363 84.8514C366.345 84.842 366.466 84.6054 366.735 84.1984C367.014 83.8104 367.433 83.2426 368.066 82.6463C368.68 82.0406 369.47 81.3782 370.456 80.8009C371.433 80.2141 372.587 79.6841 373.871 79.4096C376.457 78.785 378.885 79.3529 380.457 79.9775C380.848 80.1478 381.22 80.2709 381.517 80.4412C381.797 80.6021 382.048 80.7441 382.271 80.8766C382.671 81.1037 382.885 81.2457 382.876 81.2741Z" fill="#455A64"/>
<path d="M400.551 51.6055C400.551 51.6149 400.42 51.6528 400.16 51.719C399.862 51.7853 399.49 51.8799 399.025 51.9935C398.039 52.2301 396.616 52.5803 394.867 53.0724C393.127 53.574 391.053 54.2081 388.811 55.0598C386.569 55.9116 384.131 56.9526 381.759 58.3722C380.587 59.0915 379.471 59.877 378.587 60.8139C377.703 61.7887 376.856 62.7351 376.056 63.6531C374.466 65.4797 373.107 67.1832 372.066 68.6879C371.014 70.1927 370.27 71.4704 369.786 72.3789C369.303 73.2874 369.07 73.808 369.042 73.789C369.033 73.789 369.079 73.6471 369.182 73.401C369.284 73.1455 369.442 72.7764 369.665 72.3221C370.112 71.3946 370.838 70.0792 371.861 68.5555C372.894 67.0317 374.233 65.2904 375.815 63.4544C376.605 62.5364 377.452 61.5805 378.336 60.6057C379.257 59.6215 380.392 58.8265 381.582 58.0977C383.982 56.6592 386.438 55.6277 388.699 54.7854C390.96 53.9525 393.043 53.3374 394.802 52.8642C396.56 52.4099 398.002 52.0881 398.997 51.8894C399.472 51.8042 399.853 51.7285 400.151 51.6812C400.411 51.6055 400.551 51.5865 400.551 51.6055Z" fill="#455A64"/>
<path d="M367.935 77.968C367.916 77.968 367.907 77.6746 367.907 77.1541C367.916 76.5673 367.926 75.8291 367.935 74.949C367.944 73.094 367.907 70.5198 367.6 67.709C367.293 64.8982 366.744 62.3903 366.335 60.5732C366.14 59.7214 365.972 59.0022 365.842 58.4249C365.73 57.9138 365.675 57.6299 365.702 57.6299C365.73 57.6299 365.814 57.8949 365.972 58.3965C366.121 58.8981 366.326 59.6173 366.568 60.5164C367.033 62.3146 367.628 64.832 367.935 67.6712C368.251 70.5009 368.251 73.094 368.177 74.949C368.14 75.8764 368.093 76.6336 368.047 77.1541C367.991 77.6841 367.954 77.968 367.935 77.968Z" fill="#455A64"/>
<path d="M371.425 56.9464C371.89 53.4353 371.444 49.8295 370.458 46.4319C367.751 37.1099 360.764 29.1696 351.945 25.4219C356.643 37.0058 361.35 48.5802 366.048 60.1641L367.574 66.1643C369.937 63.5617 370.96 60.4575 371.425 56.9464Z" fill="#0CE0FF"/>
<g opacity="0.2">
<path d="M371.425 56.9464C371.89 53.4353 371.444 49.8295 370.458 46.4319C367.751 37.1099 360.764 29.1696 351.945 25.4219C356.643 37.0058 361.35 48.5802 366.048 60.1641L367.574 66.1643C369.937 63.5617 370.96 60.4575 371.425 56.9464Z" fill="black"/>
</g>
<path d="M195.889 380.604C206.447 369.894 201.718 347.656 185.328 330.934C168.938 314.213 147.092 309.339 136.534 320.05C125.977 330.76 130.705 352.998 147.095 369.72C163.486 386.441 185.331 391.314 195.889 380.604Z" fill="#263238"/>
<path d="M153.013 363.934C138.054 348.716 132.77 328.888 139.924 317.361C138.687 318.118 137.543 319.027 136.501 320.077C125.97 330.819 130.742 353.069 147.152 369.763C163.562 386.467 185.396 391.294 195.927 380.552C196.857 379.596 197.666 378.555 198.364 377.439C187.015 384.395 167.814 378.991 153.013 363.934Z" fill="#455A64"/>
<path d="M169.748 330.829L183.005 316.472L184.586 318.071C184.586 318.071 173.376 331.321 173.19 334.482L169.748 330.829Z" fill="#455A64"/>
<path d="M148.148 322.562L129.998 350.13L157.497 378.115L184.829 356.897L148.148 322.562Z" fill="#0E82FD"/>
<path d="M157.673 377.944C155.189 380.423 147.087 376.108 139.57 368.309C132.053 360.511 127.979 352.183 130.463 349.703C132.946 347.224 141.049 351.539 148.566 359.337C156.082 367.136 160.166 375.474 157.673 377.944Z" fill="#0E82FD"/>
<g opacity="0.3">
<path d="M157.673 377.944C155.189 380.423 147.087 376.108 139.57 368.309C132.053 360.511 127.979 352.183 130.463 349.703C132.946 347.224 141.049 351.539 148.566 359.337C156.082 367.136 160.166 375.474 157.673 377.944Z" fill="black"/>
</g>
<path d="M185.646 359.004C183.377 361.105 171.888 359.317 159.347 347.581C146.807 335.846 139.7 327.016 146.1 320.136C151.356 314.486 161.85 318.782 174.39 330.518C186.93 342.253 193.107 352.105 185.646 359.004Z" fill="#0E82FD"/>
<path d="M157.496 378.109C157.487 378.099 157.636 377.967 157.934 377.711C158.259 377.446 158.696 377.087 159.255 376.623C160.445 375.658 162.138 374.285 164.278 372.554C168.641 369.061 174.809 364.131 182.139 358.272L182.111 358.301C182.679 357.657 182.679 356.635 182.502 355.708C182.325 354.761 181.972 353.824 181.553 352.916C180.707 351.089 179.6 349.31 178.353 347.578C175.86 344.114 172.846 340.783 169.525 337.613C165.906 334.168 162.101 331.12 158.213 328.688C156.268 327.486 154.296 326.417 152.296 325.66C151.301 325.29 150.287 324.978 149.282 324.855C148.296 324.732 147.217 324.798 146.584 325.451L146.603 325.423C141.663 332.805 137.533 338.985 134.611 343.348C133.16 345.487 132.016 347.181 131.216 348.364C130.835 348.922 130.528 349.357 130.304 349.679C130.1 349.973 129.979 350.124 129.969 350.114C129.96 350.105 130.053 349.944 130.248 349.641C130.462 349.31 130.742 348.865 131.104 348.288C131.886 347.086 133.002 345.373 134.407 343.206C137.291 338.824 141.375 332.606 146.249 325.186L146.259 325.177L146.268 325.167C146.659 324.742 147.198 324.524 147.719 324.429C148.249 324.335 148.789 324.344 149.319 324.41C150.38 324.533 151.412 324.855 152.445 325.224C154.492 325.991 156.482 327.06 158.445 328.272C162.371 330.713 166.194 333.78 169.841 337.243C173.181 340.433 176.214 343.774 178.725 347.285C179.972 349.036 181.097 350.834 181.953 352.708C182.381 353.645 182.735 354.61 182.921 355.613C183.098 356.588 183.135 357.742 182.409 358.585L182.4 358.594L182.381 358.604C175.013 364.405 168.808 369.288 164.418 372.743C162.241 374.437 160.52 375.771 159.32 376.708C158.743 377.144 158.296 377.494 157.961 377.74C157.673 378.005 157.506 378.118 157.496 378.109Z" fill="#263238"/>
<path d="M240.822 274.074H190.838V249.165L238.45 131.357H267.018V249.165H279.4V274.074H267.018V305.703H240.831V274.074H240.822ZM240.822 249.174V181.176H240.347L214.644 249.174H240.822Z" fill="#0E82FD"/>
<g opacity="0.3">
<path d="M240.822 274.074H190.838V249.165L238.45 131.357H267.018V249.165H279.4V274.074H267.018V305.703H240.831V274.074H240.822ZM240.822 249.174V181.176H240.347L214.644 249.174H240.822Z" fill="black"/>
</g>
<path d="M228.906 274.074H178.922V249.165L226.534 131.357H255.102V249.165H267.484V274.074H255.102V305.703H228.915V274.074H228.906ZM228.906 249.174V181.176H228.431L202.728 249.174H228.906Z" fill="#0E82FD"/>
<path d="M300.313 296.73C293.485 289.092 290.08 278.303 290.08 264.353V172.695C290.08 158.745 293.494 147.956 300.313 140.318C307.132 132.681 316.974 128.857 329.831 128.857C342.687 128.857 352.52 132.681 359.349 140.318C366.167 147.956 369.582 158.745 369.582 172.695V264.353C369.582 278.303 366.167 289.092 359.349 296.73C352.52 304.367 342.687 308.19 329.831 308.19C316.974 308.19 307.132 304.367 300.313 296.73ZM343.394 266.095V170.953C343.394 159.492 338.873 153.767 329.831 153.767C320.789 153.767 316.267 159.492 316.267 170.953V266.095C316.267 277.555 320.789 283.281 329.831 283.281C338.873 283.281 343.394 277.555 343.394 266.095Z" fill="#0E82FD"/>
<g opacity="0.3">
<path d="M359.349 140.318C352.52 132.681 342.687 128.857 329.831 128.857C316.974 128.857 307.132 132.681 300.313 140.318C293.485 147.956 290.08 158.745 290.08 172.695V264.353C290.08 278.303 293.494 289.092 300.313 296.73C307.132 304.367 316.974 308.19 329.831 308.19C342.687 308.19 352.52 304.376 359.349 296.73C366.167 289.092 369.582 278.303 369.582 264.353V172.695C369.582 158.754 366.167 147.956 359.349 140.318ZM343.394 266.095C343.394 277.555 338.873 283.281 329.831 283.281C320.789 283.281 316.267 276.089 316.267 266.095V170.953C316.267 160.562 320.789 153.767 329.831 153.767C338.873 153.767 343.394 159.492 343.394 170.953V266.095Z" fill="black"/>
</g>
<path d="M288.397 296.73C281.569 289.092 278.164 278.303 278.164 264.353V172.695C278.164 158.745 281.578 147.956 288.397 140.318C295.216 132.681 305.058 128.857 317.915 128.857C330.771 128.857 340.604 132.681 347.433 140.318C354.251 147.956 357.666 158.745 357.666 172.695V264.353C357.666 278.303 354.251 289.092 347.433 296.73C340.604 304.367 330.771 308.19 317.915 308.19C305.058 308.19 295.216 304.367 288.397 296.73ZM331.478 266.095V170.953C331.478 159.492 326.957 153.767 317.915 153.767C308.873 153.767 304.351 159.492 304.351 170.953V266.095C304.351 277.555 308.873 283.281 317.915 283.281C326.957 283.281 331.478 277.555 331.478 266.095Z" fill="#0E82FD"/>
<path d="M428.05 274.074H378.057V249.165L425.668 131.357H454.237V249.165H466.619V274.074H454.237V305.703H428.05V274.074ZM428.05 249.174V181.176H427.575L401.862 249.174H428.05Z" fill="#0E82FD"/>
<g opacity="0.3">
<path d="M428.05 274.074H378.057V249.165L425.668 131.357H454.237V249.165H466.619V274.074H454.237V305.703H428.05V274.074ZM428.05 249.174V181.176H427.575L401.862 249.174H428.05Z" fill="black"/>
</g>
<path d="M416.134 274.074H366.141V249.165L413.752 131.357H442.321V249.165H454.703V274.074H442.321V305.703H416.134V274.074ZM416.134 249.174V181.176H415.659L389.946 249.174H416.134Z" fill="#0E82FD"/>
<path d="M511.298 277.8C523.581 275.278 527.242 241.495 519.476 202.342C511.71 163.19 495.457 133.495 483.174 136.016C470.891 138.538 467.229 172.321 474.996 211.474C482.762 250.626 499.015 280.321 511.298 277.8Z" fill="#263238"/>
<path d="M512.779 203.918C505.699 168.23 491.578 140.405 479.828 137.67C480.87 136.837 481.986 136.289 483.196 136.043C495.475 133.525 511.727 163.214 519.495 202.376C527.263 241.528 523.598 275.314 511.318 277.832C510.23 278.059 509.113 278.021 507.969 277.756C517.486 270.147 519.774 239.219 512.779 203.918Z" fill="#455A64"/>
<path d="M635.531 136.434L648.695 116.891C648.695 116.891 672.64 123.932 675.412 120.563L639.085 93.2402L617.354 122.825L635.531 136.434Z" fill="#263238"/>
<path d="M636.293 110.103C635.735 109.374 635.828 108.21 636.516 107.614C637.205 107.018 638.377 107.103 638.944 107.822C639.521 108.532 639.437 109.942 638.693 110.463C637.94 110.983 636.572 110.794 636.191 109.961" fill="#E0E0E0"/>
<path d="M639.084 93.2949L637.01 96.3612L672.612 121.403C672.612 121.403 674.751 121.905 675.412 120.608L639.084 93.2949Z" fill="#455A64"/>
<path d="M649.141 117.492C649.262 117.303 648.443 116.555 647.987 115.325C647.504 114.104 647.625 112.978 647.411 112.931C647.225 112.846 646.704 114.123 647.271 115.609C647.829 117.095 649.057 117.691 649.141 117.492Z" fill="white"/>
<path d="M654.118 118.787C654.286 118.645 653.737 117.756 653.69 116.544C653.607 115.333 654.053 114.387 653.876 114.264C653.728 114.112 652.844 115.078 652.927 116.582C652.993 118.097 653.988 118.948 654.118 118.787Z" fill="white"/>
<path d="M659.653 115.762C659.523 115.601 658.62 116.32 658.351 117.645C658.081 118.97 658.63 119.992 658.816 119.897C659.02 119.822 658.872 118.894 659.104 117.796C659.309 116.717 659.811 115.913 659.653 115.762Z" fill="white"/>
<path d="M645.652 121.638C645.698 121.421 644.703 121.052 643.754 120.228C642.786 119.424 642.256 118.496 642.052 118.582C641.856 118.638 642.135 119.878 643.261 120.834C644.387 121.79 645.642 121.847 645.652 121.638Z" fill="white"/>
<path d="M622.906 215.858L636.181 196.4C636.181 196.4 660.08 203.593 662.88 200.233L626.711 172.702L604.812 202.164L622.906 215.858Z" fill="#263238"/>
<path d="M623.828 189.456C623.269 188.727 623.372 187.563 624.069 186.967C624.758 186.37 625.93 186.465 626.497 187.184C627.065 187.904 626.981 189.304 626.228 189.825C625.474 190.336 624.107 190.147 623.725 189.314" fill="#E0E0E0"/>
<path d="M626.71 172.726L624.617 175.782L660.07 201.042C660.07 201.042 662.2 201.553 662.87 200.266L626.71 172.726Z" fill="#455A64"/>
<path d="M636.627 197.052C636.758 196.873 635.93 196.115 635.483 194.876C635.009 193.645 635.129 192.529 634.916 192.472C634.729 192.387 634.199 193.655 634.767 195.15C635.316 196.645 636.544 197.242 636.627 197.052Z" fill="white"/>
<path d="M641.596 198.289C641.763 198.147 641.224 197.258 641.186 196.037C641.112 194.825 641.568 193.888 641.382 193.756C641.233 193.605 640.34 194.56 640.423 196.075C640.479 197.589 641.465 198.46 641.596 198.289Z" fill="white"/>
<path d="M647.149 195.35C647.019 195.189 646.107 195.899 645.837 197.233C645.558 198.558 646.107 199.58 646.293 199.485C646.498 199.41 646.358 198.482 646.591 197.394C646.805 196.306 647.307 195.501 647.149 195.35Z" fill="white"/>
<path d="M633.122 201.11C633.168 200.892 632.173 200.523 631.224 199.69C630.257 198.876 629.736 197.949 629.531 198.034C629.336 198.091 629.605 199.33 630.731 200.286C631.857 201.261 633.103 201.318 633.122 201.11Z" fill="white"/>
<path d="M485.905 229.961C487.142 229.961 597.454 197.632 605.12 190.61C612.794 183.587 644.126 127.977 644.126 127.977L621.874 109.513L583.193 160.789L515.264 167.025C515.264 167.025 486.63 165.038 481.635 175.458L481.16 191.054L485.905 229.961Z" fill="#263238"/>
<path d="M485.904 229.955C487.542 230.002 536.809 285.783 552.252 288.954C567.685 292.124 575.453 281.297 580.728 274.805C587.444 266.533 633.177 207.166 633.177 207.166L610.236 187.859L559.936 242.306L529.692 199.935L503.328 197.418L487.3 211.86L485.904 229.955Z" fill="#263238"/>
<path d="M555.462 247.518C555.453 247.509 555.518 247.433 555.639 247.291C555.778 247.121 555.964 246.912 556.187 246.647C556.699 246.061 557.415 245.247 558.327 244.215C560.225 242.095 562.932 239.067 566.262 235.338C569.63 231.6 573.639 227.152 578.077 222.221C580.31 219.76 582.654 217.177 585.073 214.498C587.538 211.858 590.087 209.113 592.692 206.312C598.989 199.564 604.934 193.204 610.078 187.696L610.227 187.545L610.385 187.677C617.176 193.441 622.888 198.287 626.926 201.722C628.898 203.416 630.47 204.76 631.568 205.706C632.08 206.151 632.48 206.511 632.787 206.776C633.056 207.022 633.196 207.154 633.187 207.164C633.177 207.173 633.028 207.06 632.74 206.833C632.433 206.586 632.014 206.246 631.484 205.82C630.368 204.892 628.768 203.586 626.758 201.93C622.693 198.533 616.944 193.744 610.097 188.037L610.404 188.018C605.278 193.536 599.352 199.905 593.064 206.672C590.45 209.473 587.901 212.208 585.435 214.848C582.998 217.517 580.654 220.092 578.412 222.552C573.937 227.455 569.909 231.874 566.523 235.594C563.146 239.275 560.402 242.256 558.476 244.357C557.536 245.36 556.801 246.155 556.271 246.723C556.029 246.969 555.843 247.168 555.685 247.329C555.536 247.461 555.462 247.528 555.462 247.518Z" fill="#455A64"/>
<path d="M554.828 209.209C554.837 209.237 554.326 209.427 553.395 209.73C552.381 210.051 551.06 210.477 549.451 210.988C546.12 212.039 541.506 213.449 536.446 215.115C535.18 215.541 533.952 215.966 532.762 216.373C531.571 216.771 530.427 217.149 529.403 217.642C527.347 218.616 525.961 220.282 525.245 221.853C524.519 223.433 524.259 224.863 524.064 225.828C523.887 226.803 523.803 227.342 523.766 227.342C523.747 227.342 523.747 227.2 523.766 226.945C523.775 226.68 523.812 226.301 523.878 225.799C524.017 224.815 524.222 223.367 524.929 221.711C525.626 220.064 527.059 218.276 529.199 217.235C530.259 216.705 531.413 216.317 532.604 215.919C533.794 215.512 535.022 215.086 536.287 214.651C541.357 212.976 545.99 211.622 549.339 210.657C551.023 210.174 552.381 209.805 553.33 209.55C554.288 209.304 554.819 209.181 554.828 209.209Z" fill="#455A64"/>
<path d="M471.047 181.954C471.029 181.944 471.113 181.793 471.271 181.509C471.364 181.348 471.466 181.178 471.578 180.979C471.727 180.78 471.894 180.553 472.071 180.307C472.834 179.313 474.117 178.017 475.941 176.739C479.56 174.136 485.234 171.666 491.709 169.84C498.193 168.023 504.24 167.114 508.64 166.821C510.835 166.669 512.622 166.679 513.859 166.755C514.473 166.792 514.947 166.84 515.273 166.887C515.598 166.934 515.766 166.963 515.757 166.982C515.747 167.029 515.078 166.963 513.85 166.953C512.622 166.944 510.854 166.982 508.668 167.18C504.305 167.559 498.295 168.515 491.839 170.323C485.402 172.13 479.755 174.534 476.136 177.032C474.313 178.263 473.02 179.493 472.22 180.439C472.034 180.667 471.857 180.884 471.699 181.074C471.568 181.253 471.457 181.424 471.354 181.566C471.168 181.831 471.066 181.963 471.047 181.954Z" fill="#455A64"/>
<path d="M516.714 261.073C516.705 261.082 516.574 260.997 516.333 260.817C516.053 260.6 515.709 260.325 515.291 259.994C514.332 259.227 513.049 258.196 511.486 256.947C508.276 254.372 503.709 251.003 498.639 247.303C493.559 243.593 489.178 239.94 486.154 237.138C484.647 235.738 483.438 234.583 482.629 233.76C482.256 233.381 481.949 233.069 481.698 232.813C481.484 232.596 481.382 232.473 481.401 232.454C481.41 232.444 481.54 232.539 481.773 232.738C482.043 232.974 482.368 233.268 482.768 233.618C483.615 234.394 484.861 235.511 486.396 236.873C489.475 239.609 493.876 243.205 498.946 246.905C504.016 250.606 508.565 254.032 511.728 256.682C513.309 257.997 514.584 259.076 515.439 259.852C515.83 260.212 516.156 260.505 516.426 260.742C516.612 260.94 516.723 261.054 516.714 261.073Z" fill="#455A64"/>
<path d="M175.834 221.834C190.316 182.479 192.048 146.764 179.701 142.061C167.355 137.359 145.606 165.451 131.123 204.806C116.641 244.161 114.909 279.876 127.256 284.579C139.602 289.281 161.351 261.189 175.834 221.834Z" fill="#263238"/>
<path d="M137.849 207.549C151.05 171.681 170.288 145.163 182.94 144.311C182 143.27 180.921 142.504 179.702 142.049C167.358 137.346 145.608 165.444 131.123 204.795C116.639 244.156 114.909 279.873 127.263 284.577C128.36 284.993 129.523 285.145 130.751 285.069C122.1 275.558 124.788 243.039 137.849 207.549Z" fill="#455A64"/>
<path d="M8.58788 118.973C8.58788 118.973 5.2947 110.427 3.87137 107.332C2.44805 104.238 2.75504 94.7926 3.70392 93.0796C4.65281 91.3666 3.77835 90.0606 3.77835 90.0606C3.77835 90.0606 -1.07771 80.8522 1.19217 78.5808L2.51317 78.4294C2.51317 78.4294 7.37852 88.3098 7.53667 88.5085C7.70412 88.7073 8.76464 88.7546 9.09953 87.0321C9.43443 85.3097 8.61579 80.1992 8.61579 80.1992C8.61579 80.1992 6.77384 76.9435 6.6436 74.71C6.59709 73.8678 7.33201 72.6848 7.9925 72.1737L8.653 71.6626C8.653 71.6626 12.7369 79.177 12.9602 81.0131C13.1835 82.8491 13.937 86.8334 13.937 86.8334L14.5045 86.3697L14.551 77.1518C14.551 77.1518 12.5044 69.3534 14.0579 67.6499C15.6115 65.9464 15.7603 67.3755 15.7603 67.3755C15.7603 67.3755 18.6721 75.3347 18.8954 77.36C18.9884 78.1833 19.0721 86.0952 19.0721 86.0952L20.328 85.5652L20.7652 78.1644C20.7652 78.1644 19.2954 70.8203 21.5001 70.0727L23.2677 70.0159C23.2677 70.0159 24.9422 79.6786 25.1282 80.1329C25.3143 80.5872 23.8444 91.6127 23.8444 91.6127L24.291 92.6537L25.5655 90.8934C25.5655 90.8934 26.1329 89.1994 28.6726 87.7893C31.2029 86.3697 32.3193 87.4012 32.3193 87.4012L29.1377 93.1553C29.1377 93.1553 26.2446 99.8842 25.0538 101.427C23.863 102.969 19.8256 106.613 19.1837 106.963C18.5419 107.323 19.2582 110.304 19.2582 110.304L20.2629 112.386L8.58788 118.973Z" fill="#FFBF9D"/>
<path d="M21.3229 96.4469C21.3229 96.5415 20.2996 96.5226 18.7181 96.9106C17.1552 97.2891 15.0249 98.1788 13.2201 99.8728C11.4154 101.576 10.3735 103.658 9.88044 105.21C9.37809 106.782 9.32228 107.823 9.21995 107.813C9.16413 107.813 9.0804 106.753 9.50833 105.097C9.91765 103.46 10.9503 101.245 12.848 99.4564C15.4621 97.3365 17.5924 96.5226 18.6344 96.5226C20.2903 96.2197 21.3322 96.3901 21.3229 96.4469Z" fill="#FF9A6C"/>
<path d="M21.7594 85.8841C21.7594 86.0734 17.936 85.4393 13.4428 86.6412C8.93091 87.7864 5.8796 90.2092 5.78657 90.0483C5.74936 90.001 6.44707 89.329 7.75876 88.4962C9.06115 87.6634 11.0147 86.7075 13.3032 86.1018C15.601 85.5056 17.7592 85.392 19.2942 85.4866C20.8385 85.5813 21.7687 85.8179 21.7594 85.8841Z" fill="#FF9A6C"/>
<path d="M8.58789 118.964C8.90419 119.74 24.9236 169.066 31.8448 174.366C38.7754 179.665 84.5172 193.341 84.5172 193.341L91.7082 168.545L46.9619 154.264L19.1838 106.973L8.58789 118.964Z" fill="#FFBF9D"/>
<path d="M94.6654 161.734L60.1149 155.733L52.7285 186.302L92.7026 195.605L94.6654 161.734Z" fill="#0E82FD"/>
<path d="M116.368 164.158L114.34 110.232C114.266 96.8026 106.517 85.654 93.3252 86.0988L92.1066 86.2124C79.8641 87.3575 70.5241 97.872 70.6637 110.383C70.7939 122.024 71.0823 134.886 71.7149 141.075C73.0266 153.889 85.8272 154.713 85.8272 154.713C85.8551 154.713 89.7437 170.669 89.7437 170.669L94.209 172.174L116.368 164.158Z" fill="#FFBF9D"/>
<path d="M85.8262 154.733C85.8262 154.733 93.8173 154.468 101.799 148.26C101.799 148.26 99.4734 158.585 86.7844 158.613L85.8262 154.733Z" fill="#FF9A6C"/>
<path d="M77.0263 120.859C77.0821 121.834 77.9287 122.582 78.9334 122.544C79.9288 122.506 80.6916 121.692 80.6451 120.717C80.5893 119.742 79.7427 118.995 78.7473 119.033C77.7333 119.07 76.9705 119.884 77.0263 120.859Z" fill="#263238"/>
<path d="M73.8537 115.876C74.0956 116.094 75.3701 114.939 77.305 114.759C79.24 114.551 80.7564 115.441 80.9424 115.176C81.0354 115.062 80.7657 114.646 80.1052 114.248C79.454 113.851 78.3749 113.501 77.1655 113.624C75.9561 113.747 74.9793 114.286 74.4398 114.807C73.9002 115.327 73.7328 115.781 73.8537 115.876Z" fill="#263238"/>
<path d="M92.3478 120.444C92.5896 120.662 93.8641 119.508 95.8084 119.328C97.7434 119.119 99.2597 120.009 99.4458 119.744C99.5388 119.631 99.2783 119.214 98.6085 118.817C97.9573 118.419 96.8782 118.069 95.6689 118.192C94.4595 118.315 93.4827 118.864 92.9431 119.375C92.3943 119.896 92.2268 120.34 92.3478 120.444Z" fill="#263238"/>
<path d="M87.3148 130.281C87.3148 130.167 86.0868 130.073 84.1146 129.997C83.6123 129.987 83.1378 129.931 83.0262 129.599C82.8774 129.249 83.0355 128.681 83.2216 128.076C83.5751 126.817 83.9472 125.492 84.3379 124.101C85.8728 118.451 86.9427 113.823 86.7194 113.766C86.4961 113.709 85.0635 118.233 83.5286 123.883C83.1564 125.274 82.8122 126.599 82.4773 127.867C82.3378 128.454 82.0773 129.136 82.4029 129.864C82.5704 130.224 82.9611 130.47 83.2867 130.527C83.6123 130.593 83.8914 130.574 84.1425 130.565C86.0961 130.508 87.3148 130.394 87.3148 130.281Z" fill="#263238"/>
<path d="M90.7294 115.3C91.0364 115.782 92.8691 115.073 95.1576 114.808C97.4367 114.495 99.381 114.723 99.5671 114.183C99.6415 113.928 99.2229 113.511 98.3763 113.18C97.5391 112.849 96.2832 112.64 94.9157 112.811C93.5482 112.981 92.376 113.492 91.6411 114.022C90.9062 114.562 90.5899 115.073 90.7294 115.3Z" fill="#263238"/>
<path d="M73.3981 110.783C73.8353 111.199 75.3796 110.613 77.2773 110.442C79.1658 110.215 80.8124 110.471 81.1473 109.969C81.2961 109.732 81.0077 109.297 80.2728 108.928C79.5472 108.559 78.3657 108.303 77.0634 108.436C75.761 108.578 74.6632 109.07 74.0306 109.581C73.3888 110.101 73.2027 110.584 73.3981 110.783Z" fill="#263238"/>
<path d="M114.164 119.854C114.369 119.74 122.592 116.437 123.113 125.229C123.634 134.031 114.843 132.744 114.815 132.488C114.787 132.242 114.164 119.854 114.164 119.854Z" fill="#FFBF9D"/>
<path d="M117.26 128.972C117.298 128.944 117.418 129.067 117.679 129.171C117.93 129.275 118.367 129.323 118.805 129.124C119.698 128.726 120.377 127.203 120.33 125.613C120.302 124.808 120.098 124.061 119.781 123.445C119.484 122.821 119.046 122.395 118.581 122.338C118.116 122.262 117.809 122.556 117.716 122.811C117.614 123.067 117.679 123.237 117.632 123.256C117.614 123.275 117.437 123.124 117.484 122.755C117.512 122.575 117.595 122.366 117.791 122.187C117.986 122.007 118.284 121.893 118.609 121.912C119.279 121.922 119.912 122.508 120.265 123.18C120.647 123.852 120.907 124.704 120.935 125.603C120.981 127.382 120.191 129.095 118.963 129.54C118.367 129.739 117.846 129.587 117.567 129.389C117.288 129.181 117.232 128.991 117.26 128.972Z" fill="#FF9A6C"/>
<path d="M93.4827 131.245C93.185 131.245 93.2687 133.26 91.6314 134.775C89.9941 136.298 87.8731 136.166 87.8638 136.45C87.8452 136.582 88.3568 136.819 89.2499 136.8C90.1243 136.791 91.3988 136.44 92.3942 135.513C93.3896 134.585 93.7896 133.393 93.8176 132.56C93.8548 131.718 93.6129 131.226 93.4827 131.245Z" fill="#263238"/>
<path d="M52.6263 99.722C52.7286 99.192 53.0728 98.7472 53.5101 98.4443C54.4683 97.7913 55.6125 97.7913 56.7102 97.7062C59.4545 97.4885 62.1337 96.5989 64.4966 95.1887C63.6129 94.8007 62.7849 94.318 62.0686 93.6745C60.5802 92.3401 59.6499 90.2201 60.1709 88.28C60.2732 87.9204 60.4499 87.5324 60.7941 87.3999C61.343 87.1917 61.8733 87.7217 62.2919 88.1381C63.6687 89.5198 64.8967 90.0782 66.8037 89.7564C67.9852 89.5577 69.1294 89.217 70.0318 88.5639C70.069 88.5261 70.0969 88.4788 70.1341 88.4315C70.5528 87.9299 70.9621 87.4567 71.3714 86.9929C74.4227 83.5007 77.0833 81.059 79.8928 79.6962C84.0139 77.6993 91.0282 76.5542 95.5028 77.4532C99.9775 78.3523 104.154 81.7404 105.038 86.2831C107.373 84.0023 111.085 83.7846 114.164 84.8257L114.239 84.7878C117.662 85.791 119.783 89.2737 120.983 92.6808C121.048 92.8701 121.104 93.0593 121.169 93.2486C122.416 94.9995 124.044 96.4664 125.951 97.4412C126.286 97.6115 126.667 97.8197 126.732 98.1983C126.797 98.5674 126.5 98.8986 126.211 99.1447C125.448 99.7788 124.537 100.224 123.569 100.46C123.923 101.265 124.332 102.05 124.825 102.788C125.244 103.413 125.737 104.17 125.448 104.87C125.225 105.41 124.583 105.665 124.007 105.618C123.43 105.571 122.909 105.277 122.406 105.003C122.834 105.892 123.262 106.773 123.69 107.662C122.49 107.956 121.234 107.937 120.034 107.643C119.523 110.937 119.355 116.984 118.667 119.237C116.378 119.426 115.801 119.199 114.667 119.663C113.197 120.259 113.932 122.928 111.941 122.284C110.927 121.953 109.169 118.224 108.778 117.221C106.164 110.539 104.982 103.271 105.345 96.0878C103.866 94.6682 102.117 93.5515 100.229 92.7943L100.387 92.9268C96.7773 91.9047 92.7027 90.9205 89.4467 92.8227C86.9256 94.2991 85.5581 97.1383 83.7534 99.457C80.3207 103.848 76.2833 106.328 70.7946 106.915C70.5342 110.833 70.776 117.192 70.8039 120.827L67.3247 113.767V113.795C67.0549 113.388 66.8223 112.972 66.5991 112.555L66.5247 112.432V112.413C66.1711 111.741 65.8362 111.069 65.399 110.416C65.3897 110.426 65.3804 110.435 65.3711 110.454C63.5478 112.309 60.543 109.839 61.9384 107.634C62.2175 107.199 62.5524 106.801 62.9431 106.47C62.1151 107.369 60.8221 107.852 59.6406 107.568C58.4591 107.274 57.4917 106.148 57.5196 104.908C57.5382 104.066 58.0777 103.28 58.8034 102.902C57.2498 103.12 55.6404 102.873 54.2264 102.173C53.3147 101.672 52.3937 100.877 52.6263 99.722Z" fill="#263238"/>
<path d="M101.169 88.0049C101.141 88.0427 101.718 88.3077 102.509 89.1027C103.29 89.8977 104.202 91.2983 104.713 93.2574C104.974 94.2322 105.16 95.3205 105.234 96.513C105.309 97.696 105.299 98.9736 105.29 100.318C105.29 101.661 105.281 103.081 105.448 104.548C105.532 105.277 105.671 106.024 105.867 106.753C106.072 107.472 106.304 108.258 106.89 108.854C107.355 109.337 108.09 109.526 108.713 109.356C109.337 109.204 109.876 108.826 110.267 108.334C111.021 107.311 111.151 106.081 111.29 104.983L111.03 105.031C111.523 105.977 112.025 106.904 112.732 107.633C113.43 108.362 114.36 108.816 115.281 108.845C115.737 108.854 116.193 108.75 116.574 108.532C116.965 108.305 117.235 107.955 117.412 107.586C117.579 107.217 117.653 106.81 117.607 106.431C117.56 106.053 117.393 105.693 117.142 105.456L117.012 105.589C118.053 106.658 119.123 107.198 119.858 107.491C120.23 107.633 120.519 107.718 120.723 107.775C120.919 107.822 121.03 107.841 121.03 107.832C121.03 107.822 120.928 107.785 120.742 107.728C120.547 107.662 120.258 107.567 119.905 107.406C119.188 107.094 118.156 106.526 117.151 105.466L117.021 105.598C117.477 106.034 117.551 106.838 117.226 107.51C117.058 107.841 116.816 108.154 116.472 108.343C116.137 108.542 115.718 108.627 115.3 108.617C114.453 108.589 113.588 108.163 112.937 107.463C112.267 106.772 111.783 105.863 111.29 104.917L111.086 104.52L111.03 104.974C110.89 106.062 110.751 107.255 110.062 108.173C109.718 108.617 109.225 108.958 108.676 109.091C108.127 109.233 107.532 109.081 107.123 108.665C106.611 108.154 106.369 107.406 106.174 106.696C105.978 105.977 105.848 105.248 105.755 104.529C105.578 103.09 105.578 101.68 105.578 100.336C105.578 98.9926 105.588 97.7149 105.495 96.513C105.411 95.3111 105.206 94.2038 104.927 93.2195C104.388 91.2416 103.43 89.822 102.602 89.0365C101.755 88.232 101.169 88.0049 101.169 88.0049Z" fill="#455A64"/>
<path d="M62.7754 102.986C62.7754 102.986 62.8126 103.014 62.8777 103.071C62.9707 103.128 63.0731 103.204 63.2126 103.289C63.3615 103.383 63.5382 103.497 63.7708 103.601C63.9941 103.715 64.2545 103.857 64.5615 103.961C65.7709 104.453 67.6873 104.898 70.0409 104.614C72.3666 104.33 75.1202 103.317 77.5017 101.263C79.9204 99.2571 81.967 96.3895 83.595 93.1528C84.423 91.5345 85.0742 89.8878 85.8091 88.3641C86.544 86.8309 87.3626 85.4113 88.3952 84.2662C89.4186 83.1115 90.6279 82.2314 91.9024 81.7866C92.535 81.55 93.1862 81.4648 93.8095 81.4364C94.4328 81.427 95.0374 81.5216 95.5956 81.673C96.7119 81.9759 97.6236 82.5342 98.3306 83.121C99.0376 83.7172 99.5307 84.3608 99.8749 84.9192C100.526 86.0643 100.6 86.8214 100.647 86.812C100.656 86.812 100.647 86.7646 100.628 86.6795C100.61 86.5754 100.582 86.4429 100.545 86.2914C100.461 85.9507 100.284 85.4586 99.9772 84.8718C99.6423 84.2945 99.1586 83.6226 98.4423 83.0074C97.7259 82.3923 96.7957 81.8055 95.6514 81.4837C95.084 81.3229 94.4607 81.2282 93.8095 81.2188C93.1676 81.2377 92.4792 81.3229 91.8187 81.5595C90.4884 82.0137 89.2325 82.9128 88.1906 84.0863C87.1301 85.2599 86.2835 86.6984 85.5393 88.241C84.7951 89.7837 84.1346 91.4209 83.3159 93.0203C81.7066 96.2286 79.6785 99.0584 77.3156 101.055C74.9713 103.09 72.2921 104.103 70.0037 104.406C67.6966 104.718 65.7988 104.311 64.5894 103.857C63.3894 103.383 62.794 102.948 62.7754 102.986Z" fill="#455A64"/>
<path d="M61.2777 97.3951C61.2684 97.414 61.4359 97.5181 61.7522 97.6885C62.0591 97.8683 62.5336 98.0765 63.1383 98.2942C63.7336 98.5213 64.4779 98.72 65.3058 98.8715C66.1431 99.0134 67.0733 99.0891 68.0501 99.0702C69.0269 99.0324 69.9479 98.8999 70.7758 98.7106C71.5945 98.5118 72.3201 98.2658 72.9062 98.0008C73.4923 97.7452 73.9574 97.4992 74.2551 97.3099C74.5621 97.1206 74.7202 97.0071 74.7109 96.9881C74.683 96.9408 74.0039 97.3478 72.8318 97.802C72.2457 98.0386 71.5294 98.2563 70.72 98.4361C69.9107 98.6065 68.999 98.7295 68.0408 98.7674C67.0826 98.7863 66.171 98.72 65.3523 98.597C64.5337 98.4645 63.7988 98.2847 63.2034 98.0954C62.0033 97.7074 61.3056 97.3383 61.2777 97.3951Z" fill="#455A64"/>
<path d="M155.645 262.845L156.519 258.587C145.989 253.845 136.425 247.126 128.332 238.797L81.7715 190.872L82.9808 177.121L105.903 155.287C105.903 155.287 116.834 147.915 131.002 153.622C147.096 160.114 153.905 169.303 172.697 191.582C180.139 200.411 175.962 193.039 183.237 197.818C183.237 197.818 178.669 223.059 170.036 238.703C163.72 250.154 155.645 262.845 155.645 262.845Z" fill="#0E82FD"/>
<path d="M86.5909 195.961C86.5351 195.999 85.856 195.081 84.8699 193.528C83.8838 191.967 82.6186 189.752 81.4 187.216C80.1813 184.67 79.2417 182.295 78.637 180.553C78.0323 178.803 77.744 177.695 77.7998 177.676C77.8742 177.648 78.2742 178.717 78.9626 180.421C79.651 182.124 80.6371 184.462 81.8465 186.989C83.0558 189.516 84.2652 191.74 85.1676 193.339C86.0792 194.939 86.656 195.923 86.5909 195.961Z" fill="#263238"/>
<g opacity="0.3">
<path d="M167.665 227.613C167.665 227.613 169.033 219.834 166.112 212.102C163.191 204.37 155.646 193.486 155.646 193.486L153.051 195.975L167.665 227.613Z" fill="black"/>
</g>
<path d="M127.375 275.21L144.148 230.577L135.31 219.344L118.64 198.504C118.64 198.504 106.741 192.22 101.039 182.945C99.262 180.049 98.9177 175.156 100.778 171.579C105.988 161.557 116.77 157.591 127.514 160.582L136.966 166.885C136.966 166.885 168.158 216.618 167.656 226.205C167.302 232.972 140.994 278.796 140.994 278.796L127.375 275.21Z" fill="#FFBF9D"/>
<path d="M128.556 273.312L109.942 274.939C107.979 275.11 106.211 276.207 105.16 277.892L96.834 291.265C96.834 291.265 100.155 292.826 102.351 290.328C104.611 287.754 108.1 282.577 108.1 282.577L106.518 297.473C106.518 297.473 110.807 297.899 111.532 294.577C112.36 290.763 112.425 285.766 112.425 285.766L116.612 299.924C116.612 299.924 121.161 298.401 119.7 293.044C118.779 289.665 117.784 286.183 117.784 286.183L122.891 295.4C122.891 295.4 126.603 295.069 125.635 291.643C124.993 289.362 123.021 284.839 123.021 284.839C123.021 284.839 133.738 285.662 135.868 284.877C138.771 283.807 141.738 277.542 141.738 277.542L128.556 273.312Z" fill="#FFBF9D"/>
<path d="M112.052 157.986C112.052 157.986 96.433 166.532 98.1447 178.476C99.8565 190.419 113.29 196.647 113.29 196.647L130.751 215.688L158.194 191.432L133.226 159.87" fill="#0E82FD"/>
<path d="M133.217 159.877C133.217 159.877 133.264 159.915 133.347 160.009C133.44 160.123 133.561 160.255 133.701 160.435C134.026 160.833 134.482 161.391 135.068 162.11C136.268 163.606 138.008 165.763 140.203 168.498C144.613 174.035 150.874 181.899 158.353 191.297L158.483 191.468L158.325 191.61C150.316 198.698 140.976 206.97 131.04 215.762L130.901 215.885L130.715 216.046L130.547 215.866C124.389 209.146 118.491 202.701 113.095 196.815L113.17 196.872C109.848 195.187 106.937 193.058 104.49 190.644C102.071 188.221 100.099 185.496 99.0014 182.562C98.7689 181.814 98.4712 181.105 98.313 180.366C98.1735 179.619 97.9781 178.899 97.9037 178.171C97.7363 176.704 97.8293 175.265 98.1084 173.931C98.6758 171.243 99.9503 169.01 101.271 167.192C103.988 163.568 106.881 161.391 108.844 159.971C109.839 159.271 110.639 158.779 111.179 158.457C111.439 158.315 111.644 158.192 111.802 158.107C111.942 158.031 112.016 158.003 112.025 158.003C112.025 158.012 111.96 158.05 111.821 158.145C111.663 158.24 111.467 158.372 111.216 158.533C110.686 158.874 109.904 159.385 108.927 160.104C107.002 161.552 104.146 163.757 101.495 167.372C100.201 169.18 98.9735 171.385 98.434 174.007C98.1642 175.313 98.0898 176.713 98.2572 178.133C98.3316 178.843 98.5363 179.552 98.6758 180.281C98.834 181 99.1317 181.701 99.3642 182.429C101.625 188.146 106.89 193.143 113.356 196.455L113.402 196.483L113.43 196.512C118.826 202.398 124.742 208.834 130.901 215.544L130.556 215.525L130.696 215.402C140.641 206.629 149.999 198.367 158.018 191.297L157.99 191.61C150.567 182.164 144.352 174.262 139.98 168.697C137.822 165.934 136.12 163.748 134.947 162.233C134.38 161.495 133.943 160.927 133.636 160.52C133.496 160.341 133.394 160.189 133.301 160.076C133.245 159.934 133.217 159.886 133.217 159.877Z" fill="#263238"/>
<path d="M114.006 276.966C114.006 277.051 113.392 277.032 112.481 277.297C111.578 277.553 110.36 278.158 109.439 279.275C108.527 280.392 108.155 281.726 108.081 282.673C107.988 283.638 108.118 284.244 108.034 284.253C107.988 284.272 107.736 283.676 107.736 282.654C107.736 281.641 108.071 280.184 109.067 278.953C110.071 277.733 111.42 277.136 112.397 276.956C113.392 276.767 114.016 276.909 114.006 276.966Z" fill="#FF9A6C"/>
<path d="M115.718 279.187C115.746 279.254 115.346 279.528 114.723 279.992C114.416 280.228 114.044 280.503 113.663 280.844C113.3 281.194 112.89 281.572 112.723 282.083C112.369 283.162 112.444 284.279 112.5 285.046C112.574 285.822 112.695 286.295 112.63 286.323C112.574 286.352 112.332 285.897 112.165 285.102C112.016 284.317 111.867 283.162 112.267 281.913C112.49 281.26 112.983 280.834 113.374 280.493C113.793 280.153 114.193 279.897 114.528 279.698C115.225 279.301 115.691 279.131 115.718 279.187Z" fill="#FF9A6C"/>
<path d="M123.505 280.97C123.523 281.036 122.946 281.207 122.007 281.32C121.105 281.453 119.718 281.529 118.872 282.626C118.053 283.715 117.886 285.087 118.062 285.967C118.239 286.866 118.537 287.396 118.463 287.434C118.425 287.462 118.016 286.999 117.728 286.043C117.458 285.087 117.551 283.573 118.49 282.323C118.965 281.699 119.672 281.33 120.295 281.178C120.928 281.017 121.505 280.999 121.97 280.98C122.919 280.951 123.495 280.904 123.505 280.97Z" fill="#FF9A6C"/>
<path d="M137.972 276.96C137.925 277.083 135.693 276.326 132.976 275.266C131.618 274.736 130.399 274.244 129.525 273.865C128.65 273.487 128.111 273.231 128.129 273.203C128.176 273.004 130.436 273.752 133.153 274.802C135.86 275.862 138.018 276.837 137.972 276.96Z" fill="#FF9A6C"/>
<g opacity="0.3">
<path d="M179.796 192.682C179.796 192.682 176.456 222.408 169.907 234.522C163.367 246.636 157.981 257.009 157.981 257.009L157.516 259.299C157.516 259.299 170.8 237.976 173.209 232.677C175.61 227.367 179.991 216.711 182.401 206.357C184.801 196.06 185.182 194.272 185.108 194.272C185.117 194.272 181.312 191.433 179.796 192.682Z" fill="black"/>
</g>
</svg>
