<svg width="36" height="51" viewBox="0 0 36 51" fill="none" xmlns="http://www.w3.org/2000/svg">
<path d="M32.7039 31.3594C32.5702 31.4844 32.4866 31.5602 32.4055 31.6399C31.1153 32.9165 29.6682 33.9377 27.969 34.556C25.3295 35.5174 22.6385 35.4522 19.99 34.7595C17.2733 34.0481 14.6004 33.1465 11.9249 32.2742C9.73299 31.5588 7.66588 31.6586 5.81359 33.1638C4.28417 34.4058 3.43906 36.1464 2.78433 37.9893C2.73159 38.1383 2.81263 38.3776 2.89881 38.5345C3.88156 40.3203 5.08426 41.9346 6.48891 43.388C9.82689 46.8373 13.9302 48.8864 18.3757 50.2879C19.4125 50.6137 20.4994 50.7679 21.5632 51.0006H23.4927C23.6149 50.9687 23.7345 50.9222 23.8593 50.9049C25.4234 50.6868 26.774 50.0246 27.879 48.8465C28.7524 47.9157 29.411 46.836 29.9024 45.6552C31.7469 41.2259 32.7052 36.5985 32.7451 31.7716C32.7464 31.6519 32.7219 31.5322 32.7039 31.3594ZM11.4708 43.7071C10.9987 43.7045 10.5832 43.267 10.591 42.7803C10.6 42.3016 10.9833 41.908 11.4528 41.8974C11.9493 41.8867 12.3455 42.2777 12.3506 42.7856C12.3558 43.2803 11.9467 43.7085 11.4708 43.7071ZM9.72141 40.0478C8.2563 40.0571 7.08962 38.8643 7.07933 37.3471C7.06904 35.8312 8.21257 34.6159 9.6751 34.5919C11.1376 34.568 12.3661 35.8206 12.3558 37.3232C12.3455 38.8324 11.1788 40.0384 9.72141 40.0478ZM14.1309 40.0637C14.1283 39.5597 14.5271 39.1435 15.0082 39.1475C15.4918 39.1502 15.8841 39.5704 15.8751 40.0757C15.8674 40.5863 15.4738 40.9692 14.9734 40.9546C14.4949 40.94 14.1322 40.557 14.1309 40.0637ZM15.8661 44.614C15.3838 44.602 14.9914 44.1739 15.0069 43.6765C15.0223 43.1939 15.4043 42.8122 15.8777 42.8096C16.3794 42.8056 16.7562 43.1939 16.7524 43.7125C16.7485 44.2217 16.3511 44.626 15.8661 44.614ZM19.4022 37.3338C19.891 37.3285 20.2962 37.738 20.2949 38.2353C20.2949 38.734 19.8897 39.1435 19.4022 39.1369C18.907 39.1316 18.5339 38.7273 18.5455 38.2101C18.5571 37.7154 18.925 37.3378 19.4022 37.3338ZM19.3829 47.3373C18.8838 47.3213 18.5249 46.9171 18.5468 46.3958C18.5674 45.9118 18.9597 45.5235 19.4215 45.5288C19.8961 45.5355 20.3078 45.973 20.2962 46.4597C20.2846 46.957 19.8717 47.3532 19.3829 47.3373ZM19.3958 42.7949C18.9327 42.7843 18.5545 42.3867 18.5455 41.9014C18.5365 41.3868 18.916 40.9812 19.4086 40.9772C19.8884 40.9746 20.3 41.3987 20.2962 41.8894C20.291 42.3774 19.8653 42.8056 19.3958 42.7949ZM23.8271 37.3325C24.321 37.3351 24.7069 37.7447 24.6966 38.2526C24.6864 38.7632 24.2876 39.1529 23.7924 39.1369C23.3254 39.1209 22.946 38.722 22.9408 38.242C22.937 37.742 23.3383 37.3298 23.8271 37.3325ZM23.8541 48.2561C23.373 48.2747 22.9524 47.8678 22.9408 47.3718C22.9293 46.8852 23.3409 46.4464 23.8142 46.441C24.2902 46.4344 24.7018 46.8612 24.7005 47.3572C24.6979 47.8412 24.3236 48.2388 23.8541 48.2561ZM25.5855 45.5222C24.1307 45.5195 22.9434 44.3015 22.937 42.8043C22.9293 41.2977 24.1615 40.0305 25.6112 40.0544C27.0635 40.0783 28.2289 41.307 28.2263 42.8096C28.2224 44.3161 27.0467 45.5235 25.5855 45.5222ZM29.1228 39.1369C28.6353 39.1409 28.2314 38.73 28.234 38.2314C28.2353 37.7327 28.6405 37.3258 29.1293 37.3325C29.6245 37.3404 29.995 37.7447 29.9821 38.2633C29.9705 38.7566 29.6001 39.1329 29.1228 39.1369Z" fill="#0E82FD"/>
<path d="M32.1634 25.9376C31.5576 23.2449 30.6134 20.7011 28.9219 18.5151C28.1077 17.4646 27.1558 16.5923 25.8785 16.1641C25.1093 15.9048 24.4558 15.9461 23.886 16.6388C23.5091 17.0989 22.9753 17.0909 22.6061 16.7266C22.2408 16.3649 22.246 15.849 22.6319 15.3942C23.2737 14.6389 24.0982 14.1642 24.9909 13.8065C26.6503 13.1443 28.3739 13.0725 30.1182 13.26C30.7318 13.3252 31.3415 13.4369 31.9898 13.5326C31.8779 11.7282 32.4528 10.2097 33.5912 8.89988C27.1391 6.21119 20.467 8.27226 15.9019 14.1509C15.9366 14.1842 15.9688 14.2227 16.0074 14.2493C19.146 16.442 20.9764 19.5975 22.1701 23.217C22.381 23.8592 22.1778 24.3592 21.68 24.5374C21.1603 24.7222 20.714 24.4297 20.4979 23.7661C19.8238 21.7024 18.8707 19.7929 17.5278 18.1069C16.0073 16.1987 14.1499 14.8145 11.7201 14.514C7.12923 13.9448 3.11336 16.3689 1.31381 20.7703C-0.759721 25.8392 -0.169304 30.8602 1.63025 35.9942C1.79232 35.6605 1.88236 35.469 1.97626 35.2802C2.95643 33.3015 4.33407 31.6899 6.28798 30.7405C8.33064 29.7485 10.4415 29.8336 12.5768 30.573C14.9796 31.404 17.3979 32.1992 19.8406 32.8867C21.8999 33.4651 24.0146 33.6699 26.1396 33.2045C28.7869 32.626 30.7768 31.0104 32.4374 28.8935C32.5403 28.7632 32.5738 28.5212 32.5493 28.343C32.4413 27.5385 32.3422 26.7287 32.1634 25.9376ZM8.19815 18.4858C5.80947 19.4126 4.65308 21.3846 4.01635 23.7728C3.80926 24.5507 3.72822 25.3671 3.61245 26.1689C3.55071 26.5918 3.4954 26.9973 3.06448 27.2021C2.43419 27.504 1.77817 27.0146 1.81162 26.266C2.06759 23.4111 2.7905 20.7503 4.78428 18.6201C5.56765 17.7824 6.4925 17.1641 7.56529 16.8024C8.07338 16.6309 8.55317 16.8769 8.70882 17.3423C8.86318 17.8063 8.67537 18.301 8.19815 18.4858Z" fill="#0E82FD"/>
<path d="M14.0334 13.173C9.6008 11.8912 5.71742 12.8432 2.21094 15.9109C2.46949 15.2833 2.69073 14.6357 2.99301 14.032C3.45609 13.1052 4.08381 12.2808 4.92891 11.7143C6.67701 10.5442 7.46166 8.8009 7.7588 6.77973C7.91187 5.73457 7.90544 4.66415 7.96847 3.60569C7.97747 3.46209 7.96975 3.31715 7.96975 3.16423C11.7888 3.96472 11.7888 3.96472 14.9789 3.15625C15.1229 6.55501 14.8772 9.90457 14.0334 13.173Z" fill="#0E82FD"/>
<path d="M14.9405 0.950785C14.071 2.1821 9.31161 2.33103 7.96484 0.980039C9.31418 -0.320425 13.7198 -0.323084 14.9405 0.950785Z" fill="#0E82FD"/>
<path d="M34.8134 13.8034C34.6346 13.9802 34.295 14.169 34.1162 14.1025C33.9348 14.0347 33.8435 13.6651 33.7483 13.4138C33.6994 13.2821 33.7251 13.1199 33.7148 12.9284C33.7843 11.9258 34.1097 10.983 34.8326 10.2384C35.0372 10.0283 35.3768 9.96047 35.6546 9.82617C35.7717 10.1054 35.9762 10.3807 35.9916 10.6666C36.0572 11.8846 35.6752 12.9563 34.8134 13.8034Z" fill="#0E82FD"/>
<path d="M26.4694 42.7758C26.4797 43.2625 26.0681 43.7 25.5947 43.7053C25.1149 43.7119 24.7162 43.2957 24.7188 42.7891C24.72 42.2891 25.0738 41.9115 25.5562 41.8969C26.0462 41.8822 26.4591 42.2785 26.4694 42.7758Z" fill="#0E82FD"/>
<path d="M10.5784 37.3406C10.5694 37.8486 10.1655 38.2488 9.68059 38.2302C9.19823 38.2116 8.81105 37.7781 8.83291 37.2808C8.85478 36.7981 9.24067 36.4231 9.71532 36.4258C10.217 36.4285 10.5874 36.8207 10.5784 37.3406Z" fill="#0E82FD"/>
</svg>
