<svg width="50" height="51" viewBox="0 0 50 51" fill="none" xmlns="http://www.w3.org/2000/svg">
<path d="M23.8643 41.0722V50.9998H3.08261C2.48546 46.4611 1.88831 41.9392 1.28516 37.3565C2.87705 37.3565 4.42994 37.3489 5.98133 37.3732C6.09686 37.3763 6.2589 37.5949 6.31291 37.7437C7.40669 40.7867 8.70901 43.7568 9.38868 46.941C9.41419 47.0639 9.4772 47.1778 9.64375 47.3008C9.74427 46.7086 9.88231 46.1195 9.93782 45.5242C10.1104 43.6156 10.2709 41.7069 10.4014 39.7967C10.5575 37.5266 12.4014 35.6544 14.6445 35.5435C15.0721 35.5223 15.5027 35.5405 15.8988 35.5405C16.3219 37.1075 16.676 38.6563 17.1696 40.1581C17.5207 41.2286 18.0218 42.2581 18.532 43.2663C18.8951 43.9876 19.4022 44.0696 20.0699 43.6262C21.3182 42.7941 22.559 41.9513 23.8643 41.0722Z" fill="#0E82FD"/>
<path d="M36.521 50.9992V46.4986H34.7341V50.981H25.7363V41.0777C25.9389 41.2083 26.1039 41.3116 26.266 41.4209C27.3417 42.1452 28.4145 42.8756 29.4933 43.5968C30.2149 44.0797 30.6636 43.981 31.1137 43.2157C32.248 41.2873 32.8331 39.1523 33.3537 36.9961C33.4558 36.5755 33.5458 36.1519 33.6673 35.6113C34.5495 35.8163 35.4047 36.0137 36.353 36.2354C35.0987 38.0515 35.6793 39.8296 36.1114 41.5894C36.455 42.9894 36.9786 44.3029 37.7873 45.5298C38.6005 46.7628 38.7356 48.2645 38.9711 49.704C39.0387 50.114 39.0717 50.5285 39.1272 50.9992H36.521Z" fill="#0E82FD"/>
<path d="M33.3943 16.741C31.9915 16.0228 30.7477 15.0738 29.7544 13.8408C29.0267 12.9358 28.4011 11.9443 27.7394 11.0059C25.1363 15.6174 21.1393 18.0393 15.918 18.2504V22.7419H33.5624C33.6104 22.4656 33.6854 22.2256 33.6929 21.9812C33.7379 20.4673 33.7589 18.9504 33.8129 17.4365C33.8249 17.0812 33.7064 16.9005 33.3943 16.741ZM20.3141 21.635C19.4589 21.6426 18.7387 20.9243 18.7312 20.0573C18.7237 19.1918 19.4333 18.4614 20.2901 18.4553C21.1468 18.4478 21.867 19.1645 21.873 20.033C21.8805 20.9 21.1723 21.6274 20.3141 21.635ZM29.2998 21.635C28.4431 21.6319 27.7304 20.9076 27.7334 20.0406C27.7349 19.1736 28.4521 18.4523 29.3088 18.4553C30.167 18.4569 30.8782 19.1812 30.8752 20.0497C30.8722 20.9183 30.1565 21.638 29.2998 21.635Z" fill="#0E82FD"/>
<path d="M50 38.4824C49.9595 40.2104 49.5424 41.8822 48.7682 43.3991C48.2236 44.4681 48.0345 45.569 47.871 46.7078C47.7224 47.7388 47.6009 48.7744 47.4404 49.8039C47.3458 50.4067 47.0173 50.6922 46.5206 50.6785C46.0045 50.6649 45.6984 50.3323 45.6429 49.693C45.5484 48.6165 45.4659 47.5384 45.3774 46.4618C45.3113 45.6434 44.9692 45.1863 44.2476 44.9509C43.5469 44.7201 42.7667 44.9297 42.3331 45.534C42.1696 45.7633 42.084 46.0822 42.054 46.3707C41.943 47.4458 41.8695 48.5238 41.7825 49.6019C41.7284 50.2792 41.4374 50.6421 40.9212 50.6724C40.4051 50.7013 40.0645 50.3855 39.9595 49.7052C39.7074 48.0774 39.4899 46.4436 39.2258 44.8173C39.1703 44.4757 38.9933 44.1462 38.8342 43.8288C38.042 42.2557 37.5754 40.5778 37.4254 38.8346C37.3038 37.3952 37.895 36.8607 39.7689 36.8941C40.7697 36.9229 42.114 37.3542 43.3233 38.1726C43.6504 38.3943 43.907 38.4019 44.2506 38.2546C45.2153 37.8416 46.1846 37.4362 47.1703 37.0793C47.5484 36.9411 47.9745 36.8926 48.3796 36.8834C49.4044 36.8607 50.024 37.4498 50 38.4824Z" fill="#0E82FD"/>
<path d="M10.3891 26.4353C10.3771 27.0002 9.98697 27.2431 9.48584 27.3813V34.6152H4.08749C4.131 34.934 4.16551 35.1891 4.20602 35.4883H1.04623C0.869189 34.19 0.687644 32.8811 0.5151 31.5707C0.344058 30.2754 0.176016 28.9787 0.0199766 27.6819C-0.136062 26.3958 0.63363 25.5227 1.92245 25.5121C2.62913 25.506 3.33581 25.5106 4.08299 25.5106V22.8184H9.46934V25.4392C9.96446 25.6123 10.4026 25.837 10.3891 26.4353Z" fill="#0E82FD"/>
<path d="M43.0615 28.0375C40.8154 26.4067 38.9069 24.6165 37.1485 22.5863C38.1192 22.1445 38.7944 21.4688 39.0825 20.4544C39.4636 19.1061 38.9534 17.7228 37.7591 16.9408C37.4846 16.7601 37.4005 16.5748 37.3975 16.2605C37.3825 14.6115 37.4771 12.9472 37.288 11.3164C36.7794 6.89928 34.4868 3.64829 30.6624 1.48755C30.5168 1.40555 30.3698 1.32507 30.1777 1.21878C32.8769 -0.958667 37.1635 -0.114411 39.0915 2.92248C39.7786 4.00513 40.1072 5.19255 40.1057 6.47564C40.1042 8.84745 40.0952 11.2193 40.1087 13.5896C40.1342 18.3651 41.0479 22.9644 42.8154 27.3907C42.8829 27.5608 42.9459 27.7339 43.0615 28.0375Z" fill="#0E82FD"/>
<path d="M35.5105 14.8342C34.6598 8.95179 29.5916 5.24223 24.4273 5.48367C19.347 5.72055 14.8834 9.01253 14.0627 15.9336C13.3305 11.7154 14.5398 7.48953 17.389 4.83681C20.5863 1.86066 24.3462 1.00274 28.4363 2.49689C32.5173 3.988 34.8924 7.04918 35.485 11.4147C35.6471 12.6021 35.5105 13.8336 35.5105 14.8342Z" fill="#0E82FD"/>
<path d="M7.69165 12.6909V20.9285H5.91971V12.7319C3.07199 11.5491 1.8927 9.67682 2.40583 7.21694C2.84544 5.1063 4.77342 3.5909 6.94596 3.65011C9.12901 3.70782 10.9385 5.36444 11.2595 7.62844C11.5116 9.40806 10.6024 11.8968 7.69165 12.6909Z" fill="#0E82FD"/>
<path d="M32.8616 24.623C32.0184 27.4382 28.434 29.9513 25.1286 30.0606C21.4407 30.1821 17.8053 27.8831 16.6035 24.623H32.8616Z" fill="#0E82FD"/>
<path d="M27.1015 7.62727C25.4706 13.698 20.0618 16.5071 15.8652 16.3523C16.2658 10.0887 21.8022 5.80665 27.1015 7.62727Z" fill="#0E82FD"/>
<path d="M28.3972 33.3465C28.3957 33.4513 28.3612 33.5789 28.2982 33.6578C27.1549 35.0593 26.0056 36.4548 24.8038 37.914C24.3987 37.4236 24.0311 36.9787 23.6635 36.5337C22.9674 35.688 22.2832 34.8331 21.5675 34.0055C21.2899 33.6836 21.1684 33.3541 21.1924 32.9305C21.2224 32.4021 21.1999 31.8721 21.1999 31.2678C23.617 32.0801 25.9891 32.1075 28.4017 31.2344C28.4017 31.986 28.4047 32.6663 28.3972 33.3465Z" fill="#0E82FD"/>
<path d="M23.4674 39.1464C22.2071 39.9983 20.9798 40.8258 19.694 41.6929C18.7247 39.6035 18.1891 37.4792 17.793 35.3154C17.772 35.1985 17.838 35.0102 17.928 34.9388C18.3811 34.5774 18.8567 34.2434 19.2228 33.9746C20.6482 35.7117 22.0435 37.4108 23.4674 39.1464Z" fill="#0E82FD"/>
<path d="M31.8674 35.3059C31.4308 37.4772 30.8982 39.6197 29.9109 41.6879C28.6401 40.8299 27.4008 39.9948 26.1465 39.1475C27.5688 37.4059 28.9612 35.7052 30.376 33.9727C30.7541 34.249 31.2283 34.5846 31.6844 34.9445C31.7834 35.0219 31.8884 35.1996 31.8674 35.3059Z" fill="#0E82FD"/>
<path d="M33.6468 14.6685C31.9274 14.257 28.8996 10.1739 28.8906 8.27734C31.4428 9.68798 33.0077 11.7895 33.6468 14.6685Z" fill="#0E82FD"/>
<path d="M13.9771 18.2522V20.9186C13.3364 21.0295 12.8098 20.8822 12.4407 20.3447C12.1256 19.8831 12.1076 19.3835 12.3957 18.9021C12.7498 18.3145 13.2929 18.152 13.9771 18.2522Z" fill="#0E82FD"/>
<path d="M37.2058 20.2756C36.8517 20.8648 36.3071 21.0227 35.6289 20.927V18.2591C36.2681 18.1498 36.7977 18.2895 37.1638 18.8331C37.4774 19.2962 37.4954 19.7943 37.2058 20.2756Z" fill="#0E82FD"/>
</svg>
