<svg width="678" height="450" viewBox="0 0 678 450" fill="none" xmlns="http://www.w3.org/2000/svg">
<g clip-path="url(#clip0_39_16459)">
<path d="M582.615 37.1905L588.871 27.0921L585.78 25.1768C584.877 24.6128 584.378 23.5806 584.474 22.5165C584.527 21.9312 584.548 21.3353 584.527 20.7394C584.506 19.6753 585.058 18.6751 586.003 18.1749L589.2 16.4511L583.592 5.96964L580.395 7.69349C579.46 8.19362 578.324 8.10849 577.453 7.50195C576.964 7.16144 576.465 6.85285 575.945 6.56554C575.01 6.05477 574.426 5.07579 574.458 4.00104L574.575 0.361796L562.7 0L562.594 3.64989C562.562 4.72463 561.903 5.6504 560.937 6.10797C560.671 6.23566 560.416 6.36336 560.161 6.50169C559.906 6.64002 559.651 6.789 559.407 6.93797C558.494 7.49131 557.368 7.52323 556.465 6.95926L553.353 5.03322L547.097 15.1316L550.188 17.0576C551.09 17.6216 551.59 18.6538 551.494 19.7179C551.441 20.3032 551.42 20.8991 551.441 21.4843C551.462 22.5484 550.91 23.538 549.965 24.0488L546.768 25.7727L552.376 36.2541L555.573 34.5303C556.507 34.0301 557.644 34.1153 558.515 34.7218C559.004 35.0623 559.503 35.3709 560.023 35.6476C560.958 36.1583 561.542 37.1373 561.51 38.2121L561.393 41.8619L573.247 42.2344L573.364 38.5845C573.396 37.5204 574.054 36.5946 575.01 36.1371C575.276 36.0094 575.53 35.8817 575.796 35.7433C576.051 35.605 576.306 35.456 576.55 35.3071C577.464 34.7537 578.6 34.7218 579.514 35.2858L582.615 37.1905ZM572.567 29.6886C567.841 32.2318 561.956 30.4547 559.418 25.7088C556.879 20.9735 558.653 15.0677 563.38 12.5245C568.106 9.98132 574.001 11.769 576.54 16.5043C579.089 21.2502 577.304 27.1454 572.567 29.6886Z" fill="#EBEBEB"/>
<path d="M75.8971 317.156L71.7441 309.941L69.5454 311.218C68.8975 311.59 68.1009 311.558 67.4743 311.143C67.1237 310.92 66.7732 310.707 66.4015 310.516C65.7323 310.175 65.3075 309.505 65.3075 308.76V306.206H56.9909V308.76C56.9909 309.505 56.566 310.175 55.8968 310.516C55.5251 310.707 55.164 310.909 54.8241 311.143C54.1974 311.548 53.4008 311.59 52.7529 311.218L50.5542 309.941L46.4012 317.156L48.6105 318.433C49.2584 318.805 49.6196 319.518 49.5771 320.274C49.5664 320.476 49.5664 320.678 49.5664 320.891C49.5664 321.093 49.5664 321.295 49.5771 321.508C49.6196 322.253 49.2584 322.966 48.6105 323.338L46.3906 324.626L50.5436 331.84L52.7529 330.563C53.4008 330.191 54.1974 330.223 54.8241 330.638C55.164 330.861 55.5251 331.074 55.8968 331.255C56.566 331.596 56.9909 332.266 56.9909 333.011V335.565H65.3075V333.011C65.3075 332.266 65.7323 331.596 66.4015 331.255C66.7732 331.064 67.1237 330.861 67.4743 330.638C68.1009 330.223 68.8975 330.191 69.5454 330.563L71.7547 331.84L75.9077 324.626L73.6984 323.349C73.0505 322.976 72.7 322.263 72.7319 321.519C72.7425 321.316 72.7425 321.104 72.7425 320.901C72.7425 320.699 72.7425 320.497 72.7319 320.284C72.6894 319.539 73.0505 318.826 73.6984 318.443L75.8971 317.156ZM67.9522 320.88C67.9522 324.647 64.9039 327.701 61.1438 327.701C57.3838 327.701 54.3355 324.647 54.3355 320.88C54.3355 317.113 57.3838 314.059 61.1438 314.059C64.9039 314.059 67.9522 317.113 67.9522 320.88Z" fill="#EBEBEB"/>
<path d="M42.1097 211.068C24.2338 211.068 9.74609 225.583 9.74609 243.492C9.74609 261.401 24.2338 275.915 42.1097 275.915C59.9857 275.915 74.4734 261.39 74.4734 243.492C74.4734 225.583 59.9857 211.068 42.1097 211.068ZM42.1097 258.634C33.7612 258.634 26.9954 251.856 26.9954 243.492C26.9954 235.128 33.7612 228.349 42.1097 228.349C50.4582 228.349 57.2241 235.128 57.2241 243.492C57.2347 251.856 50.4582 258.634 42.1097 258.634Z" fill="#EBEBEB"/>
<path d="M48.3331 212.407H35.8848L36.5752 203.586H47.6427L48.3331 212.407Z" fill="#EBEBEB"/>
<path d="M24.6471 216.609L15.8419 225.431L10.0957 218.695L17.9237 210.853L24.6471 216.609Z" fill="#EBEBEB"/>
<path d="M10.8607 236.36V248.832L2.04492 248.14V237.052L10.8607 236.36Z" fill="#EBEBEB"/>
<path d="M15.0568 260.101L23.8513 268.911L17.1386 274.668L9.31055 266.826L15.0568 260.101Z" fill="#EBEBEB"/>
<path d="M34.7695 273.911H47.2179L46.5275 282.733H35.4599L34.7695 273.911Z" fill="#EBEBEB"/>
<path d="M58.4551 269.709L67.2603 260.888L72.9959 267.613L65.1785 275.455L58.4551 269.709Z" fill="#EBEBEB"/>
<path d="M72.2422 249.948V237.487L81.058 238.168V249.267L72.2422 249.948Z" fill="#EBEBEB"/>
<path d="M68.0465 226.221L59.252 217.41L65.9647 211.653L73.7927 219.496L68.0465 226.221Z" fill="#EBEBEB"/>
<path d="M637.657 51.1855C619.781 51.1855 605.293 65.7 605.293 83.6089C605.293 101.518 619.781 116.032 637.657 116.032C655.533 116.032 670.02 101.507 670.02 83.6089C670.02 65.7 655.522 51.1855 637.657 51.1855ZM637.657 98.7405C629.308 98.7405 622.542 91.9621 622.542 83.5982C622.542 75.2344 629.308 68.456 637.657 68.456C646.005 68.456 652.771 75.2344 652.771 83.5982C652.771 91.9727 646.005 98.7405 637.657 98.7405Z" fill="#EBEBEB"/>
<path d="M643.88 52.5254H631.432L632.111 43.6934H643.19L643.88 52.5254Z" fill="#EBEBEB"/>
<path d="M620.183 56.7295L611.389 65.5403L605.643 58.8151L613.471 50.9727L620.183 56.7295Z" fill="#EBEBEB"/>
<path d="M606.397 76.4775V88.9489L597.592 88.2572V77.1692L606.397 76.4775Z" fill="#EBEBEB"/>
<path d="M610.592 100.208L619.397 109.029L612.674 114.786L604.846 106.944L610.592 100.208Z" fill="#EBEBEB"/>
<path d="M630.307 114.019H642.755L642.065 122.851H630.997L630.307 114.019Z" fill="#EBEBEB"/>
<path d="M654.002 109.826L662.797 101.005L668.543 107.73L660.715 115.573L654.002 109.826Z" fill="#EBEBEB"/>
<path d="M667.789 90.0661V77.5947L676.594 78.2864V89.3744L667.789 90.0661Z" fill="#EBEBEB"/>
<path d="M663.594 66.3381L654.789 57.5167L661.512 51.7705L669.33 59.613L663.594 66.3381Z" fill="#EBEBEB"/>
<path d="M552.418 273.944L551.377 280.372L550.252 287.278L539.991 350.262H523.23L533.48 287.278L534.606 280.372L535.647 273.944H552.418Z" fill="#EBEBEB"/>
<path d="M549.986 273.944C549.105 280.329 548.149 286.692 547.193 293.066L544.24 312.156L541.139 331.225L539.535 340.749L537.867 350.262L539.227 340.696L540.65 331.14L543.603 312.05L546.704 292.981C547.788 286.639 548.85 280.286 549.986 273.944Z" fill="#C7C7C7"/>
<path d="M551.378 280.371L550.252 287.277H533.48L534.606 280.371H551.378Z" fill="#C7C7C7"/>
<path d="M635.191 273.944L636.232 280.372L637.358 287.278L647.608 350.262H664.379L654.129 287.278L653.004 280.372L651.963 273.944H635.191Z" fill="#EBEBEB"/>
<path d="M637.678 273.944C638.559 280.329 639.515 286.692 640.471 293.066L643.424 312.156L646.525 331.225L648.129 340.749L649.797 350.262L648.437 340.696L647.003 331.14L644.051 312.05L640.949 292.981C639.876 286.639 638.814 280.286 637.678 273.944Z" fill="#C7C7C7"/>
<path d="M636.232 280.371H653.004L654.13 287.277H637.358L636.232 280.371Z" fill="#C7C7C7"/>
<path d="M551.801 256.228H538.514L540.16 243.81H550.155L551.801 256.228Z" fill="#C7C7C7"/>
<path d="M557.547 234.944C557.547 241.797 552.003 247.352 545.152 247.352C538.312 247.352 532.768 241.797 532.768 234.944C532.768 228.092 538.312 222.526 545.152 222.526C552.003 222.526 557.547 228.081 557.547 234.944Z" fill="#DBDBDB"/>
<path d="M554.573 234.944C554.573 240.159 550.356 244.383 545.152 244.383C539.947 244.383 535.73 240.159 535.73 234.944C535.73 229.73 539.947 225.506 545.152 225.506C550.356 225.506 554.573 229.73 554.573 234.944Z" fill="white"/>
<path d="M553.033 234.392C552.863 232.083 551.695 229.966 549.953 228.604C548.211 227.231 545.906 226.603 543.622 226.944C541.413 227.273 539.406 228.582 538.173 230.487C536.92 232.392 536.506 234.892 537.175 237.297C537.717 239.266 539.097 240.979 540.85 241.958C542.603 242.958 544.706 243.267 546.618 242.841C548.54 242.437 550.261 241.362 551.45 239.872C552.65 238.393 553.362 236.531 553.436 234.616C553.436 234.52 553.405 234.446 553.362 234.446C553.32 234.446 553.277 234.52 553.267 234.605C553.235 235.382 553.065 236.148 552.831 236.882C552.576 237.606 552.215 238.298 551.79 238.925C551.344 239.553 550.824 240.117 550.25 240.628C549.655 241.117 549.007 241.543 548.296 241.894C546.299 242.852 543.92 242.926 541.87 242.043C539.82 241.181 538.173 239.404 537.504 237.255C536.793 234.967 537.143 232.53 538.333 230.647C539.512 228.763 541.477 227.465 543.633 227.156C546.607 226.731 549.613 227.827 551.44 230.264C551.875 230.87 552.226 231.53 552.491 232.222C552.746 232.924 552.905 233.658 552.99 234.414C552.99 234.435 553.012 234.446 553.022 234.435C553.033 234.446 553.033 234.424 553.033 234.392Z" fill="#EBEBEB"/>
<path d="M551.927 234.404C551.757 232.425 550.748 230.627 549.261 229.467C547.764 228.307 545.809 227.754 543.855 228.03C541.964 228.296 540.222 229.403 539.139 231.042C538.045 232.67 537.652 234.84 538.226 236.937C538.682 238.661 539.883 240.161 541.423 241.012C542.952 241.885 544.79 242.14 546.447 241.768C548.114 241.406 549.612 240.459 550.631 239.171C551.662 237.884 552.278 236.277 552.352 234.617C552.352 234.543 552.32 234.468 552.278 234.468C552.235 234.468 552.193 234.532 552.182 234.606C552.044 237.33 550.313 239.714 547.88 240.895C546.17 241.736 544.099 241.81 542.315 241.055C540.541 240.321 539.107 238.767 538.544 236.894C537.939 234.915 538.268 232.808 539.298 231.201C540.329 229.594 542.028 228.498 543.866 228.254C546.404 227.924 548.943 228.828 550.525 230.903C550.908 231.414 551.205 231.978 551.439 232.574C551.662 233.17 551.8 233.798 551.885 234.447C551.895 234.468 551.906 234.468 551.917 234.468C551.927 234.447 551.927 234.425 551.927 234.404Z" fill="#EBEBEB"/>
<path d="M550.824 234.415C550.654 232.755 549.805 231.286 548.562 230.318C547.319 229.36 545.715 228.902 544.08 229.105C542.508 229.296 541.031 230.211 540.097 231.573C539.151 232.925 538.801 234.766 539.257 236.553C539.629 238.022 540.649 239.32 541.966 240.044C543.272 240.789 544.844 241.001 546.257 240.661C547.67 240.342 548.934 239.533 549.794 238.426C550.665 237.33 551.175 235.979 551.249 234.574C551.249 234.51 551.217 234.446 551.175 234.446C551.132 234.446 551.09 234.5 551.09 234.564C550.952 236.851 549.497 238.841 547.468 239.852C546.034 240.576 544.271 240.661 542.773 240.022C541.265 239.405 540.054 238.075 539.597 236.5C539.109 234.83 539.396 233.053 540.277 231.722C541.159 230.392 542.593 229.498 544.112 229.317C545.174 229.2 546.204 229.317 547.149 229.679C548.095 230.041 548.955 230.648 549.624 231.499C549.943 231.925 550.198 232.382 550.399 232.872C550.591 233.361 550.718 233.883 550.803 234.425C550.814 234.436 550.824 234.446 550.835 234.436C550.824 234.446 550.835 234.436 550.824 234.415Z" fill="#EBEBEB"/>
<path d="M549.72 234.426C549.55 233.085 548.849 231.947 547.861 231.18C546.873 230.435 545.62 230.063 544.292 230.191C543.039 230.318 541.828 231.021 541.042 232.127C540.256 233.213 539.938 234.713 540.288 236.203C540.564 237.427 541.414 238.512 542.508 239.108C543.591 239.714 544.898 239.885 546.066 239.597C547.224 239.321 548.254 238.64 548.955 237.725C549.656 236.82 550.07 235.724 550.134 234.575C550.134 234.522 550.102 234.479 550.06 234.468C550.017 234.468 549.975 234.511 549.975 234.564C549.847 236.426 548.658 238.001 547.033 238.863C545.886 239.47 544.43 239.555 543.209 239.044C541.977 238.544 540.978 237.448 540.628 236.15C540.246 234.777 540.511 233.33 541.244 232.287C541.977 231.223 543.145 230.542 544.345 230.435C545.185 230.372 545.992 230.467 546.735 230.744C547.479 231.021 548.169 231.489 548.7 232.149C548.955 232.479 549.157 232.84 549.338 233.223C549.497 233.617 549.603 234.022 549.688 234.468C549.699 234.479 549.709 234.49 549.72 234.479C549.72 234.447 549.731 234.437 549.72 234.426Z" fill="#EBEBEB"/>
<path d="M648.807 256.228H635.52L637.166 243.81H647.161L648.807 256.228Z" fill="#C7C7C7"/>
<path d="M654.553 234.944C654.553 241.797 649.009 247.352 642.158 247.352C635.318 247.352 629.773 241.797 629.773 234.944C629.773 228.092 635.318 222.526 642.158 222.526C649.009 222.526 654.553 228.081 654.553 234.944Z" fill="#DBDBDB"/>
<path d="M651.579 234.944C651.579 240.159 647.362 244.383 642.158 244.383C636.953 244.383 632.736 240.159 632.736 234.944C632.736 229.73 636.953 225.506 642.158 225.506C647.362 225.506 651.579 229.73 651.579 234.944Z" fill="white"/>
<path d="M650.039 234.392C649.869 232.083 648.7 229.966 646.958 228.604C645.217 227.231 642.912 226.603 640.628 226.944C638.419 227.273 636.411 228.582 635.179 230.487C633.926 232.392 633.512 234.892 634.181 237.297C634.723 239.266 636.103 240.979 637.856 241.958C639.608 242.958 641.711 243.267 643.623 242.841C645.546 242.437 647.267 241.362 648.456 239.872C649.656 238.393 650.368 236.531 650.442 234.616C650.442 234.52 650.41 234.446 650.368 234.446C650.325 234.446 650.283 234.52 650.272 234.605C650.24 235.382 650.071 236.148 649.837 236.882C649.582 237.606 649.221 238.298 648.796 238.925C648.35 239.553 647.829 240.117 647.256 240.628C646.661 241.117 646.013 241.543 645.302 241.894C643.305 242.852 640.925 242.926 638.876 242.043C636.826 241.181 635.179 239.404 634.51 237.255C633.798 234.967 634.149 232.53 635.339 230.647C636.518 228.763 638.483 227.465 640.639 227.156C643.613 226.731 646.619 227.827 648.445 230.264C648.881 230.87 649.231 231.53 649.497 232.222C649.752 232.924 649.911 233.658 649.986 234.414C649.996 234.435 650.007 234.446 650.017 234.435C650.039 234.446 650.039 234.424 650.039 234.392Z" fill="#EBEBEB"/>
<path d="M648.933 234.404C648.763 232.425 647.754 230.627 646.267 229.467C644.77 228.307 642.815 227.754 640.861 228.03C638.97 228.296 637.228 229.403 636.145 231.042C635.051 232.67 634.658 234.84 635.231 236.937C635.688 238.661 636.888 240.161 638.428 241.012C639.958 241.885 641.795 242.14 643.452 241.768C645.12 241.406 646.618 240.459 647.637 239.171C648.668 237.884 649.284 236.277 649.358 234.617C649.358 234.543 649.326 234.468 649.284 234.468C649.241 234.468 649.199 234.532 649.199 234.606C649.061 237.33 647.329 239.714 644.897 240.895C643.187 241.736 641.116 241.81 639.331 241.055C637.558 240.321 636.124 238.767 635.561 236.894C634.955 234.915 635.285 232.808 636.315 231.201C637.345 229.594 639.045 228.498 640.882 228.254C643.421 227.924 645.959 228.828 647.542 230.903C647.924 231.414 648.221 231.978 648.455 232.574C648.678 233.17 648.816 233.798 648.901 234.447C648.912 234.468 648.923 234.468 648.933 234.468C648.933 234.447 648.933 234.425 648.933 234.404Z" fill="#EBEBEB"/>
<path d="M647.83 234.415C647.66 232.755 646.81 231.286 645.568 230.318C644.325 229.36 642.721 228.902 641.086 229.105C639.514 229.296 638.037 230.211 637.102 231.573C636.157 232.925 635.807 234.766 636.263 236.553C636.635 238.022 637.655 239.32 638.972 240.044C640.278 240.789 641.85 241.001 643.263 240.661C644.676 240.342 645.94 239.533 646.8 238.426C647.671 237.33 648.181 235.979 648.255 234.574C648.255 234.51 648.223 234.446 648.181 234.446C648.138 234.446 648.096 234.5 648.096 234.564C647.958 236.851 646.502 238.841 644.474 239.852C643.04 240.576 641.277 240.661 639.779 240.022C638.271 239.405 637.06 238.075 636.603 236.5C636.115 234.83 636.401 233.053 637.283 231.722C638.165 230.392 639.599 229.498 641.117 229.317C642.18 229.2 643.21 229.317 644.155 229.679C645.1 230.041 645.961 230.648 646.63 231.499C646.949 231.925 647.204 232.382 647.405 232.872C647.597 233.361 647.724 233.883 647.809 234.425C647.82 234.436 647.83 234.446 647.841 234.436C647.83 234.446 647.83 234.436 647.83 234.415Z" fill="#EBEBEB"/>
<path d="M646.726 234.426C646.556 233.085 645.855 231.947 644.867 231.18C643.879 230.435 642.626 230.063 641.298 230.191C640.045 230.318 638.834 231.021 638.048 232.127C637.262 233.213 636.943 234.713 637.294 236.203C637.57 237.427 638.42 238.512 639.514 239.108C640.597 239.714 641.904 239.885 643.072 239.597C644.23 239.321 645.26 238.64 645.961 237.725C646.662 236.82 647.076 235.724 647.14 234.575C647.14 234.522 647.108 234.479 647.066 234.468C647.023 234.468 646.981 234.511 646.981 234.564C646.853 236.426 645.664 238.001 644.039 238.863C642.891 239.47 641.436 239.555 640.215 239.044C638.983 238.544 637.984 237.448 637.634 236.15C637.251 234.777 637.517 233.33 638.25 232.287C638.983 231.223 640.151 230.542 641.351 230.435C642.19 230.372 642.998 230.467 643.741 230.744C644.485 231.021 645.175 231.489 645.706 232.149C645.961 232.479 646.163 232.84 646.343 233.223C646.503 233.617 646.609 234.022 646.694 234.468C646.704 234.479 646.715 234.49 646.726 234.479C646.726 234.447 646.736 234.437 646.726 234.426Z" fill="#EBEBEB"/>
<path d="M677.347 249.896H510.271V281.915H677.347V249.896Z" fill="#DBDBDB"/>
<path d="M544.61 249.896L532.48 281.915H510.908L523.027 249.896H544.61Z" fill="#EBEBEB"/>
<path d="M588.838 249.896L576.708 281.915H555.125L567.255 249.896H588.838Z" fill="#EBEBEB"/>
<path d="M633.055 249.896L620.926 281.915H599.354L611.483 249.896H633.055Z" fill="#EBEBEB"/>
<path d="M677.283 249.896L665.153 281.915H643.57L655.7 249.896H677.283Z" fill="#EBEBEB"/>
<path d="M673.958 311.519H513.648V331.779H673.958V311.519Z" fill="#DBDBDB"/>
<path d="M546.595 311.519L534.965 331.779H514.264L525.894 311.519H546.595Z" fill="#EBEBEB"/>
<path d="M589.039 311.519L577.397 331.779H556.686L568.327 311.519H589.039Z" fill="#EBEBEB"/>
<path d="M631.461 311.519L619.83 331.779H599.129L610.759 311.519H631.461Z" fill="#EBEBEB"/>
<path d="M673.905 311.519L662.264 331.779H641.562L653.193 311.519H673.905Z" fill="#EBEBEB"/>
<path d="M464.248 450.009C571.105 450.009 657.729 444.149 657.729 436.921C657.729 429.692 571.105 423.832 464.248 423.832C357.392 423.832 270.768 429.692 270.768 436.921C270.768 444.149 357.392 450.009 464.248 450.009Z" fill="#EBEBEB"/>
<path d="M1.30078 350.252L85.8052 349.986L170.31 349.901L339.319 349.72L508.327 349.901L592.832 349.986L677.336 350.252L592.832 350.507L508.327 350.603L339.319 350.784L170.31 350.603L85.8052 350.507L1.30078 350.252Z" fill="#263238"/>
<path d="M543.284 79.9775H135.355V353.357H543.284V79.9775Z" fill="#DBDBDB"/>
<path d="M540.32 83.3203H138.318V350.028H540.32V83.3203Z" fill="#263238"/>
<path d="M596.412 373.862H82.2266V392.623H596.412V373.862Z" fill="#C7C7C7"/>
<path d="M82.2266 373.862L135.355 353.356H543.283L596.412 373.862H82.2266Z" fill="#DBDBDB"/>
<path d="M140.104 366.583L174.39 353.356H504.25L538.536 366.583H140.104Z" fill="#263238"/>
<path d="M517.909 103.482H160.74V329.85H517.909V103.482Z" fill="white"/>
<path d="M517.909 103.482H160.74V112.197H517.909V103.482Z" fill="#455A64"/>
<path d="M167.644 107.835C167.644 109.027 166.678 109.995 165.488 109.995C164.299 109.995 163.332 109.027 163.332 107.835C163.332 106.643 164.299 105.675 165.488 105.675C166.688 105.675 167.644 106.643 167.644 107.835Z" fill="#0E82FD"/>
<path d="M176.449 107.835C176.449 109.027 175.482 109.995 174.293 109.995C173.103 109.995 172.137 109.027 172.137 107.835C172.137 106.643 173.103 105.675 174.293 105.675C175.493 105.675 176.449 106.643 176.449 107.835Z" fill="#EBEBEB"/>
<path d="M185.256 107.835C185.256 109.027 184.289 109.995 183.1 109.995C181.91 109.995 180.943 109.027 180.943 107.835C180.943 106.643 181.91 105.675 183.1 105.675C184.3 105.675 185.256 106.643 185.256 107.835Z" fill="white"/>
<path d="M331.524 259.855H396.602V209.832H331.524V259.855Z" fill="#EBEBEB"/>
<path d="M338.002 220.778C337.216 224.949 340.795 228.535 344.959 227.748C347.285 227.301 349.154 225.428 349.6 223.098C350.386 218.926 346.807 215.34 342.643 216.128C340.317 216.564 338.448 218.448 338.002 220.778Z" fill="white"/>
<path d="M352.998 249.083H396.599L374.804 222.161L352.998 249.083Z" fill="#C7C7C7"/>
<path d="M331.533 249.107H370.195L350.864 231.581L331.533 249.107Z" fill="#DBDBDB"/>
<path d="M396.611 249.084H331.533V259.863H396.611V249.084Z" fill="#DBDBDB"/>
<path d="M227.251 209.84H178.371V213.958H227.251V209.84Z" fill="#DBDBDB"/>
<path d="M319.828 219.396H178.371V223.515H319.828V219.396Z" fill="#DBDBDB"/>
<path d="M319.828 228.46H178.371V232.578H319.828V228.46Z" fill="#DBDBDB"/>
<path d="M319.828 237.527H178.371V241.645H319.828V237.527Z" fill="#DBDBDB"/>
<path d="M319.828 246.594H178.371V250.712H319.828V246.594Z" fill="#DBDBDB"/>
<path d="M319.828 255.66H178.371V259.778H319.828V255.66Z" fill="#DBDBDB"/>
<path d="M345.064 128.958H296.184V139.982H345.064V128.958Z" fill="#DBDBDB"/>
<path d="M396.61 147.578H296.184V151.696H396.61V147.578Z" fill="#DBDBDB"/>
<path d="M396.61 156.646H296.184V160.764H396.61V156.646Z" fill="#DBDBDB"/>
<path d="M396.61 165.712H296.184V169.83H396.61V165.712Z" fill="#DBDBDB"/>
<path d="M396.61 174.778H296.184V178.896H396.61V174.778Z" fill="#DBDBDB"/>
<path d="M396.61 186.835H296.184V190.953H396.61V186.835Z" fill="#DBDBDB"/>
<path d="M396.61 195.902H296.184V200.02H396.61V195.902Z" fill="#DBDBDB"/>
<path d="M500.256 128.958H410.865V140.174H500.256V128.958Z" fill="#0E82FD"/>
<path d="M500.022 140.269H411.109V316.197H500.022V140.269Z" fill="white"/>
<path d="M500.266 316.495H410.865V139.981H500.266V316.495ZM411.354 315.91H499.767V140.567H411.354V315.91Z" fill="#DBDBDB"/>
<path d="M411.342 316.303L410.875 316.09L499.787 140.161L500.255 140.374L411.342 316.303Z" fill="#DBDBDB"/>
<path d="M499.787 316.303L410.875 140.374L411.342 140.161L500.255 316.09L499.787 316.303Z" fill="#DBDBDB"/>
<path d="M285.096 129.15H178.562V199.818H285.096V129.15Z" fill="white"/>
<path d="M178.392 200.019V199.838L178.371 128.99H178.552L285.266 128.958L285.287 199.987H285.106L178.392 200.019ZM178.732 129.352L178.753 199.668L284.926 199.636L284.904 129.32L178.732 129.352Z" fill="#DBDBDB"/>
<path d="M178.732 129.354C187.697 135.036 196.598 140.814 205.488 146.603L232.095 164.075L258.585 181.739L271.787 190.635L284.926 199.627L271.522 191.04L258.17 182.367L231.564 164.895L205.074 147.231C196.268 141.314 187.463 135.376 178.732 129.354Z" fill="#DBDBDB"/>
<path d="M284.926 129.354C276.184 135.376 267.39 141.314 258.585 147.241L232.095 164.905L205.488 182.378L192.137 191.05L178.732 199.638L191.871 190.646L205.074 181.75L231.564 164.086L258.181 146.613C267.061 140.814 275.961 135.036 284.926 129.354Z" fill="#DBDBDB"/>
<path d="M178.734 266.657V316.351H396.103V266.657H178.734Z" fill="white"/>
<path d="M396.462 266.515V316.485H178.371V266.515H396.462ZM395.75 316.219V266.802H179.093V316.219H395.75Z" fill="#DBDBDB"/>
<path d="M396.239 316.229L395.974 316.484L178.605 266.79L178.871 266.524L396.239 316.229Z" fill="#DBDBDB"/>
<path d="M396.239 266.79L178.871 316.484L178.605 316.229L395.974 266.524L396.239 266.79Z" fill="#DBDBDB"/>
<path d="M91.2457 85.8445L68.5527 109.951L70.8941 112.163L93.587 88.0567L91.2457 85.8445Z" fill="#263238"/>
<path d="M92.9644 110.444H69.7246V113.669H92.9644V110.444Z" fill="#455A64"/>
<path d="M92.9644 85.3223H69.7246V88.5465H92.9644V85.3223Z" fill="#455A64"/>
<path d="M70.8908 85.8354L68.5488 88.0469L91.2352 112.16L93.5771 109.949L70.8908 85.8354Z" fill="#455A64"/>
<path d="M91.2379 110.957L68.5449 135.063L70.8862 137.276L93.5792 113.169L91.2379 110.957Z" fill="#263238"/>
<path d="M92.9644 135.566H69.7246V138.791H92.9644V135.566Z" fill="#455A64"/>
<path d="M92.9644 110.444H69.7246V113.669H92.9644V110.444Z" fill="#455A64"/>
<path d="M70.8927 110.957L68.5508 113.169L91.2371 137.282L93.5791 135.071L70.8927 110.957Z" fill="#455A64"/>
<path d="M91.2379 136.086L68.5449 160.192L70.8862 162.405L93.5792 138.298L91.2379 136.086Z" fill="#263238"/>
<path d="M92.9644 160.692H69.7246V163.917H92.9644V160.692Z" fill="#455A64"/>
<path d="M92.9644 135.57H69.7246V138.795H92.9644V135.57Z" fill="#455A64"/>
<path d="M70.8927 136.083L68.5508 138.295L91.2371 162.408L93.5791 160.197L70.8927 136.083Z" fill="#455A64"/>
<path d="M91.2398 161.205L68.5469 185.312L70.8882 187.524L93.5811 163.417L91.2398 161.205Z" fill="#263238"/>
<path d="M92.9644 185.814H69.7246V189.039H92.9644V185.814Z" fill="#455A64"/>
<path d="M92.9664 160.692H69.7266V163.917H92.9664V160.692Z" fill="#455A64"/>
<path d="M70.8947 161.205L68.5527 163.417L91.2391 187.53L93.581 185.319L70.8947 161.205Z" fill="#455A64"/>
<path d="M91.2379 186.33L68.5449 210.437L70.8862 212.649L93.5792 188.542L91.2379 186.33Z" fill="#263238"/>
<path d="M92.9644 210.937H69.7246V214.161H92.9644V210.937Z" fill="#455A64"/>
<path d="M92.9644 185.814H69.7246V189.039H92.9644V185.814Z" fill="#455A64"/>
<path d="M70.8947 186.328L68.5527 188.539L91.2391 212.652L93.581 210.441L70.8947 186.328Z" fill="#455A64"/>
<path d="M91.2379 211.456L68.5449 235.562L70.8862 237.775L93.5792 213.668L91.2379 211.456Z" fill="#263238"/>
<path d="M92.9644 236.062H69.7246V239.287H92.9644V236.062Z" fill="#455A64"/>
<path d="M92.9644 210.94H69.7246V214.165H92.9644V210.94Z" fill="#455A64"/>
<path d="M70.8888 211.444L68.5469 213.655L91.2332 237.769L93.5752 235.557L70.8888 211.444Z" fill="#455A64"/>
<path d="M91.2379 236.578L68.5449 260.685L70.8862 262.897L93.5792 238.79L91.2379 236.578Z" fill="#263238"/>
<path d="M92.9644 261.175H69.7246V264.399H92.9644V261.175Z" fill="#455A64"/>
<path d="M92.9644 236.062H69.7246V239.287H92.9644V236.062Z" fill="#455A64"/>
<path d="M70.8888 236.566L68.5469 238.777L91.2332 262.891L93.5752 260.679L70.8888 236.566Z" fill="#455A64"/>
<path d="M91.234 261.688L68.541 285.795L70.8823 288.007L93.5753 263.9L91.234 261.688Z" fill="#263238"/>
<path d="M92.9644 286.298H69.7246V289.522H92.9644V286.298Z" fill="#455A64"/>
<path d="M92.9644 261.176H69.7246V264.4H92.9644V261.176Z" fill="#455A64"/>
<path d="M70.8908 261.689L68.5488 263.9L91.2351 288.014L93.5771 285.802L70.8908 261.689Z" fill="#455A64"/>
<path d="M91.2418 286.801L68.5488 310.907L70.8901 313.119L93.5831 289.013L91.2418 286.801Z" fill="#263238"/>
<path d="M92.9644 311.423H69.7246V314.647H92.9644V311.423Z" fill="#455A64"/>
<path d="M92.9644 286.301H69.7246V289.525H92.9644V286.301Z" fill="#455A64"/>
<path d="M70.8927 286.814L68.5508 289.025L91.2371 313.139L93.5791 310.927L70.8927 286.814Z" fill="#455A64"/>
<path d="M91.2455 311.917L68.5625 336.033L70.9048 338.244L93.5878 314.128L91.2455 311.917Z" fill="#263238"/>
<path d="M92.9644 336.546H69.7246V339.77H92.9644V336.546Z" fill="#455A64"/>
<path d="M92.9644 311.424H69.7246V314.648H92.9644V311.424Z" fill="#455A64"/>
<path d="M70.8908 311.941L68.5488 314.152L91.2351 338.266L93.5771 336.054L70.8908 311.941Z" fill="#455A64"/>
<path d="M91.2455 337.039L68.5625 361.155L70.9048 363.366L93.5878 339.25L91.2455 337.039Z" fill="#263238"/>
<path d="M92.9644 361.668H69.7246V364.892H92.9644V361.668Z" fill="#455A64"/>
<path d="M92.9644 336.546H69.7246V339.77H92.9644V336.546Z" fill="#455A64"/>
<path d="M70.8947 337.059L68.5527 339.271L91.2391 363.384L93.581 361.172L70.8947 337.059Z" fill="#455A64"/>
<path d="M97.623 375.966V361.335H64.1017V375.966H97.623Z" fill="#455A64"/>
<path d="M72.4941 362.242L72.4941 86.6387H64.0926L64.0926 362.242H72.4941Z" fill="#455A64"/>
<path d="M97.6172 362.242L97.6172 86.6387H89.2156L89.2156 362.242H97.6172Z" fill="#455A64"/>
<path d="M318.427 84.6705L293.318 59.8768L81.3767 20.3133L16.9681 60.0684L15.2793 57.3123L80.7501 16.9082L294.879 56.8867L320.689 82.372L318.427 84.6705Z" fill="#455A64"/>
<path d="M106.932 63.3566L81.1218 27.4111L56.4162 63.3034L51.1055 59.6429L81.0049 16.2061L112.168 59.5897L106.932 63.3566Z" fill="#263238"/>
<path d="M269.666 62.7387L267.459 65.085L291.528 87.8131L293.735 85.4668L269.666 62.7387Z" fill="#263238"/>
<path d="M295.252 63.3564H292.033V86.6391H295.252V63.3564Z" fill="#455A64"/>
<path d="M270.173 63.3564H266.955V86.6391H270.173V63.3564Z" fill="#455A64"/>
<path d="M291.528 62.7314L267.463 85.4629L269.671 87.8088L293.736 65.0774L291.528 62.7314Z" fill="#455A64"/>
<path d="M244.59 62.7387L242.383 65.085L266.452 87.8131L268.659 85.4668L244.59 62.7387Z" fill="#263238"/>
<path d="M270.173 63.3564H266.955V86.6391H270.173V63.3564Z" fill="#455A64"/>
<path d="M245.095 63.3564H241.877V86.6391H245.095V63.3564Z" fill="#455A64"/>
<path d="M266.452 62.7382L242.387 85.4697L244.594 87.8157L268.66 65.0842L266.452 62.7382Z" fill="#455A64"/>
<path d="M219.514 62.7416L217.307 65.0879L241.376 87.8161L243.583 85.4698L219.514 62.7416Z" fill="#263238"/>
<path d="M245.097 63.3564H241.879V86.6391H245.097V63.3564Z" fill="#455A64"/>
<path d="M220.019 63.3564H216.801V86.6391H220.019V63.3564Z" fill="#455A64"/>
<path d="M241.376 62.7382L217.311 85.4697L219.518 87.8157L243.584 65.0842L241.376 62.7382Z" fill="#455A64"/>
<path d="M194.444 62.7358L192.236 65.082L216.305 87.8102L218.513 85.4639L194.444 62.7358Z" fill="#263238"/>
<path d="M220.019 63.3574H216.801V86.6401H220.019V63.3574Z" fill="#455A64"/>
<path d="M194.953 63.3574H191.734V86.6401H194.953V63.3574Z" fill="#455A64"/>
<path d="M216.3 62.7421L192.234 85.4736L194.442 87.8196L218.508 65.0881L216.3 62.7421Z" fill="#455A64"/>
<path d="M169.368 62.7358L167.16 65.082L191.229 87.8102L193.436 85.4639L169.368 62.7358Z" fill="#263238"/>
<path d="M194.953 63.3564H191.734V86.6391H194.953V63.3564Z" fill="#455A64"/>
<path d="M169.875 63.3564H166.656V86.6391H169.875V63.3564Z" fill="#455A64"/>
<path d="M191.213 62.7222L167.15 85.457L169.358 87.8027L193.421 65.0679L191.213 62.7222Z" fill="#455A64"/>
<path d="M144.289 62.7348L142.082 65.0811L166.151 87.8092L168.358 85.4629L144.289 62.7348Z" fill="#263238"/>
<path d="M169.875 63.3564H166.656V86.6391H169.875V63.3564Z" fill="#455A64"/>
<path d="M144.796 63.3564H141.578V86.6391H144.796V63.3564Z" fill="#455A64"/>
<path d="M166.15 62.7314L142.084 85.4629L144.292 87.8088L168.357 65.0774L166.15 62.7314Z" fill="#455A64"/>
<path d="M119.213 62.7387L117.006 65.085L141.075 87.8131L143.282 85.4668L119.213 62.7387Z" fill="#263238"/>
<path d="M144.798 63.3564H141.58V86.6391H144.798V63.3564Z" fill="#455A64"/>
<path d="M119.72 63.3564H116.502V86.6391H119.72V63.3564Z" fill="#455A64"/>
<path d="M141.075 62.7382L117.01 85.4697L119.218 87.8157L143.283 65.0842L141.075 62.7382Z" fill="#455A64"/>
<path d="M94.1371 62.7426L91.9297 65.0889L115.999 87.817L118.206 85.4708L94.1371 62.7426Z" fill="#263238"/>
<path d="M119.72 63.3574H116.502V86.6401H119.72V63.3574Z" fill="#455A64"/>
<path d="M94.6421 63.3574H91.4238V86.6401H94.6421V63.3574Z" fill="#455A64"/>
<path d="M115.997 62.7353L91.9316 85.4668L94.1394 87.8128L118.205 65.0813L115.997 62.7353Z" fill="#455A64"/>
<path d="M69.061 62.7416L66.8535 65.0879L90.9224 87.8161L93.1298 85.4698L69.061 62.7416Z" fill="#263238"/>
<path d="M94.6441 63.3564H91.4258V86.6391H94.6441V63.3564Z" fill="#455A64"/>
<path d="M69.566 63.3564H66.3477V86.6391H69.566V63.3564Z" fill="#455A64"/>
<path d="M90.921 62.7343L66.8555 85.4658L69.0632 87.8118L93.1288 65.0803L90.921 62.7343Z" fill="#455A64"/>
<path d="M43.9828 62.7426L41.7754 65.0889L65.8443 87.817L68.0517 85.4708L43.9828 62.7426Z" fill="#263238"/>
<path d="M69.566 63.3574H66.3477V86.6401H69.566V63.3574Z" fill="#455A64"/>
<path d="M44.4878 63.3574H41.2695V86.6401H44.4878V63.3574Z" fill="#455A64"/>
<path d="M65.8429 62.7353L41.7773 85.4668L43.9851 87.8128L68.0507 65.0813L65.8429 62.7353Z" fill="#455A64"/>
<path d="M18.9145 62.7357L16.707 65.082L40.7759 87.8102L42.9833 85.4639L18.9145 62.7357Z" fill="#263238"/>
<path d="M44.4878 63.3574H41.2695V86.6401H44.4878V63.3574Z" fill="#455A64"/>
<path d="M19.4214 63.3574H16.2031V86.6401H19.4214V63.3574Z" fill="#455A64"/>
<path d="M40.7648 62.7382L16.6992 85.4697L18.907 87.8157L42.9725 65.0842L40.7648 62.7382Z" fill="#455A64"/>
<path d="M15.2473 57.2598H0.664062V90.843H15.2473V57.2598Z" fill="#263238"/>
<path d="M29.8526 57.2598H15.248V90.843H29.8526V57.2598Z" fill="#455A64"/>
<path d="M49.1291 90.8545H21.1309V107.604H49.1291V90.8545Z" fill="#455A64"/>
<path d="M320.69 82.4346H15.248V90.8516H320.69V82.4346Z" fill="#455A64"/>
<path d="M303.26 65.6768H15.248V57.2598H295.05L303.26 65.6768Z" fill="#455A64"/>
<path d="M300.742 63.3564H297.523V86.6391H300.742V63.3564Z" fill="#455A64"/>
<path d="M183.098 182.379L203.278 179.144L223.459 176.015L263.863 169.918L263.97 169.907L264.076 169.929L331.32 187.401L364.916 196.233L398.491 205.172L364.789 196.744L331.108 188.21L263.81 170.95L264.023 170.961L223.576 176.813L203.353 179.644L183.098 182.379Z" fill="#263238"/>
<path d="M251.597 94.2822H248.379V141.954H251.597V94.2822Z" fill="#263238"/>
<path d="M278.863 95.3438H275.645V143.016H278.863V95.3438Z" fill="#263238"/>
<path d="M285.096 90.8545H242.6V97.718H285.096V90.8545Z" fill="#455A64"/>
<path d="M265.458 149.964L265.097 157.125L264.067 155.891C265.299 156.21 266.297 156.657 267.317 157.296C268.305 157.913 269.229 158.753 269.866 159.807C271.183 161.946 270.992 164.691 269.696 166.617C268.432 168.586 266.149 169.682 263.939 169.597C261.688 169.522 259.786 168.107 258.607 166.404C259.967 167.99 261.932 169.107 263.939 168.969C265.915 168.841 267.774 167.66 268.623 165.968C269.505 164.329 269.378 162.222 268.305 160.85C267.275 159.466 265.341 158.647 263.621 158.36L262.644 158.2L262.59 157.125L262.229 149.964H265.458Z" fill="#263238"/>
<path d="M285.097 135.28V146.964L263.844 152.019L242.611 146.964V135.28H285.097Z" fill="#455A64"/>
<path d="M252.35 142.134C252.35 143.496 251.246 144.602 249.886 144.602C248.526 144.602 247.422 143.496 247.422 142.134C247.422 140.772 248.526 139.665 249.886 139.665C251.246 139.665 252.35 140.772 252.35 142.134Z" fill="#263238"/>
<path d="M280.274 142.134C280.274 143.496 279.169 144.602 277.81 144.602C276.45 144.602 275.346 143.496 275.346 142.134C275.346 140.772 276.45 139.665 277.81 139.665C279.169 139.665 280.274 140.772 280.274 142.134Z" fill="#263238"/>
<path d="M176.458 231.072L393.189 254.416L398.475 205.164L181.743 181.82L176.458 231.072Z" fill="#0E82FD"/>
<path d="M294.965 233.107L394.339 243.812L347.52 211.687L294.965 233.107Z" fill="#0E82FD"/>
<path opacity="0.2" d="M294.965 233.107L394.339 243.812L347.52 211.687L294.965 233.107Z" fill="black"/>
<path d="M246.031 227.861L334.158 237.353L291.969 215.166L246.031 227.861Z" fill="#0E82FD"/>
<path opacity="0.1" d="M246.031 227.861L334.158 237.353L291.969 215.166L246.031 227.861Z" fill="black"/>
<path d="M394.351 243.813L177.619 220.469L176.48 231.081L393.212 254.425L394.351 243.813Z" fill="#0E82FD"/>
<path opacity="0.1" d="M394.351 243.813L177.619 220.469L176.48 231.081L393.212 254.425L394.351 243.813Z" fill="black"/>
<path opacity="0.6" d="M208.485 201.025C208.092 204.717 204.778 207.399 201.082 207.005C197.396 206.611 194.72 203.291 195.113 199.588C195.506 195.896 198.819 193.214 202.516 193.608C206.212 194.001 208.889 197.321 208.485 201.025Z" fill="white"/>
<path d="M86.5072 18.6123C86.5072 21.6237 84.0749 24.0605 81.069 24.0605C78.0632 24.0605 75.6309 21.6237 75.6309 18.6123C75.6309 15.6009 78.0632 13.1641 81.069 13.1641C84.0643 13.1641 86.5072 15.6009 86.5072 18.6123Z" fill="#A6A6A6"/>
<path d="M83.6064 18.6116C83.6064 20.0162 82.4699 21.1548 81.0678 21.1548C79.6658 21.1548 78.5293 20.0162 78.5293 18.6116C78.5293 17.207 79.6658 16.0684 81.0678 16.0684C82.4699 16.0684 83.6064 17.207 83.6064 18.6116Z" fill="#455A64"/>
<path d="M104.318 375.96H57.3926V387.069H104.318V375.96Z" fill="#263238"/>
<path d="M114.495 387.068H47.2188V408.861H114.495V387.068Z" fill="#455A64"/>
<path d="M108.142 110.275H57.9238V54.5898H90.7229C96.4692 54.5898 101.323 58.8569 102.077 64.5605L108.142 110.275Z" fill="#0E82FD"/>
<path d="M94.4827 93.3541H70.9349C70.6588 93.3541 70.4145 93.3222 70.1808 93.237C69.0868 92.9178 68.3008 91.8856 68.3008 90.6832V60.9414H85.0402C85.6032 60.9414 86.1661 60.9946 86.7184 61.101C88.0036 61.3245 89.2038 61.814 90.2341 62.5056C90.9776 63.0058 91.6362 63.6017 92.1885 64.2827C93.3037 65.6022 94.0579 67.2409 94.3022 69.0605L97.1168 90.332C97.3186 91.9388 96.0759 93.3541 94.4827 93.3541Z" fill="#263238"/>
<g opacity="0.4">
<path d="M91.945 77.8276C91.945 78.5087 91.6901 79.179 91.1697 79.7005L77.5423 93.3529H70.9358C70.6596 93.3529 70.4153 93.321 70.1816 93.2359L87.4415 75.9548C88.4718 74.9226 90.15 74.9226 91.1803 75.9548C91.6901 76.4656 91.945 77.1466 91.945 77.8276Z" fill="white"/>
<path d="M92.1787 64.2839L68.291 88.205V84.4806L90.2244 62.5068C90.9679 63.007 91.6264 63.6029 92.1787 64.2839Z" fill="white"/>
<path d="M86.7077 61.101L73.1441 74.6897C72.3687 75.4665 71.1154 75.4665 70.34 74.6897C69.9577 74.3066 69.7559 73.8065 69.7559 73.285C69.7559 72.7849 69.947 72.2848 70.34 71.9017L81.2802 60.9414H85.0295C85.6031 60.9414 86.166 60.9946 86.7077 61.101Z" fill="white"/>
</g>
<path d="M54.3775 342.215L53.3685 349.44L52.2745 357.219L42.3009 428.099H25.9863L35.9599 357.219L37.0539 349.44L38.0629 342.215H54.3775Z" fill="#0E82FD"/>
<path opacity="0.1" d="M52.0203 342.215C51.16 349.398 50.2359 356.559 49.3012 363.731L46.4228 385.215L43.4063 406.678L41.8449 417.405L40.2305 428.11L41.5582 417.341L42.9496 406.593L45.828 385.109L48.8445 363.646C49.8748 356.495 50.9157 349.344 52.0203 342.215Z" fill="black"/>
<path opacity="0.1" d="M53.3676 349.438L52.2736 357.217H35.959L37.053 349.438H53.3676Z" fill="black"/>
<path d="M134.92 342.215L135.929 349.44L137.023 357.219L147.007 428.099H163.322L153.338 357.219L152.244 349.44L151.234 342.215H134.92Z" fill="#0E82FD"/>
<path opacity="0.1" d="M137.33 342.215C138.19 349.398 139.114 356.559 140.049 363.731L142.928 385.215L145.944 406.678L147.505 417.405L149.12 428.11L147.792 417.341L146.401 406.593L143.522 385.109L140.506 363.646C139.476 356.495 138.435 349.344 137.33 342.215Z" fill="black"/>
<path opacity="0.1" d="M135.93 349.438H152.244L153.338 357.217H137.024L135.93 349.438Z" fill="black"/>
<path d="M53.7827 327.34H40.8457L42.4602 315.263H52.1788L53.7827 327.34Z" fill="#0E82FD"/>
<path opacity="0.1" d="M53.7827 327.34H40.8457L42.4602 315.263H52.1788L53.7827 327.34Z" fill="black"/>
<path d="M59.3686 306.632C59.3686 313.304 53.9728 318.71 47.3132 318.71C40.6535 318.71 35.2578 313.304 35.2578 306.632C35.2578 299.96 40.6535 294.555 47.3132 294.555C53.9728 294.555 59.3686 299.96 59.3686 306.632Z" fill="#0E82FD"/>
<path d="M56.4791 306.632C56.4791 311.708 52.3793 315.816 47.3128 315.816C42.257 315.816 38.1465 311.708 38.1465 306.632C38.1465 301.557 42.2464 297.449 47.3128 297.449C52.3793 297.449 56.4791 301.557 56.4791 306.632Z" fill="white"/>
<path d="M54.9821 306.102C54.8228 303.856 53.6863 301.792 51.9869 300.462C50.2874 299.132 48.0463 298.514 45.8264 298.844C43.6809 299.164 41.7265 300.44 40.5263 302.292C39.3154 304.144 38.9012 306.58 39.5597 308.911C40.0908 310.826 41.4291 312.486 43.1392 313.454C44.8492 314.433 46.8885 314.731 48.7473 314.316C50.6167 313.923 52.2949 312.88 53.4526 311.433C54.621 309.996 55.3114 308.187 55.3857 306.314C55.3857 306.229 55.3539 306.155 55.3114 306.144C55.2689 306.144 55.2264 306.208 55.2264 306.304C55.1945 307.059 55.0352 307.804 54.8015 308.517C54.5466 309.23 54.2067 309.89 53.7925 310.507C53.357 311.113 52.8578 311.667 52.2949 312.156C51.7213 312.635 51.084 313.05 50.3936 313.391C48.4499 314.327 46.1344 314.391 44.1376 313.54C42.1408 312.71 40.5369 310.975 39.8996 308.879C39.2092 306.655 39.5491 304.282 40.7069 302.452C41.854 300.621 43.7658 299.355 45.8689 299.046C48.7686 298.631 51.6895 299.696 53.4632 302.079C53.8881 302.664 54.228 303.314 54.4829 303.984C54.7272 304.665 54.8865 305.378 54.9609 306.112C54.9609 306.133 54.9821 306.144 54.9927 306.133C54.9821 306.144 54.9821 306.123 54.9821 306.102Z" fill="#0E82FD"/>
<path d="M53.9088 306.103C53.7494 304.177 52.7616 302.431 51.3171 301.293C49.862 300.165 47.9607 299.633 46.0489 299.888C44.2114 300.144 42.5119 301.229 41.4604 302.814C40.3982 304.4 40.0159 306.507 40.5682 308.55C41.0143 310.221 42.1827 311.678 43.6697 312.519C45.1567 313.37 46.9517 313.626 48.5662 313.253C50.1912 312.902 51.6464 311.987 52.6448 310.721C53.6538 309.465 54.2486 307.901 54.323 306.283C54.323 306.209 54.2911 306.145 54.2486 306.145C54.2062 306.145 54.1637 306.209 54.1637 306.283C54.0256 308.933 52.3474 311.253 49.9788 312.402C48.3112 313.221 46.2932 313.296 44.5725 312.562C42.8412 311.849 41.4498 310.338 40.9081 308.518C40.3239 306.592 40.6319 304.538 41.641 302.985C42.6394 301.42 44.2963 300.356 46.0807 300.112C48.5555 299.792 51.0197 300.665 52.5598 302.687C52.9316 303.187 53.2184 303.73 53.452 304.304C53.6645 304.889 53.8025 305.496 53.8875 306.124C53.8981 306.145 53.9088 306.145 53.9194 306.145C53.9088 306.145 53.9088 306.124 53.9088 306.103Z" fill="#0E82FD"/>
<path d="M52.8357 306.111C52.6764 304.493 51.8373 303.067 50.637 302.131C49.4262 301.205 47.8648 300.758 46.2716 300.95C44.7421 301.141 43.3082 302.025 42.4054 303.355C41.4919 304.674 41.1414 306.462 41.5982 308.207C41.9593 309.633 42.9471 310.899 44.2323 311.602C45.5069 312.325 47.0364 312.527 48.4065 312.208C49.7873 311.9 51.0088 311.112 51.8479 310.037C52.687 308.973 53.1968 307.654 53.2605 306.292C53.2605 306.228 53.2287 306.175 53.1862 306.175C53.1437 306.175 53.1012 306.228 53.1012 306.292C52.9738 308.526 51.5505 310.452 49.5749 311.442C48.1835 312.144 46.4734 312.229 45.0077 311.612C43.5419 311.006 42.3629 309.718 41.9168 308.186C41.4388 306.558 41.7256 304.823 42.586 303.536C43.4357 302.237 44.8377 301.376 46.3141 301.195C47.3444 301.088 48.3534 301.195 49.2669 301.546C50.1803 301.897 51.03 302.493 51.6673 303.312C51.9753 303.727 52.2196 304.174 52.4214 304.653C52.6126 305.132 52.7295 305.643 52.8144 306.164C52.8251 306.175 52.8357 306.185 52.8463 306.175C52.8357 306.143 52.8357 306.132 52.8357 306.111Z" fill="#0E82FD"/>
<path d="M51.7645 306.122C51.6052 304.824 50.9148 303.707 49.9588 302.962C48.9923 302.238 47.7708 301.876 46.4963 301.993C45.2748 302.121 44.0958 302.802 43.3417 303.877C42.5769 304.93 42.2583 306.399 42.6088 307.846C42.885 309.027 43.7028 310.091 44.7649 310.676C45.8271 311.272 47.0911 311.432 48.2275 311.145C49.3534 310.879 50.3625 310.219 51.0316 309.325C51.7114 308.442 52.115 307.378 52.1787 306.26C52.1787 306.207 52.1469 306.165 52.1044 306.165C52.0619 306.165 52.0194 306.207 52.0194 306.26C51.892 308.069 50.7448 309.602 49.1516 310.442C48.0364 311.028 46.6237 311.113 45.4341 310.613C44.2339 310.123 43.2567 309.059 42.9168 307.793C42.5451 306.463 42.8 305.047 43.5116 304.026C44.2233 302.994 45.3598 302.323 46.5281 302.217C47.346 302.153 48.132 302.249 48.8542 302.515C49.5765 302.781 50.2456 303.238 50.7661 303.887C51.021 304.207 51.2122 304.569 51.3821 304.941C51.5414 305.324 51.6477 305.718 51.722 306.143C51.7326 306.154 51.7433 306.165 51.7539 306.154C51.7645 306.154 51.7645 306.133 51.7645 306.122Z" fill="#0E82FD"/>
<path d="M148.165 327.34H135.229L136.843 315.263H146.562L148.165 327.34Z" fill="#0E82FD"/>
<path opacity="0.1" d="M148.165 327.34H135.229L136.843 315.263H146.562L148.165 327.34Z" fill="black"/>
<path d="M153.751 306.632C153.751 313.304 148.356 318.71 141.696 318.71C135.036 318.71 129.641 313.304 129.641 306.632C129.641 299.96 135.036 294.555 141.696 294.555C148.356 294.555 153.751 299.96 153.751 306.632Z" fill="#0E82FD"/>
<path d="M150.862 306.632C150.862 311.708 146.762 315.816 141.696 315.816C136.629 315.816 132.529 311.708 132.529 306.632C132.529 301.557 136.629 297.449 141.696 297.449C146.762 297.449 150.862 301.557 150.862 306.632Z" fill="white"/>
<path d="M149.365 306.102C149.206 303.856 148.069 301.792 146.37 300.462C144.67 299.132 142.429 298.514 140.209 298.844C138.064 299.164 136.109 300.44 134.909 302.292C133.698 304.144 133.284 306.58 133.943 308.911C134.474 310.826 135.812 312.486 137.522 313.454C139.232 314.433 141.282 314.731 143.13 314.316C144.999 313.923 146.678 312.88 147.835 311.433C149.004 309.996 149.694 308.187 149.769 306.314C149.769 306.229 149.737 306.155 149.694 306.144C149.652 306.144 149.609 306.208 149.609 306.304C149.577 307.059 149.418 307.804 149.184 308.517C148.929 309.23 148.59 309.89 148.175 310.507C147.74 311.113 147.241 311.667 146.678 312.156C146.104 312.635 145.467 313.05 144.776 313.391C142.833 314.327 140.517 314.391 138.52 313.54C136.524 312.71 134.92 310.975 134.282 308.879C133.592 306.655 133.932 304.282 135.09 302.452C136.237 300.621 138.149 299.355 140.252 299.046C143.151 298.631 146.072 299.696 147.846 302.079C148.271 302.664 148.611 303.314 148.866 303.984C149.11 304.665 149.269 305.378 149.344 306.112C149.354 306.133 149.365 306.144 149.376 306.133C149.365 306.144 149.365 306.123 149.365 306.102Z" fill="#0E82FD"/>
<path d="M148.292 306.103C148.132 304.177 147.144 302.431 145.7 301.293C144.245 300.165 142.344 299.633 140.432 299.888C138.594 300.144 136.895 301.229 135.843 302.814C134.781 304.4 134.399 306.507 134.951 308.55C135.397 310.221 136.565 311.678 138.052 312.519C139.539 313.37 141.335 313.626 142.949 313.253C144.574 312.902 146.029 311.987 147.028 310.721C148.037 309.465 148.631 307.901 148.706 306.283C148.706 306.209 148.674 306.145 148.631 306.145C148.589 306.145 148.546 306.209 148.546 306.283C148.408 308.933 146.73 311.253 144.362 312.402C142.694 313.221 140.676 313.296 138.955 312.562C137.224 311.849 135.833 310.338 135.291 308.518C134.707 306.592 135.015 304.538 136.024 302.985C137.022 301.42 138.679 300.356 140.464 300.112C142.938 299.792 145.403 300.665 146.943 302.687C147.314 303.187 147.601 303.73 147.835 304.304C148.047 304.889 148.185 305.496 148.27 306.124C148.281 306.145 148.292 306.145 148.302 306.145C148.292 306.145 148.292 306.124 148.292 306.103Z" fill="#0E82FD"/>
<path d="M147.219 306.111C147.06 304.493 146.221 303.067 145.021 302.131C143.81 301.205 142.249 300.758 140.655 300.95C139.126 301.141 137.692 302.025 136.778 303.355C135.865 304.674 135.514 306.462 135.971 308.207C136.332 309.633 137.32 310.899 138.605 311.602C139.88 312.325 141.409 312.527 142.78 312.208C144.16 311.9 145.382 311.112 146.221 310.037C147.06 308.973 147.57 307.654 147.634 306.292C147.634 306.228 147.602 306.175 147.559 306.175C147.517 306.175 147.474 306.228 147.474 306.292C147.347 308.526 145.924 310.452 143.948 311.442C142.557 312.144 140.846 312.229 139.381 311.612C137.915 311.006 136.736 309.718 136.29 308.186C135.812 306.558 136.099 304.823 136.959 303.536C137.809 302.237 139.211 301.376 140.687 301.195C141.717 301.088 142.726 301.195 143.64 301.546C144.553 301.897 145.403 302.493 146.04 303.312C146.348 303.727 146.593 304.174 146.794 304.653C146.986 305.132 147.103 305.643 147.187 306.164C147.198 306.175 147.209 306.185 147.219 306.175C147.219 306.143 147.219 306.132 147.219 306.111Z" fill="#0E82FD"/>
<path d="M146.147 306.122C145.988 304.824 145.298 303.707 144.342 302.962C143.375 302.238 142.154 301.876 140.879 301.993C139.658 302.121 138.479 302.802 137.724 303.877C136.96 304.93 136.641 306.399 136.992 307.846C137.268 309.027 138.086 310.091 139.148 310.676C140.21 311.272 141.474 311.432 142.61 311.145C143.736 310.879 144.745 310.219 145.414 309.325C146.094 308.442 146.498 307.378 146.562 306.26C146.562 306.207 146.53 306.165 146.487 306.165C146.445 306.165 146.402 306.207 146.402 306.26C146.275 308.069 145.128 309.602 143.534 310.442C142.419 311.028 141.007 311.113 139.817 310.613C138.617 310.123 137.64 309.059 137.3 307.793C136.928 306.463 137.183 305.047 137.894 304.026C138.606 302.994 139.743 302.323 140.911 302.217C141.729 302.153 142.515 302.249 143.237 302.515C143.959 302.781 144.628 303.238 145.149 303.887C145.404 304.207 145.595 304.569 145.765 304.941C145.924 305.324 146.03 305.718 146.105 306.143C146.115 306.154 146.126 306.165 146.137 306.154C146.147 306.154 146.147 306.133 146.147 306.122Z" fill="#0E82FD"/>
<path d="M175.918 321.18H13.3672V352.326H175.918V321.18Z" fill="white" stroke="#263238" stroke-width="0.5" stroke-miterlimit="10"/>
<path d="M46.7826 321.18L34.9822 352.337H13.9941L25.7946 321.18H46.7826Z" fill="#0E82FD"/>
<path d="M89.81 321.18L78.0201 352.337H57.0215L68.8113 321.18H89.81Z" fill="#0E82FD"/>
<path d="M132.837 321.18L121.037 352.337H100.049L111.849 321.18H132.837Z" fill="#0E82FD"/>
<path d="M175.875 321.18L164.075 352.337H143.076L154.877 321.18H175.875Z" fill="#0E82FD"/>
<path d="M172.637 390.411H16.6602V410.129H172.637V390.411Z" fill="white" stroke="#263238" stroke-width="0.5" stroke-miterlimit="10"/>
<path d="M48.7167 390.411L37.4048 410.118H17.2559L28.5784 390.411H48.7167Z" fill="#0E82FD"/>
<path d="M90.0124 390.411L78.6899 410.118H58.541L69.8635 390.411H90.0124Z" fill="#0E82FD"/>
<path d="M131.3 390.411L119.977 410.118H99.8281L111.151 390.411H131.3Z" fill="#0E82FD"/>
<path d="M172.585 390.411L161.262 410.118H141.113L152.436 390.411H172.585Z" fill="#0E82FD"/>
<path d="M119.261 342.631C122.505 329.014 114.116 315.342 100.524 312.092C86.9325 308.843 73.2853 317.248 70.0421 330.864C66.799 344.481 75.188 358.153 88.7796 361.403C102.371 364.652 116.018 356.247 119.261 342.631Z" fill="white" stroke="#263238" stroke-width="0.5" stroke-miterlimit="10"/>
<path d="M115.524 341.748C118.269 330.205 111.155 318.618 99.6333 315.868C88.1119 313.117 76.5463 320.245 73.801 331.788C71.0556 343.33 78.1701 354.917 89.6915 357.668C101.213 360.418 112.779 353.29 115.524 341.748Z" fill="#0E82FD"/>
<path d="M108.089 334.27H81.1953V339.26H108.089V334.27Z" fill="white"/>
<path d="M448.592 430.718L453.966 393.655L455.528 394.358L458.013 395.496L468.804 400.38L478.481 404.765L484.843 407.648L494.508 412.022L499.819 414.427C503.993 416.693 503.091 422.939 498.438 423.918L496.197 424.227H496.187L492.66 424.706L482.145 426.142L475.22 427.089L464.705 428.526L460.307 429.122L448.592 430.718Z" fill="#0E82FD"/>
<path opacity="0.1" d="M455.794 394.688C455.794 394.688 455.008 396.826 453.819 398.689C450.537 403.807 448.157 414.31 449.952 426.409C450.101 427.43 450.271 429.239 450.749 430.229L453.001 430.08C453.001 430.08 463.484 407.031 497.77 413.437L494.531 411.969L484.865 407.595L478.503 404.711L468.827 400.327L455.794 394.688Z" fill="black"/>
<path d="M482.166 426.131L484.853 407.626L494.519 412.01L492.671 424.694L482.166 426.131Z" fill="#EBEBEB"/>
<path d="M464.727 428.505L468.805 400.37L478.481 404.754L475.242 427.069L464.727 428.505Z" fill="#EBEBEB"/>
<path d="M354.231 429.792H318.225L318.681 428.207L319.414 425.674L322.558 414.693L325.383 404.85L327.242 398.369L330.068 388.526L331.618 383.121C333.201 378.822 339.266 378.822 340.838 383.121L341.443 385.217V385.228L342.388 388.526L345.203 398.369L347.062 404.85L349.887 414.693L351.066 418.811L354.231 429.792Z" fill="#0E82FD"/>
<path d="M355.516 439.156H308.197L315.739 420.428H363.057L355.516 439.156Z" fill="#0E82FD"/>
<path d="M345.214 398.358H327.242L330.068 388.525H342.388L345.214 398.358Z" fill="#EBEBEB"/>
<path d="M349.896 414.692H322.557L325.382 404.839H347.071L349.896 414.692Z" fill="#EBEBEB"/>
<path d="M317.725 427.282C320.646 428.655 323.736 429.496 326.848 430.07C329.971 430.624 333.136 430.847 336.302 430.794C337.884 430.687 339.467 430.677 341.039 430.432C341.825 430.326 342.621 430.283 343.397 430.134C344.172 429.985 344.958 429.836 345.744 429.708C346.137 429.634 346.53 429.581 346.923 429.496L348.081 429.208L350.407 428.644C351.947 428.229 353.466 427.708 355.038 427.303C353.583 427.995 352.117 428.687 350.619 429.293L348.325 430.081L347.167 430.464C346.774 430.581 346.381 430.666 345.988 430.762C345.202 430.964 344.406 431.156 343.62 431.336C342.823 431.517 342.016 431.603 341.209 431.741C339.605 432.028 337.969 432.06 336.344 432.188C333.083 432.22 329.801 431.922 326.636 431.134C323.471 430.326 320.369 429.155 317.725 427.282Z" fill="#263238"/>
<path opacity="0.1" d="M318.957 427.91C318.957 427.91 321.103 428.357 323.036 429.24C328.368 431.666 338.681 432.475 349.95 429.091C350.906 428.804 352.606 428.389 353.477 427.803L353.02 425.675C353.02 425.675 329.632 418.854 330.981 385.229L330.035 388.527L327.221 398.37L325.362 404.851L322.536 414.694L318.957 427.91Z" fill="black"/>
<path d="M438.799 430.643L445.862 381.938L463.94 392.494L456.866 441.209L438.799 430.643Z" fill="#0E82FD"/>
<path d="M456.802 412.661C455.793 421.663 452.533 428.686 449.537 428.346C446.531 428.005 444.917 420.439 445.937 411.437C446.946 402.435 450.206 395.412 453.202 395.752C456.197 396.093 457.811 403.658 456.802 412.661Z" fill="#263238"/>
<path d="M537.823 439.08C539.936 439.74 599.948 438.452 602.21 436.952C603.06 436.388 603.389 427.62 603.474 417.01C603.495 414.723 603.495 412.36 603.495 409.955C603.485 407.114 603.474 404.23 603.442 401.432C603.283 388.875 602.9 377.819 602.9 377.819L563.835 378.543L564.291 402.155L564.461 410.668L564.791 417.723C564.791 417.723 542.039 428.513 539.735 430.429C537.44 432.344 535.709 438.431 537.823 439.08Z" fill="#D3766A"/>
<path d="M537.823 439.081C539.936 439.74 599.948 438.453 602.21 436.952C603.06 436.389 603.389 427.62 603.474 417.011C603.495 414.723 603.495 412.361 603.495 409.956C603.485 407.115 603.474 404.231 603.442 401.433L564.291 402.156L564.461 410.669L564.791 417.724C564.791 417.724 542.039 428.514 539.735 430.43C537.44 432.345 535.709 438.432 537.823 439.081Z" fill="white"/>
<path d="M537.643 439.176C539.023 439.601 564.579 439.218 583.188 438.484C587.489 438.314 591.43 438.122 594.606 437.92C598.982 437.633 601.913 437.345 602.391 437.026C603.432 436.324 603.698 423.459 603.687 409.881L564.43 410.604L564.759 417.691C564.759 417.691 541.881 428.545 539.565 430.461C537.26 432.397 535.529 438.505 537.643 439.176Z" fill="#0E82FD"/>
<path d="M538.46 436.742C548.572 436.274 589.39 435.348 599.417 435.667C599.502 435.667 599.502 435.72 599.417 435.731C589.401 436.412 548.582 437.008 538.46 436.912C538.248 436.912 538.237 436.752 538.46 436.742Z" fill="#263238"/>
<path d="M563.272 415.49C567.234 414.66 572.12 415.171 575.221 417.949C575.338 418.055 575.189 418.225 575.062 418.183C571.11 417.023 567.425 416.31 563.304 415.991C563.017 415.98 562.996 415.554 563.272 415.49Z" fill="#263238"/>
<path d="M560.436 417.287C564.398 416.457 569.284 416.968 572.385 419.745C572.502 419.852 572.353 420.022 572.226 419.98C568.275 418.82 564.589 418.107 560.468 417.787C560.181 417.766 560.16 417.351 560.436 417.287Z" fill="#263238"/>
<path d="M557.6 419.088C561.562 418.258 566.448 418.769 569.549 421.546C569.666 421.653 569.517 421.823 569.39 421.78C565.439 420.62 561.753 419.907 557.632 419.588C557.345 419.567 557.324 419.152 557.6 419.088Z" fill="#263238"/>
<path d="M554.764 420.885C558.726 420.055 563.612 420.566 566.713 423.343C566.83 423.449 566.681 423.62 566.554 423.577C562.603 422.417 558.917 421.704 554.796 421.385C554.509 421.364 554.488 420.938 554.764 420.885Z" fill="#263238"/>
<path d="M557.632 412.074C560.489 414.202 564.175 415.022 567.488 416.171C567.828 416.288 568.094 415.958 568.104 415.66C568.168 415.649 568.221 415.596 568.2 415.511C567.042 412.202 564.61 408.711 561.87 406.509C560.181 405.147 557.249 404.242 555.731 406.434C554.286 408.499 555.964 410.829 557.632 412.074ZM556.548 408.882C555.752 404.519 560.489 406.722 561.7 407.775C562.475 408.456 563.187 409.233 563.856 410.01C565.269 411.638 566.426 413.436 567.669 415.192C566.076 414.532 564.44 414.011 562.826 413.404C560.903 412.681 556.984 411.287 556.548 408.882Z" fill="#263238"/>
<path d="M581.361 409.147C580.341 406.679 577.282 406.945 575.338 407.913C572.194 409.488 569.072 412.371 567.234 415.351C567.192 415.425 567.234 415.489 567.287 415.511C567.224 415.809 567.415 416.181 567.776 416.138C571.26 415.723 575.03 415.713 578.28 414.244C580.192 413.393 582.317 411.488 581.361 409.147ZM572.938 414.436C571.228 414.681 569.518 414.84 567.829 415.149C569.412 413.702 570.93 412.191 572.651 410.903C573.48 410.286 574.34 409.679 575.232 409.179C576.634 408.402 581.732 407.274 580.022 411.361C579.088 413.627 574.967 414.149 572.938 414.436Z" fill="#263238"/>
<path opacity="0.2" d="M568.359 438.963C573.415 438.835 578.524 438.665 583.187 438.484C587.489 438.324 591.429 438.133 594.605 437.931C598.981 437.643 601.913 437.356 602.38 437.037C603.293 436.43 603.623 426.481 603.665 414.903C594.764 420.873 577.26 432.855 568.359 438.963Z" fill="black"/>
<path d="M560.925 417.255L605.514 417.298C605.514 417.298 603.071 316.75 603.549 314.409C604.696 308.823 630.049 220.172 630.049 220.172L594.839 220.778L582.815 220.991C582.815 220.991 583.856 235.75 583.431 237.315C577.547 258.82 566.065 295.543 563.718 309.152C559.661 332.754 560.925 417.255 560.925 417.255Z" fill="#263238"/>
<path d="M562.369 409.795C569.326 409.614 593.957 408.88 603.23 409.571C603.304 409.571 603.304 409.699 603.23 409.71C600.054 410.231 569.326 410.082 562.369 409.986C562.242 409.976 562.231 409.795 562.369 409.795Z" fill="#37474F"/>
<path d="M600.044 312.184C601.372 306.746 611.303 272.886 614.34 262.192C617.378 251.508 620.225 240.761 622.848 229.96C623.177 228.588 623.517 227.225 623.878 225.863C623.91 225.746 624.07 225.8 624.048 225.917C623.05 231.354 621.722 236.749 620.448 242.123C619.173 247.507 617.814 252.87 616.38 258.212C613.501 268.949 610.368 279.611 606.958 290.189C605.259 295.456 602.455 306.289 600.957 311.63C599.47 316.962 601.903 404.527 601.743 405.942C601.701 406.347 601.117 406.347 601.106 405.942C600.936 395.62 598.727 317.557 600.044 312.184Z" fill="#37474F"/>
<path d="M594.84 220.769C594.84 220.769 603.454 314.857 603.549 314.399C604.665 308.983 628.499 225.621 629.997 220.418C630.05 220.247 630.061 220.162 630.061 220.162L594.84 220.769Z" fill="#37474F"/>
<path d="M584.058 444.242C586.172 444.902 646.183 443.614 648.446 442.114C649.295 441.561 649.625 432.782 649.71 422.172C649.731 419.885 649.731 417.522 649.731 415.117C649.72 412.276 649.71 409.393 649.678 406.594C649.518 394.038 649.136 382.981 649.136 382.981L610.07 383.705L610.527 407.318L610.697 415.83L611.026 422.885C611.026 422.885 588.275 433.675 585.97 435.591C583.676 437.496 581.955 443.582 584.058 444.242Z" fill="#D3766A"/>
<path d="M584.058 444.243C586.172 444.903 646.183 443.615 648.446 442.115C649.295 441.561 649.625 432.782 649.71 422.173C649.731 419.885 649.731 417.523 649.731 415.118C649.72 412.277 649.71 409.393 649.678 406.595L610.527 407.318L610.697 415.831L611.026 422.886C611.026 422.886 588.275 433.676 585.97 435.592C583.676 437.496 581.955 443.583 584.058 444.243Z" fill="white"/>
<path d="M583.877 444.325C585.258 444.751 610.813 444.368 629.422 443.633C633.724 443.463 637.664 443.272 640.84 443.069C645.216 442.782 648.148 442.495 648.626 442.176C649.666 441.473 649.932 428.608 649.921 415.03L610.664 415.754L610.994 422.841C610.994 422.841 588.115 433.695 585.8 435.61C583.495 437.557 581.763 443.665 583.877 444.325Z" fill="#0E82FD"/>
<path d="M584.694 441.888C594.806 441.42 635.624 440.505 645.651 440.813C645.736 440.813 645.736 440.866 645.651 440.877C635.635 441.558 594.817 442.154 584.694 442.058C584.482 442.058 584.482 441.899 584.694 441.888Z" fill="#263238"/>
<path d="M609.516 420.65C613.478 419.82 618.364 420.33 621.465 423.108C621.582 423.214 621.433 423.384 621.306 423.342C617.355 422.182 613.669 421.469 609.548 421.15C609.251 421.128 609.229 420.703 609.516 420.65Z" fill="#263238"/>
<path d="M606.682 422.437C610.644 421.607 615.53 422.118 618.631 424.895C618.748 425.001 618.599 425.171 618.472 425.129C614.521 423.969 610.835 423.256 606.714 422.937C606.417 422.926 606.395 422.501 606.682 422.437Z" fill="#263238"/>
<path d="M603.844 424.238C607.806 423.408 612.692 423.918 615.793 426.696C615.91 426.802 615.761 426.972 615.634 426.93C611.683 425.77 607.997 425.057 603.876 424.738C603.579 424.727 603.557 424.301 603.844 424.238Z" fill="#263238"/>
<path d="M601.008 426.034C604.97 425.204 609.856 425.715 612.957 428.492C613.074 428.599 612.926 428.769 612.798 428.727C608.847 427.567 605.161 426.854 601.04 426.535C600.743 426.513 600.721 426.098 601.008 426.034Z" fill="#263238"/>
<path d="M603.878 417.223C606.735 419.352 610.42 420.171 613.734 421.32C614.074 421.437 614.34 421.107 614.35 420.809C614.414 420.799 614.467 420.746 614.446 420.661C613.288 417.351 610.856 413.861 608.115 411.658C606.427 410.296 603.495 409.392 601.976 411.584C600.532 413.659 602.199 415.978 603.878 417.223ZM602.794 414.031C601.998 409.668 606.735 411.871 607.946 412.924C608.721 413.605 609.433 414.382 610.102 415.159C611.514 416.787 612.672 418.586 613.915 420.341C612.322 419.682 610.686 419.16 609.071 418.554C607.138 417.83 603.23 416.436 602.794 414.031Z" fill="#263238"/>
<path d="M627.595 414.306C626.575 411.838 623.516 412.104 621.573 413.072C618.429 414.647 615.306 417.531 613.469 420.51C613.426 420.585 613.469 420.648 613.522 420.67C613.458 420.968 613.649 421.34 614.01 421.298C617.494 420.883 621.265 420.872 624.515 419.404C626.427 418.542 628.551 416.637 627.595 414.306ZM619.172 419.595C617.462 419.84 615.752 419.999 614.053 420.308C615.635 418.861 617.154 417.35 618.875 416.062C619.703 415.445 620.564 414.838 621.456 414.338C622.858 413.562 627.956 412.434 626.246 416.52C625.322 418.776 621.212 419.297 619.172 419.595Z" fill="#263238"/>
<path d="M608.391 421.811L651.653 421.013C651.653 421.013 639.502 264.685 641.01 256.406C643.485 242.85 641.382 227.377 634.871 220.024L592.714 220.801C592.714 220.801 592.098 232.666 596.58 239.668C596.58 239.668 600.585 242.094 602.518 243.169L608.391 421.811Z" fill="#263238"/>
<path d="M609.58 414.117C616.144 413.819 614.253 413.819 620.817 413.595C624.025 413.489 645.13 412.797 648.146 413.223C648.21 413.234 648.221 413.34 648.146 413.361C645.162 413.936 624.046 414.255 620.828 414.298C614.264 414.394 616.144 414.298 609.58 414.308C609.463 414.308 609.463 414.117 609.58 414.117Z" fill="#37474F"/>
<path d="M593.914 237.815C598.109 239.667 602.103 242.104 605.895 244.626C606.044 244.721 605.916 244.955 605.757 244.86C601.71 242.71 597.568 240.635 593.638 238.273C593.34 238.103 593.595 237.677 593.914 237.815Z" fill="#37474F"/>
<path d="M599.277 237.113C599.543 237.921 599.745 238.762 599.893 239.603C600.01 240.252 600.191 240.965 600.053 241.614C600.021 241.741 599.851 241.741 599.787 241.646C599.394 241.06 599.277 240.305 599.097 239.634C598.884 238.868 598.651 238.092 598.459 237.315C598.332 236.793 599.107 236.612 599.277 237.113Z" fill="#37474F"/>
<path d="M599.575 233.036C599.447 232.334 599.32 231.632 599.182 230.929C599.033 230.206 598.842 229.482 598.757 228.748C598.746 228.631 598.555 228.674 598.576 228.791C598.704 229.493 598.725 230.227 598.799 230.94C598.874 231.653 598.948 232.366 599.033 233.079C599.192 234.409 599.447 235.739 599.734 237.048C599.044 236.899 598.343 236.718 597.78 236.282C597.174 235.803 596.909 234.994 596.707 234.271C596.484 233.473 596.293 232.653 596.059 231.855C595.804 230.972 595.496 230.089 595.39 229.163C595.379 229.046 595.199 229.089 595.209 229.206C595.475 231.121 595.74 233.026 596.388 234.877C596.643 235.601 596.824 236.335 597.482 236.739C598.194 237.165 599.044 237.293 599.851 237.399C599.947 237.452 600.085 237.41 600.074 237.282C599.968 235.856 599.83 234.42 599.575 233.036Z" fill="#37474F"/>
<path d="M634.158 255.992C634.403 252.884 634.849 249.788 635.136 246.681C635.698 240.434 635.114 234.209 633.67 228.112C633.638 227.995 633.819 227.952 633.84 228.069C634.966 233.454 635.964 238.827 635.794 244.361C635.624 249.841 634.764 255.257 634.774 260.737C634.785 266.292 635.327 271.836 635.784 277.38C636.24 282.945 636.708 288.521 637.164 294.087C639.012 316.465 640.754 338.853 642.528 361.242C643.027 367.489 643.495 373.746 643.973 379.992C644.461 386.355 645.194 402.04 645.545 408.414C645.577 408.967 644.759 408.936 644.706 408.414C643.548 397.188 642.613 376.587 641.689 365.339C640.776 354.209 639.915 343.067 639.034 331.926C638.152 320.796 637.27 309.654 636.41 298.513C635.975 292.948 635.56 287.372 635.136 281.807C634.711 276.263 634.201 270.708 634.02 265.153C633.914 262.089 633.925 259.035 634.158 255.992Z" fill="#37474F"/>
<path d="M618.715 228.005C618.747 227.931 618.832 227.909 618.885 227.984C619.246 228.58 619.204 229.569 619.321 230.25C619.469 231.08 619.661 231.9 619.937 232.698C620.51 234.315 621.254 235.752 622.55 236.912C625.248 239.349 628.816 240.2 632.258 240.977C632.385 241.009 632.343 241.179 632.226 241.189C630.208 241.37 628.158 240.977 626.235 240.359C624.546 239.817 622.9 239.061 621.572 237.859C620.255 236.667 619.416 235.113 619.002 233.39C618.79 232.506 618.715 231.57 618.662 230.665C618.641 230.229 618.63 229.782 618.62 229.346C618.62 228.91 618.545 228.399 618.715 228.005Z" fill="#37474F"/>
<path d="M602.157 163.137C584.536 176.236 555.859 177.417 552.661 175.938C545.896 172.82 536.06 143.547 533.691 132.874C533.001 129.777 555.296 130.543 557.537 133.087C559.576 135.396 564.483 155.624 566.533 155.912C567.627 156.071 584.876 156.359 597.261 155.06C612.035 153.528 607.373 159.264 602.157 163.137Z" fill="#D3766A"/>
<path d="M580.447 154.388L583.092 175.053C583.092 175.053 598.78 168.903 605.61 162.593C612.439 156.283 608.541 153.973 601.722 153.622C594.903 153.261 580.447 154.388 580.447 154.388Z" fill="#EBEBEB"/>
<path d="M583.826 155.028C583.804 154.889 583.889 154.836 583.921 154.974C585.153 161.678 586.12 169.468 586.152 172.319C586.152 172.362 586.088 172.362 586.077 172.319C585.344 169.531 584.049 156.517 583.826 155.028Z" fill="#263238"/>
<path d="M643.348 233.667C643.209 233.837 580.798 235.167 580.214 234.529C579.406 233.635 589.465 170.938 599.364 157.253C601.839 153.827 610.687 151.475 614.383 154.934C625.089 164.958 627.341 173.396 630.134 180.291C632.206 185.399 634.723 194.114 636.985 203.053C640.735 217.769 643.847 233.06 643.348 233.667Z" fill="#EBEBEB"/>
<path d="M615.435 155.084C615.435 155.084 606.247 176.1 604.728 181.453C602.657 188.795 599.641 237.19 599.641 237.19L644.293 234.573C644.293 234.573 635.764 186.177 626.077 169.013C618.462 155.499 615.435 155.084 615.435 155.084Z" fill="#0E82FD"/>
<path d="M600.958 156.094C600.958 156.094 595.775 175.269 594.755 178.142C593.725 181.015 584.707 237.221 584.707 237.221L579.205 235.167C579.205 235.167 585.397 196.264 590.857 176.45C596.316 156.658 600.958 156.094 600.958 156.094Z" fill="#0E82FD"/>
<path d="M600.947 218.259L640.905 218.174C640.576 216.674 640.215 215.099 639.843 213.471L601.308 213.556C601.181 215.152 601.064 216.727 600.947 218.259Z" fill="#EBEBEB"/>
<path d="M582.062 218.302L587.777 218.291C588.021 216.759 588.287 215.184 588.552 213.588L582.912 213.599C582.615 215.205 582.328 216.78 582.062 218.302Z" fill="#EBEBEB"/>
<path d="M600.352 226.518L642.668 226.433C642.37 225.018 642.041 223.443 641.68 221.74L600.691 221.825C600.575 223.485 600.458 225.06 600.352 226.518Z" fill="#EBEBEB"/>
<path d="M580.617 226.558L586.416 226.547C586.65 225.079 586.905 223.504 587.171 221.854L581.414 221.865C581.138 223.557 580.861 225.132 580.617 226.558Z" fill="#EBEBEB"/>
<path d="M622.318 168.705C624.686 186.23 621.34 210.63 617.357 213.472C605.992 221.58 586.438 225.89 578.122 226.847C573.268 227.411 571.271 203.426 575.551 202.703C582.306 201.575 598.472 198.127 600.767 197.106C603.061 196.073 607.501 180.08 611.675 168.481C616.242 155.861 621.17 160.213 622.318 168.705Z" fill="#D3766A"/>
<path d="M580.915 203.532C580.915 203.532 574.903 199.595 571.069 194.551C567.84 190.316 563.527 183.655 561.191 185.304C556.39 188.699 567.149 205.309 567.149 205.309C567.149 205.309 573.066 211.875 578.132 208.938C581.297 207.076 580.915 203.532 580.915 203.532Z" fill="#D3766A"/>
<path d="M547.67 204.117C546.852 206.575 549.019 208.15 549.019 208.15C549.019 208.15 547.383 209.416 547.117 211.395C546.809 213.651 550.198 215.13 550.198 215.13C550.198 215.13 548.817 216.758 548.732 218.865C548.647 221.057 551.865 223.036 551.865 223.036C551.865 223.036 551.409 225.26 552.641 227.133C554.754 230.336 560.607 230.187 564.324 230.123C568.042 230.059 578.546 226.41 580.618 225.909L580.448 201.978C580.448 201.978 563.687 197.487 559.322 198.179C555.646 198.775 548.594 201.361 547.67 204.117Z" fill="#D3766A"/>
<path d="M549.178 207.767C552.938 206.203 556.953 205.851 560.947 205.255C561.032 205.245 561.053 205.383 560.968 205.394C556.996 205.936 553.183 207.256 549.231 207.948C549.125 207.98 549.083 207.809 549.178 207.767Z" fill="#263238"/>
<path d="M550.272 214.821C551.132 214.492 552.099 214.449 553.012 214.364C553.989 214.268 554.966 214.194 555.954 214.13C557.919 214.002 559.884 213.928 561.86 213.906C561.945 213.906 561.966 214.034 561.881 214.045C559.927 214.172 557.962 214.332 556.018 214.534C555.041 214.64 554.064 214.758 553.086 214.875C552.184 214.981 551.228 215.183 550.314 215.087C550.176 215.077 550.144 214.864 550.272 214.821Z" fill="#263238"/>
<path d="M551.94 223.037C552.673 222.718 553.639 222.793 554.425 222.761C555.318 222.718 556.22 222.676 557.113 222.633C558.908 222.537 560.692 222.441 562.487 222.282C562.572 222.271 562.593 222.41 562.508 222.42C560.692 222.59 558.876 222.782 557.059 222.942C556.167 223.016 555.275 223.091 554.383 223.154C553.629 223.208 552.683 223.367 551.94 223.133C551.908 223.112 551.908 223.048 551.94 223.037Z" fill="#263238"/>
<path d="M605.121 185.251L625.238 190.539C625.238 190.539 625.419 173.663 622.137 164.948C618.855 156.243 615.254 158.999 612.376 165.203C609.497 171.396 605.121 185.251 605.121 185.251Z" fill="#EBEBEB"/>
<path d="M606.98 182.356C606.842 182.325 606.831 182.218 606.958 182.25C613.629 183.612 621.191 185.634 623.847 186.677C623.889 186.687 623.868 186.751 623.825 186.751C620.968 186.368 608.435 182.697 606.98 182.356Z" fill="#263238"/>
<path d="M646.056 121.838C655.573 122.179 663.614 127.967 667.289 136.097L647.426 135.384L643.199 146.068L646.651 157.028L666.524 157.741C662.265 165.594 653.831 170.776 644.314 170.436C630.921 169.957 620.448 158.688 620.926 145.259C621.404 131.862 632.663 121.359 646.056 121.838Z" fill="#455A64"/>
<path d="M504.865 165.447C495.348 165.106 487.308 159.317 483.633 151.188L503.495 151.901L507.722 141.217L504.27 130.257L484.398 129.544C488.657 121.691 497.09 116.508 506.607 116.849C520.001 117.328 530.474 128.597 529.996 142.026C529.518 155.433 518.259 165.936 504.865 165.447Z" fill="#455A64"/>
<path d="M519.647 130.781L518.871 152.434L636.879 156.68L637.656 135.028L519.647 130.781Z" fill="#455A64"/>
<path d="M554.125 138.388L553.805 147.311L602.401 149.059L602.721 140.137L554.125 138.388Z" fill="#37474F"/>
<path d="M603.284 163.626C605.875 164.126 612.004 160.061 614.723 156.263C614.904 155.996 614.84 153.006 614.925 149.367C614.988 147.154 615.105 144.706 615.381 142.472L600.979 144.164C600.979 144.164 601.786 149.016 601.287 152.911C601.244 153.24 601.17 153.538 601.074 153.815C601.064 153.858 601.042 153.911 601.032 153.964C600.543 155.667 599.237 162.839 603.284 163.626Z" fill="#D3766A"/>
<path d="M601.075 153.803C601.064 153.846 601.054 153.899 601.032 153.952C601.468 154.059 601.946 154.155 602.466 154.208C610.592 155.016 613.831 145.269 614.564 142.566L600.969 144.152C600.969 144.152 601.776 149.004 601.277 152.899C601.234 153.229 601.16 153.527 601.075 153.803Z" fill="#263238"/>
<path d="M617.942 123.552C619.461 128.564 616.816 143.014 613.269 146.239C608.117 150.91 599.684 151.357 595.722 145.142C591.877 139.13 595.658 120.338 599.631 117.412C605.472 113.113 615.69 116.156 617.942 123.552Z" fill="#D3766A"/>
<path d="M605.908 132.458C605.918 132.426 605.971 132.521 605.961 132.564C605.716 133.522 605.589 134.66 606.396 135.182C606.417 135.192 606.407 135.246 606.375 135.235C605.345 134.841 605.515 133.33 605.908 132.458Z" fill="#263238"/>
<path d="M606.99 131.639C608.573 131.873 607.999 135.012 606.534 134.8C605.089 134.597 605.663 131.448 606.99 131.639Z" fill="#263238"/>
<path d="M599.832 131.269C599.832 131.226 599.747 131.3 599.736 131.343C599.588 132.322 599.258 133.418 598.313 133.578C598.281 133.578 598.281 133.631 598.313 133.631C599.428 133.684 599.853 132.216 599.832 131.269Z" fill="#263238"/>
<path d="M599.153 130.086C597.612 129.682 596.911 132.799 598.345 133.172C599.747 133.544 600.448 130.426 599.153 130.086Z" fill="#263238"/>
<path d="M608.489 130.425C608.085 130.245 607.735 130 607.353 129.776C606.917 129.521 606.545 129.361 606.322 128.893C606.195 128.638 606.343 128.255 606.577 128.106C607.129 127.776 607.735 127.957 608.266 128.244C608.85 128.553 609.211 128.946 609.466 129.542C609.71 130.127 609.031 130.681 608.489 130.425Z" fill="#263238"/>
<path d="M598.282 128.66C598.729 128.671 599.143 128.607 599.589 128.564C600.088 128.522 600.492 128.543 600.906 128.213C601.129 128.032 601.171 127.628 601.012 127.394C600.662 126.862 600.035 126.755 599.429 126.787C598.771 126.819 598.272 127.011 597.783 127.447C597.316 127.862 597.698 128.65 598.282 128.66Z" fill="#263238"/>
<path d="M604.314 141.644C604.038 141.824 603.751 142.101 603.39 142.069C603.05 142.037 602.678 141.814 602.391 141.633C602.359 141.612 602.327 141.644 602.338 141.675C602.519 142.09 603.007 142.431 603.475 142.431C603.931 142.431 604.218 142.09 604.399 141.707C604.43 141.644 604.356 141.612 604.314 141.644Z" fill="#263238"/>
<path d="M603.825 138.536C603.124 139.281 602.243 139.6 601.35 139.611C600.947 139.621 600.543 139.557 600.15 139.451C600.076 139.43 599.991 139.408 599.927 139.387C599.853 139.366 599.8 139.345 599.715 139.313C599.609 139.27 599.555 139.174 599.555 139.057V139.047C599.566 139.015 599.566 138.983 599.587 138.951C599.587 138.951 599.587 138.951 599.587 138.94L599.609 138.855C599.725 138.1 600.002 136.972 600.002 136.972C599.704 137.057 598.196 137.429 598.291 137.046C599.077 133.843 599.948 130.268 601.404 127.246C601.446 127.139 601.605 127.203 601.574 127.299C600.936 130.417 599.768 133.396 599.078 136.514C599.555 136.429 600.341 136.248 600.724 136.322C600.819 136.376 600.14 138.493 600.118 138.834C600.118 138.834 600.118 138.844 600.118 138.866C601.35 139.259 602.359 139.047 603.74 138.429C603.836 138.387 603.9 138.472 603.825 138.536Z" fill="#263238"/>
<path d="M600.66 139.142C600.66 139.142 601.159 140.164 602.009 140.653C602.317 140.834 602.678 140.951 603.071 140.92C603.889 140.856 604.038 140.143 604.006 139.515C603.985 138.993 603.825 138.515 603.825 138.515C603.825 138.515 602.498 139.366 600.66 139.142Z" fill="#263238"/>
<path d="M602.01 140.655C602.318 140.836 602.679 140.953 603.072 140.921C603.89 140.857 604.038 140.144 604.007 139.516C603.157 139.442 602.233 139.857 602.01 140.655Z" fill="#FF9BBC"/>
<path d="M597.219 121.094C597.431 120.69 598.015 119.668 598.578 119.711C599.29 119.753 599.662 120.966 600.957 121.456C602.784 122.158 606.268 120.392 608.796 121.328C611.26 122.243 612.641 124.872 612.726 129.543C612.811 134.215 616.114 138.258 617.41 135.321C617.453 135.215 617.527 135.023 617.654 134.747C618.44 130.352 618.653 125.914 617.931 123.563C615.689 116.167 605.461 113.113 599.609 117.434C598.78 118.04 597.962 119.36 597.219 121.094Z" fill="#263238"/>
<path d="M614.851 135.343C614.851 135.343 618.207 130.735 620.3 131.949C622.392 133.162 619.801 139.887 617.294 140.759C614.787 141.632 613.938 139.323 613.938 139.323L614.851 135.343Z" fill="#D3766A"/>
<path d="M619.514 133.853C619.557 133.853 619.557 133.906 619.525 133.916C617.772 134.587 616.817 136.194 616.137 137.854C616.668 137.215 617.379 136.875 618.229 137.513C618.272 137.545 618.229 137.619 618.176 137.609C617.464 137.439 616.944 137.556 616.455 138.12C616.105 138.513 615.861 139.024 615.606 139.492C615.521 139.652 615.245 139.556 615.308 139.375C615.308 139.365 615.319 139.343 615.319 139.333C615.33 137.109 617.125 134.023 619.514 133.853Z" fill="#263238"/>
<path d="M595.127 123.053C595.127 123.053 599.407 109.145 611.824 112.869C624.23 116.593 620.172 130.576 620.172 130.576L595.127 123.053Z" fill="#0E82FD"/>
<path d="M621.365 129.847L594.467 121.764L593.875 123.741L620.773 131.824L621.365 129.847Z" fill="#0E82FD"/>
<path d="M607.734 125.766L602.137 124.074L607.543 110.805L613.151 112.497L607.734 125.766Z" fill="#0E82FD"/>
<path opacity="0.1" d="M607.734 125.766L602.137 124.074L607.543 110.805L613.151 112.497L607.734 125.766Z" fill="black"/>
<path d="M532.714 146.155C535.433 147.985 536.028 143.729 536.028 143.729C536.028 143.729 536.633 150.071 540.17 150.869C543.58 151.635 544.121 146.463 544.164 146.091C544.196 146.421 544.907 152.231 548.54 152.678C552.311 153.135 551.971 147.847 551.95 147.506C552.077 147.815 553.904 151.826 556.74 151.539C561.615 151.039 557.388 139.121 559.034 135.514L566.235 133.864C564.886 133.407 563.495 133.109 561.424 131.023C559.491 129.076 558.216 127.756 556.58 127.214C553.893 126.33 552.47 128.437 552.47 128.437C552.47 128.437 551.546 125.075 548.699 124.638C547.234 124.415 545.577 126.564 545.577 126.564C545.577 126.564 544.727 123.904 542.167 123.67C540.128 123.479 538.779 125.66 538.779 125.66C538.779 125.66 536.782 123.489 534.636 123.968C530.324 124.958 526.893 142.217 532.714 146.155Z" fill="#D3766A"/>
<path d="M560.627 134.898L566.086 133.897C566.278 133.812 566.479 133.727 566.66 133.642C573.043 130.535 575.072 121.66 570.048 122.469C566.224 123.086 563.59 129.12 559.586 129.173V129.183L560.627 134.898Z" fill="#D3766A"/>
<path d="M538.535 125.992C538.556 125.939 538.471 125.907 538.45 125.96C535.943 131.366 534.828 138.069 535.965 143.954C536.007 144.146 536.336 144.167 536.326 143.954C536.326 137.665 536.814 132.079 538.535 125.992Z" fill="#263238"/>
<path d="M545.577 126.483C545.598 126.419 545.492 126.387 545.46 126.451C542.901 132.037 541.86 139.624 543.973 146.254C544.048 146.477 544.334 146.616 544.271 146.35C543.198 141.838 543.995 131.952 545.577 126.483Z" fill="#263238"/>
<path d="M552.258 147.933C550.485 141.496 550.941 135.132 552.354 128.673C552.375 128.588 552.248 128.567 552.216 128.641C550.665 131.61 550.198 135.824 550.102 139.144C550.017 142.315 550.57 145.188 552.025 148.008C552.088 148.104 552.301 148.072 552.258 147.933Z" fill="#263238"/>
</g>
<defs>
<clipPath id="clip0_39_16459">
<rect width="676.673" height="450" fill="white" transform="translate(0.664062)"/>
</clipPath>
</defs>
</svg>
