<svg width="510" height="450" viewBox="0 0 510 450" fill="none" xmlns="http://www.w3.org/2000/svg">
<g clip-path="url(#clip0_39_15727)">
<path d="M509.807 390.25H0.191406V390.505H509.807V390.25Z" fill="#EBEBEB"/>
<path d="M241.763 344.737H44.9506C41.7431 344.737 39.1328 342.123 39.1328 338.911V61.9053C39.1328 58.6937 41.7431 56.0801 44.9506 56.0801H241.763C244.969 56.0801 247.58 58.6937 247.58 61.9053V338.911C247.58 342.123 244.969 344.737 241.763 344.737ZM44.9506 56.3362C41.8827 56.3362 39.3876 58.8345 39.3876 61.9063V338.912C39.3876 341.984 41.8827 344.482 44.9506 344.482H241.763C244.83 344.482 247.325 341.984 247.325 338.912V61.9053C247.325 58.8345 244.83 56.3352 241.763 56.3352L44.9506 56.3362Z" fill="#EBEBEB"/>
<path d="M462.218 344.737H265.407C262.199 344.737 259.59 342.123 259.59 338.911V61.9053C259.59 58.6937 262.2 56.0801 265.407 56.0801H462.218C465.427 56.0801 468.036 58.6937 468.036 61.9053V338.911C468.037 342.123 465.427 344.737 462.218 344.737ZM265.407 56.3362C262.34 56.3362 259.845 58.8345 259.845 61.9063V338.912C259.845 341.984 262.34 344.482 265.407 344.482H462.218C465.286 344.482 467.781 341.984 467.781 338.912V61.9053C467.781 58.8345 465.286 56.3352 462.218 56.3352L265.407 56.3362Z" fill="#EBEBEB"/>
<path d="M458.745 406.677H432.248V406.932H458.745V406.677Z" fill="#EBEBEB"/>
<path d="M363.067 409.447H317.174V409.702H363.067V409.447Z" fill="#EBEBEB"/>
<path d="M431.229 397.2H369.268V397.455H431.229V397.2Z" fill="#EBEBEB"/>
<path d="M73.2651 398.913H53.6602V399.168H73.2651V398.913Z" fill="#EBEBEB"/>
<path d="M138.695 398.913H82.3398V399.168H138.695V398.913Z" fill="#EBEBEB"/>
<path d="M249.022 403.225H173.123V403.48H249.022V403.225Z" fill="#EBEBEB"/>
<path d="M186 156.084H82.3379V390.248H186V156.084Z" fill="#F5F5F5"/>
<path d="M176.267 164.306H92.0664V382.028H176.267V164.306Z" fill="#E6E6E6"/>
<path d="M170.477 174.513H97.8594V179.492H170.477V174.513Z" fill="#FAFAFA"/>
<path d="M170.477 185.826H97.8594V190.805H170.477V185.826Z" fill="#FAFAFA"/>
<path d="M170.477 197.14H97.8594V202.119H170.477V197.14Z" fill="#FAFAFA"/>
<path d="M170.477 208.452H97.8594V213.431H170.477V208.452Z" fill="#FAFAFA"/>
<path d="M170.477 219.769H97.8594V224.748H170.477V219.769Z" fill="#FAFAFA"/>
<path d="M170.477 231.082H97.8594V236.061H170.477V231.082Z" fill="#FAFAFA"/>
<path d="M170.477 242.396H97.8594V247.375H170.477V242.396Z" fill="#FAFAFA"/>
<path d="M170.477 253.708H97.8594V258.687H170.477V253.708Z" fill="#FAFAFA"/>
<path d="M170.477 265.021H97.8594V270.001H170.477V265.021Z" fill="#FAFAFA"/>
<path d="M170.477 276.335H97.8594V281.314H170.477V276.335Z" fill="#FAFAFA"/>
<path d="M170.477 287.648H97.8594V292.628H170.477V287.648Z" fill="#FAFAFA"/>
<path d="M170.477 298.964H97.8594V303.943H170.477V298.964Z" fill="#FAFAFA"/>
<path d="M170.477 310.277H97.8594V315.257H170.477V310.277Z" fill="#FAFAFA"/>
<path d="M170.477 321.591H97.8594V326.57H170.477V321.591Z" fill="#FAFAFA"/>
<path d="M170.477 332.904H97.8594V337.883H170.477V332.904Z" fill="#FAFAFA"/>
<path d="M170.477 344.218H97.8594V349.197H170.477V344.218Z" fill="#FAFAFA"/>
<path d="M170.477 355.531H97.8594V360.51H170.477V355.531Z" fill="#FAFAFA"/>
<path d="M170.477 366.844H97.8594V371.823H170.477V366.844Z" fill="#FAFAFA"/>
<path d="M53.6568 390.25H82.3359L82.3359 156.086H53.6568L53.6568 390.25Z" fill="#E6E6E6"/>
<path d="M171.759 152.059H90.4023V156.086H171.759V152.059Z" fill="#F0F0F0"/>
<path d="M67.8966 156.087H90.4043V152.06H67.8966V156.087Z" fill="#E0E0E0"/>
<path d="M77.1906 173.321C78.9063 173.321 80.2972 169.919 80.2972 165.724C80.2972 161.528 78.9063 158.127 77.1906 158.127C75.4749 158.127 74.084 161.528 74.084 165.724C74.084 169.919 75.4749 173.321 77.1906 173.321Z" fill="#F5F5F5"/>
<path d="M54.6777 165.724C54.6777 169.919 55.6185 173.321 56.7794 173.321C57.9403 173.321 58.881 169.919 58.881 165.724C58.881 161.528 57.9403 158.127 56.7794 158.127C55.6185 158.127 54.6777 161.528 54.6777 165.724Z" fill="#F5F5F5"/>
<path d="M77.1906 388.208C78.9063 388.208 80.2972 384.807 80.2972 380.612C80.2972 376.416 78.9063 373.015 77.1906 373.015C75.4749 373.015 74.084 376.416 74.084 380.612C74.084 384.807 75.4749 388.208 77.1906 388.208Z" fill="#F5F5F5"/>
<path d="M54.6777 380.612C54.6777 384.807 55.6185 388.208 56.7794 388.208C57.9403 388.208 58.881 384.807 58.881 380.612C58.881 376.416 57.9403 373.015 56.7794 373.015C55.6185 373.015 54.6777 376.416 54.6777 380.612Z" fill="#F5F5F5"/>
<path d="M378.995 208.316H298.455V390.251H378.995V208.316Z" fill="#F5F5F5"/>
<path d="M371.436 214.704H306.016V383.864H371.436V214.704Z" fill="#E6E6E6"/>
<path d="M366.936 222.633H310.516V226.502H366.936V222.633Z" fill="#FAFAFA"/>
<path d="M366.936 231.422H310.516V235.291H366.936V231.422Z" fill="#FAFAFA"/>
<path d="M366.936 240.214H310.516V244.083H366.936V240.214Z" fill="#FAFAFA"/>
<path d="M366.936 249.003H310.516V252.872H366.936V249.003Z" fill="#FAFAFA"/>
<path d="M366.936 257.794H310.516V261.663H366.936V257.794Z" fill="#FAFAFA"/>
<path d="M366.936 266.583H310.516V270.452H366.936V266.583Z" fill="#FAFAFA"/>
<path d="M366.936 275.375H310.516V279.244H366.936V275.375Z" fill="#FAFAFA"/>
<path d="M366.936 284.164H310.516V288.033H366.936V284.164Z" fill="#FAFAFA"/>
<path d="M366.936 292.953H310.516V296.822H366.936V292.953Z" fill="#FAFAFA"/>
<path d="M366.936 301.745H310.516V305.614H366.936V301.745Z" fill="#FAFAFA"/>
<path d="M366.936 310.534H310.516V314.403H366.936V310.534Z" fill="#FAFAFA"/>
<path d="M366.936 319.325H310.516V323.194H366.936V319.325Z" fill="#FAFAFA"/>
<path d="M366.936 328.114H310.516V331.983H366.936V328.114Z" fill="#FAFAFA"/>
<path d="M366.936 336.906H310.516V340.775H366.936V336.906Z" fill="#FAFAFA"/>
<path d="M366.936 345.695H310.516V349.564H366.936V345.695Z" fill="#FAFAFA"/>
<path d="M366.936 354.487H310.516V358.356H366.936V354.487Z" fill="#FAFAFA"/>
<path d="M366.936 363.276H310.516V367.145H366.936V363.276Z" fill="#FAFAFA"/>
<path d="M366.936 372.065H310.516V375.934H366.936V372.065Z" fill="#FAFAFA"/>
<path d="M276.173 390.253H298.455V208.318H276.173V390.253Z" fill="#E6E6E6"/>
<path d="M367.933 205.188H304.723V208.317H367.933V205.188Z" fill="#F0F0F0"/>
<path d="M287.235 208.316H304.723V205.187H287.235V208.316Z" fill="#E0E0E0"/>
<path d="M292.043 215.806C292.043 219.066 293.123 221.708 294.456 221.708C295.79 221.708 296.87 219.066 296.87 215.806C296.87 212.546 295.79 209.904 294.456 209.904C293.123 209.904 292.043 212.546 292.043 215.806Z" fill="#F5F5F5"/>
<path d="M276.965 215.806C276.965 219.066 277.696 221.708 278.598 221.708C279.5 221.708 280.23 219.066 280.23 215.806C280.23 212.546 279.5 209.904 278.598 209.904C277.696 209.904 276.965 212.546 276.965 215.806Z" fill="#F5F5F5"/>
<path d="M292.043 382.764C292.043 386.024 293.123 388.666 294.456 388.666C295.79 388.666 296.87 386.024 296.87 382.764C296.87 379.504 295.79 376.862 294.456 376.862C293.123 376.862 292.043 379.504 292.043 382.764Z" fill="#F5F5F5"/>
<path d="M276.965 382.764C276.965 386.024 277.696 388.666 278.598 388.666C279.5 388.666 280.23 386.024 280.23 382.764C280.23 379.504 279.5 376.862 278.598 376.862C277.696 376.862 276.965 379.504 276.965 382.764Z" fill="#F5F5F5"/>
<path d="M294.458 216.314H246.932C240.382 216.314 235.054 210.978 235.054 204.421V188.386C235.054 182.391 230.182 177.514 224.194 177.514H186V176.493H224.194C230.744 176.493 236.073 181.83 236.073 188.386V204.421C236.073 210.417 240.944 215.294 246.932 215.294H294.458V216.314Z" fill="#E0E0E0"/>
<path d="M278.598 383.273H264.217C257.666 383.273 252.338 377.937 252.338 371.378V277.967C252.338 271.971 247.467 267.094 241.479 267.094H186V266.073H241.479C248.028 266.073 253.357 271.41 253.357 277.967V371.378C253.357 377.374 258.229 382.252 264.217 382.252H278.598V383.273Z" fill="#E0E0E0"/>
<path d="M440.128 100.739H386.32V106.25H440.128V100.739Z" fill="#F0F0F0"/>
<path d="M371.434 106.251H386.32V100.74H371.434V106.251Z" fill="#E0E0E0"/>
<path d="M440.128 87.2422H386.32V92.7531H440.128V87.2422Z" fill="#F0F0F0"/>
<path d="M371.434 92.7539H386.32V87.243H371.434V92.7539Z" fill="#E0E0E0"/>
<path d="M440.128 73.7422H386.32V79.2531H440.128V73.7422Z" fill="#F0F0F0"/>
<path d="M371.434 79.2539H386.32V73.743H371.434V79.2539Z" fill="#E0E0E0"/>
<path d="M440.128 60.2422H386.32V65.7541H440.128V60.2422Z" fill="#F0F0F0"/>
<path d="M371.434 65.7529H386.32V60.241H371.434V65.7529Z" fill="#E0E0E0"/>
<g opacity="0.4">
<path d="M434.768 46.5225H389.359V100.74H434.768V46.5225Z" fill="#F0F0F0"/>
<path d="M376.796 100.739H389.359V46.5213H376.796V100.739Z" fill="#E0E0E0"/>
</g>
<path d="M301.253 190.367H261.965V194.391H301.253V190.367Z" fill="#F0F0F0"/>
<path d="M251.095 194.393H261.965V190.369H251.095V194.393Z" fill="#E0E0E0"/>
<path d="M301.253 180.51H261.965V184.534H301.253V180.51Z" fill="#F0F0F0"/>
<path d="M251.095 184.533H261.965V180.509H251.095V184.533Z" fill="#E0E0E0"/>
<path d="M301.253 170.654H261.965V174.678H301.253V170.654Z" fill="#F0F0F0"/>
<path d="M251.095 174.678H261.965V170.654H251.095V174.678Z" fill="#E0E0E0"/>
<path d="M301.253 160.801H261.965V164.825H301.253V160.801Z" fill="#F0F0F0"/>
<path d="M251.095 164.826H261.965V160.802H251.095V164.826Z" fill="#E0E0E0"/>
<g opacity="0.4">
<path d="M297.34 150.779H264.184V190.368H297.34V150.779Z" fill="#F0F0F0"/>
<path d="M255.009 190.367H264.182V150.779H255.009V190.367Z" fill="#E0E0E0"/>
</g>
<path d="M482.061 317.944H431.426V323.131H482.061V317.944Z" fill="#F0F0F0"/>
<path d="M417.417 323.132H431.426V317.945H417.417V323.132Z" fill="#E0E0E0"/>
<path d="M482.061 305.242H431.426V310.429H482.061V305.242Z" fill="#F0F0F0"/>
<path d="M417.417 310.43H431.426V305.243H417.417V310.43Z" fill="#E0E0E0"/>
<path d="M482.061 292.54H431.426V297.726H482.061V292.54Z" fill="#F0F0F0"/>
<path d="M417.417 297.728H431.426V292.541H417.417V297.728Z" fill="#E0E0E0"/>
<path d="M482.061 279.835H431.426V285.021H482.061V279.835Z" fill="#F0F0F0"/>
<path d="M417.417 285.022H431.426V279.836H417.417V285.022Z" fill="#E0E0E0"/>
<g opacity="0.4">
<path d="M477.016 266.924H434.285V317.946H477.016V266.924Z" fill="#F0F0F0"/>
<path d="M422.463 317.944H434.285V266.923H422.463V317.944Z" fill="#E0E0E0"/>
</g>
<path d="M254.999 436.341C364.14 436.341 452.616 431.167 452.616 424.785C452.616 418.403 364.14 413.229 254.999 413.229C145.857 413.229 57.3809 418.403 57.3809 424.785C57.3809 431.167 145.857 436.341 254.999 436.341Z" fill="#F5F5F5"/>
<path d="M435.776 117.643H324.793V224.231H435.776V117.643Z" fill="#0E82FD"/>
<path opacity="0.4" d="M435.776 117.643H324.793V224.231H435.776V117.643Z" fill="white"/>
<path opacity="0.7" d="M435.776 117.643H360.127V224.231H435.776V117.643Z" fill="white"/>
<path d="M431.993 123.086H363.908V136.287H431.993V123.086Z" fill="#0E82FD"/>
<path d="M431.993 139.586H363.908V152.787H431.993V139.586Z" fill="#0E82FD"/>
<path d="M431.993 156.087H363.908V169.288H431.993V156.087Z" fill="#0E82FD"/>
<path d="M431.993 172.587H363.908V185.788H431.993V172.587Z" fill="#0E82FD"/>
<path d="M431.993 189.088H363.908V202.289H431.993V189.088Z" fill="#0E82FD"/>
<path d="M431.993 205.588H363.908V218.789H431.993V205.588Z" fill="#0E82FD"/>
<path d="M356.162 123.086H328.756V136.287H356.162V123.086Z" fill="#0E82FD"/>
<path d="M356.162 139.586H328.756V152.787H356.162V139.586Z" fill="#0E82FD"/>
<path d="M356.162 156.087H328.756V169.288H356.162V156.087Z" fill="#0E82FD"/>
<path d="M356.162 172.587H328.756V185.788H356.162V172.587Z" fill="#0E82FD"/>
<path d="M356.162 189.088H328.756V202.289H356.162V189.088Z" fill="#0E82FD"/>
<path d="M356.162 205.588H328.756V218.789H356.162V205.588Z" fill="#0E82FD"/>
<path opacity="0.4" d="M344.158 125.726H331.293V133.646H344.158V125.726Z" fill="#263238"/>
<path opacity="0.4" d="M344.158 142.226H331.293V150.146H344.158V142.226Z" fill="#263238"/>
<path opacity="0.4" d="M344.158 158.727H331.293V166.647H344.158V158.727Z" fill="#263238"/>
<path opacity="0.4" d="M344.158 175.227H331.293V183.147H344.158V175.227Z" fill="#263238"/>
<path opacity="0.4" d="M344.158 191.727H331.293V199.647H344.158V191.727Z" fill="#263238"/>
<path opacity="0.4" d="M344.158 208.228H331.293V216.148H344.158V208.228Z" fill="#263238"/>
<path opacity="0.7" d="M428.655 124.805H427.064V134.566H428.655V124.805Z" fill="white"/>
<path opacity="0.7" d="M425.599 124.805H424.008V134.566H425.599V124.805Z" fill="white"/>
<path opacity="0.7" d="M422.54 124.805H420.949V134.566H422.54V124.805Z" fill="white"/>
<path opacity="0.7" d="M419.484 124.805H417.893V134.566H419.484V124.805Z" fill="white"/>
<path opacity="0.7" d="M416.425 124.805H414.834V134.566H416.425V124.805Z" fill="white"/>
<path opacity="0.7" d="M428.655 141.305H427.064V151.066H428.655V141.305Z" fill="white"/>
<path opacity="0.7" d="M425.599 141.305H424.008V151.066H425.599V141.305Z" fill="white"/>
<path opacity="0.7" d="M422.54 141.305H420.949V151.066H422.54V141.305Z" fill="white"/>
<path opacity="0.7" d="M419.484 141.305H417.893V151.066H419.484V141.305Z" fill="white"/>
<path opacity="0.7" d="M416.425 141.305H414.834V151.066H416.425V141.305Z" fill="white"/>
<path opacity="0.7" d="M428.655 157.806H427.064V167.567H428.655V157.806Z" fill="white"/>
<path opacity="0.7" d="M425.599 157.806H424.008V167.567H425.599V157.806Z" fill="white"/>
<path opacity="0.7" d="M422.54 157.806H420.949V167.567H422.54V157.806Z" fill="white"/>
<path opacity="0.7" d="M419.484 157.806H417.893V167.567H419.484V157.806Z" fill="white"/>
<path opacity="0.7" d="M416.425 157.806H414.834V167.567H416.425V157.806Z" fill="white"/>
<path opacity="0.7" d="M428.655 174.306H427.064V184.067H428.655V174.306Z" fill="white"/>
<path opacity="0.7" d="M425.599 174.306H424.008V184.067H425.599V174.306Z" fill="white"/>
<path opacity="0.7" d="M422.54 174.306H420.949V184.067H422.54V174.306Z" fill="white"/>
<path opacity="0.7" d="M419.484 174.306H417.893V184.067H419.484V174.306Z" fill="white"/>
<path opacity="0.7" d="M416.425 174.306H414.834V184.067H416.425V174.306Z" fill="white"/>
<path opacity="0.7" d="M428.655 190.807H427.064V200.568H428.655V190.807Z" fill="white"/>
<path opacity="0.7" d="M425.599 190.807H424.008V200.568H425.599V190.807Z" fill="white"/>
<path opacity="0.7" d="M422.54 190.807H420.949V200.568H422.54V190.807Z" fill="white"/>
<path opacity="0.7" d="M419.484 190.807H417.893V200.568H419.484V190.807Z" fill="white"/>
<path opacity="0.7" d="M416.425 190.807H414.834V200.568H416.425V190.807Z" fill="white"/>
<path opacity="0.7" d="M428.655 207.307H427.064V217.068H428.655V207.307Z" fill="white"/>
<path opacity="0.7" d="M425.599 207.307H424.008V217.068H425.599V207.307Z" fill="white"/>
<path opacity="0.7" d="M422.54 207.307H420.949V217.068H422.54V207.307Z" fill="white"/>
<path opacity="0.7" d="M419.484 207.307H417.893V217.068H419.484V207.307Z" fill="white"/>
<path opacity="0.7" d="M416.425 207.307H414.834V217.068H416.425V207.307Z" fill="white"/>
<path opacity="0.2" d="M388.971 212.189C388.971 211.294 389.695 210.568 390.589 210.568C391.483 210.568 392.208 211.294 392.208 212.189C392.208 213.084 391.483 213.81 390.589 213.81C389.695 213.81 388.971 213.084 388.971 212.189Z" fill="white"/>
<path opacity="0.2" d="M378.779 212.189C378.779 211.294 379.504 210.568 380.398 210.568C381.292 210.568 382.016 211.294 382.016 212.189C382.016 213.084 381.292 213.81 380.398 213.81C379.504 213.81 378.779 213.084 378.779 212.189Z" fill="white"/>
<path opacity="0.4" d="M368.586 212.189C368.586 211.294 369.311 210.568 370.204 210.568C371.098 210.568 371.823 211.294 371.823 212.189C371.823 213.084 371.098 213.81 370.204 213.81C369.311 213.81 368.586 213.084 368.586 212.189Z" fill="white"/>
<path opacity="0.4" d="M388.971 195.689C388.971 194.794 389.695 194.068 390.589 194.068C391.483 194.068 392.208 194.794 392.208 195.689C392.208 196.584 391.483 197.31 390.589 197.31C389.695 197.31 388.971 196.584 388.971 195.689Z" fill="white"/>
<path opacity="0.2" d="M378.779 195.689C378.779 194.794 379.504 194.068 380.398 194.068C381.292 194.068 382.016 194.794 382.016 195.689C382.016 196.584 381.292 197.31 380.398 197.31C379.504 197.31 378.779 196.584 378.779 195.689Z" fill="white"/>
<path opacity="0.4" d="M368.586 195.689C368.586 194.794 369.311 194.068 370.204 194.068C371.098 194.068 371.823 194.794 371.823 195.689C371.823 196.584 371.098 197.31 370.204 197.31C369.311 197.31 368.586 196.584 368.586 195.689Z" fill="white"/>
<path opacity="0.2" d="M388.971 179.186C388.971 178.291 389.695 177.565 390.589 177.565C391.483 177.565 392.208 178.291 392.208 179.186C392.208 180.081 391.483 180.807 390.589 180.807C389.695 180.807 388.971 180.081 388.971 179.186Z" fill="white"/>
<path opacity="0.4" d="M378.779 179.186C378.779 178.291 379.504 177.565 380.398 177.565C381.292 177.565 382.016 178.291 382.016 179.186C382.016 180.081 381.292 180.807 380.398 180.807C379.504 180.807 378.779 180.081 378.779 179.186Z" fill="white"/>
<path opacity="0.2" d="M368.586 179.186C368.586 178.291 369.311 177.565 370.204 177.565C371.098 177.565 371.823 178.291 371.823 179.186C371.823 180.081 371.098 180.807 370.204 180.807C369.311 180.807 368.586 180.081 368.586 179.186Z" fill="white"/>
<path opacity="0.4" d="M388.971 162.685C388.971 161.79 389.695 161.064 390.589 161.064C391.483 161.064 392.208 161.79 392.208 162.685C392.208 163.58 391.483 164.306 390.589 164.306C389.695 164.306 388.971 163.581 388.971 162.685Z" fill="white"/>
<path opacity="0.2" d="M378.779 162.685C378.779 161.79 379.504 161.064 380.398 161.064C381.292 161.064 382.016 161.79 382.016 162.685C382.016 163.58 381.292 164.306 380.398 164.306C379.504 164.306 378.779 163.581 378.779 162.685Z" fill="white"/>
<path opacity="0.2" d="M368.586 162.685C368.586 161.79 369.311 161.064 370.204 161.064C371.098 161.064 371.823 161.79 371.823 162.685C371.823 163.58 371.098 164.306 370.204 164.306C369.311 164.306 368.586 163.581 368.586 162.685Z" fill="white"/>
<path opacity="0.2" d="M388.971 146.185C388.971 145.29 389.695 144.564 390.589 144.564C391.483 144.564 392.208 145.29 392.208 146.185C392.208 147.08 391.483 147.806 390.589 147.806C389.695 147.806 388.971 147.08 388.971 146.185Z" fill="white"/>
<path opacity="0.4" d="M378.779 146.185C378.779 145.29 379.504 144.564 380.398 144.564C381.292 144.564 382.016 145.29 382.016 146.185C382.016 147.08 381.292 147.806 380.398 147.806C379.504 147.806 378.779 147.08 378.779 146.185Z" fill="white"/>
<path opacity="0.4" d="M368.586 146.185C368.586 145.29 369.311 144.564 370.204 144.564C371.098 144.564 371.823 145.29 371.823 146.185C371.823 147.08 371.098 147.806 370.204 147.806C369.311 147.806 368.586 147.08 368.586 146.185Z" fill="white"/>
<path opacity="0.4" d="M388.971 129.684C388.971 128.789 389.695 128.063 390.589 128.063C391.483 128.063 392.208 128.789 392.208 129.684C392.208 130.579 391.483 131.305 390.589 131.305C389.695 131.305 388.971 130.579 388.971 129.684Z" fill="white"/>
<path opacity="0.2" d="M378.779 129.684C378.779 128.789 379.504 128.063 380.398 128.063C381.292 128.063 382.016 128.789 382.016 129.684C382.016 130.579 381.292 131.305 380.398 131.305C379.504 131.305 378.779 130.579 378.779 129.684Z" fill="white"/>
<path opacity="0.4" d="M368.586 129.684C368.586 128.789 369.311 128.063 370.204 128.063C371.098 128.063 371.823 128.789 371.823 129.684C371.823 130.579 371.098 131.305 370.204 131.305C369.311 131.305 368.586 130.579 368.586 129.684Z" fill="white"/>
<path d="M231.186 318.195H120.203V424.784H231.186V318.195Z" fill="#0E82FD"/>
<path opacity="0.4" d="M231.186 318.195H120.203V424.784H231.186V318.195Z" fill="white"/>
<path opacity="0.7" d="M231.185 318.195H155.535V424.784H231.185V318.195Z" fill="white"/>
<path d="M227.403 323.639H159.318V336.839H227.403V323.639Z" fill="#0E82FD"/>
<path d="M227.403 340.139H159.318V353.339H227.403V340.139Z" fill="#0E82FD"/>
<path d="M227.403 356.64H159.318V369.84H227.403V356.64Z" fill="#0E82FD"/>
<path d="M227.403 373.14H159.318V386.34H227.403V373.14Z" fill="#0E82FD"/>
<path d="M227.403 389.641H159.318V402.841H227.403V389.641Z" fill="#0E82FD"/>
<path d="M227.403 406.141H159.318V419.341H227.403V406.141Z" fill="#0E82FD"/>
<path d="M151.572 323.639H124.166V336.839H151.572V323.639Z" fill="#0E82FD"/>
<path d="M151.572 340.139H124.166V353.339H151.572V340.139Z" fill="#0E82FD"/>
<path d="M151.572 356.64H124.166V369.84H151.572V356.64Z" fill="#0E82FD"/>
<path d="M151.572 373.14H124.166V386.34H151.572V373.14Z" fill="#0E82FD"/>
<path d="M151.572 389.641H124.166V402.841H151.572V389.641Z" fill="#0E82FD"/>
<path d="M151.572 406.141H124.166V419.341H151.572V406.141Z" fill="#0E82FD"/>
<path opacity="0.4" d="M139.568 326.278H126.703V334.199H139.568V326.278Z" fill="#263238"/>
<path opacity="0.4" d="M139.568 342.778H126.703V350.699H139.568V342.778Z" fill="#263238"/>
<path opacity="0.4" d="M139.568 359.279H126.703V367.2H139.568V359.279Z" fill="#263238"/>
<path opacity="0.4" d="M139.568 375.779H126.703V383.7H139.568V375.779Z" fill="#263238"/>
<path opacity="0.4" d="M139.568 392.279H126.703V400.2H139.568V392.279Z" fill="#263238"/>
<path opacity="0.4" d="M139.568 408.78H126.703V416.701H139.568V408.78Z" fill="#263238"/>
<path opacity="0.7" d="M224.066 325.357H222.475V335.119H224.066V325.357Z" fill="white"/>
<path opacity="0.7" d="M221.009 325.357H219.418V335.119H221.009V325.357Z" fill="white"/>
<path opacity="0.7" d="M217.95 325.357H216.359V335.119H217.95V325.357Z" fill="white"/>
<path opacity="0.7" d="M214.892 325.357H213.301V335.119H214.892V325.357Z" fill="white"/>
<path opacity="0.7" d="M211.835 325.357H210.244V335.119H211.835V325.357Z" fill="white"/>
<path opacity="0.7" d="M224.066 341.857H222.475V351.619H224.066V341.857Z" fill="white"/>
<path opacity="0.7" d="M221.009 341.857H219.418V351.619H221.009V341.857Z" fill="white"/>
<path opacity="0.7" d="M217.95 341.857H216.359V351.619H217.95V341.857Z" fill="white"/>
<path opacity="0.7" d="M214.892 341.857H213.301V351.619H214.892V341.857Z" fill="white"/>
<path opacity="0.7" d="M211.835 341.857H210.244V351.619H211.835V341.857Z" fill="white"/>
<path opacity="0.7" d="M224.066 358.358H222.475V368.12H224.066V358.358Z" fill="white"/>
<path opacity="0.7" d="M221.009 358.358H219.418V368.12H221.009V358.358Z" fill="white"/>
<path opacity="0.7" d="M217.95 358.358H216.359V368.12H217.95V358.358Z" fill="white"/>
<path opacity="0.7" d="M214.892 358.358H213.301V368.12H214.892V358.358Z" fill="white"/>
<path opacity="0.7" d="M211.835 358.358H210.244V368.12H211.835V358.358Z" fill="white"/>
<path opacity="0.7" d="M224.066 374.858H222.475V384.62H224.066V374.858Z" fill="white"/>
<path opacity="0.7" d="M221.009 374.858H219.418V384.62H221.009V374.858Z" fill="white"/>
<path opacity="0.7" d="M217.95 374.858H216.359V384.62H217.95V374.858Z" fill="white"/>
<path opacity="0.7" d="M214.892 374.858H213.301V384.62H214.892V374.858Z" fill="white"/>
<path opacity="0.7" d="M211.835 374.858H210.244V384.62H211.835V374.858Z" fill="white"/>
<path opacity="0.7" d="M224.066 391.359H222.475V401.121H224.066V391.359Z" fill="white"/>
<path opacity="0.7" d="M221.009 391.359H219.418V401.121H221.009V391.359Z" fill="white"/>
<path opacity="0.7" d="M217.95 391.359H216.359V401.121H217.95V391.359Z" fill="white"/>
<path opacity="0.7" d="M214.892 391.359H213.301V401.121H214.892V391.359Z" fill="white"/>
<path opacity="0.7" d="M211.835 391.359H210.244V401.121H211.835V391.359Z" fill="white"/>
<path opacity="0.7" d="M224.066 407.859H222.475V417.621H224.066V407.859Z" fill="white"/>
<path opacity="0.7" d="M221.009 407.859H219.418V417.621H221.009V407.859Z" fill="white"/>
<path opacity="0.7" d="M217.95 407.859H216.359V417.621H217.95V407.859Z" fill="white"/>
<path opacity="0.7" d="M214.892 407.859H213.301V417.621H214.892V407.859Z" fill="white"/>
<path opacity="0.7" d="M211.835 407.859H210.244V417.621H211.835V407.859Z" fill="white"/>
<path opacity="0.2" d="M167.235 330.237C167.235 331.132 166.51 331.857 165.617 331.857C164.723 331.857 163.998 331.132 163.998 330.237C163.998 329.342 164.723 328.616 165.617 328.616C166.509 328.616 167.235 329.342 167.235 330.237Z" fill="white"/>
<path opacity="0.2" d="M177.427 330.237C177.427 331.132 176.702 331.857 175.808 331.857C174.914 331.857 174.189 331.132 174.189 330.237C174.189 329.342 174.914 328.616 175.808 328.616C176.701 328.616 177.427 329.342 177.427 330.237Z" fill="white"/>
<path opacity="0.4" d="M187.62 330.237C187.62 331.132 186.895 331.857 186.001 331.857C185.107 331.857 184.383 331.132 184.383 330.237C184.383 329.342 185.107 328.616 186.001 328.616C186.894 328.616 187.62 329.342 187.62 330.237Z" fill="white"/>
<path opacity="0.4" d="M167.235 346.738C167.235 347.633 166.51 348.358 165.617 348.358C164.723 348.358 163.998 347.633 163.998 346.738C163.998 345.843 164.723 345.117 165.617 345.117C166.509 345.117 167.235 345.843 167.235 346.738Z" fill="white"/>
<path opacity="0.2" d="M177.427 346.738C177.427 347.633 176.702 348.358 175.808 348.358C174.914 348.358 174.189 347.633 174.189 346.738C174.189 345.843 174.914 345.117 175.808 345.117C176.701 345.117 177.427 345.843 177.427 346.738Z" fill="white"/>
<path opacity="0.4" d="M187.62 346.738C187.62 347.633 186.895 348.358 186.001 348.358C185.107 348.358 184.383 347.633 184.383 346.738C184.383 345.843 185.107 345.117 186.001 345.117C186.894 345.117 187.62 345.843 187.62 346.738Z" fill="white"/>
<path opacity="0.2" d="M167.235 363.238C167.235 364.133 166.51 364.858 165.617 364.858C164.723 364.858 163.998 364.133 163.998 363.238C163.998 362.343 164.723 361.617 165.617 361.617C166.509 361.617 167.235 362.343 167.235 363.238Z" fill="white"/>
<path opacity="0.4" d="M177.427 363.238C177.427 364.133 176.702 364.858 175.808 364.858C174.914 364.858 174.189 364.133 174.189 363.238C174.189 362.343 174.914 361.617 175.808 361.617C176.701 361.617 177.427 362.343 177.427 363.238Z" fill="white"/>
<path opacity="0.2" d="M187.62 363.238C187.62 364.133 186.895 364.858 186.001 364.858C185.107 364.858 184.383 364.133 184.383 363.238C184.383 362.343 185.107 361.617 186.001 361.617C186.894 361.617 187.62 362.343 187.62 363.238Z" fill="white"/>
<path opacity="0.4" d="M167.235 379.739C167.235 380.634 166.51 381.359 165.617 381.359C164.723 381.359 163.998 380.634 163.998 379.739C163.998 378.844 164.723 378.118 165.617 378.118C166.509 378.118 167.235 378.844 167.235 379.739Z" fill="white"/>
<path opacity="0.2" d="M177.427 379.739C177.427 380.634 176.702 381.359 175.808 381.359C174.914 381.359 174.189 380.634 174.189 379.739C174.189 378.844 174.914 378.118 175.808 378.118C176.701 378.118 177.427 378.844 177.427 379.739Z" fill="white"/>
<path opacity="0.2" d="M187.62 379.739C187.62 380.634 186.895 381.359 186.001 381.359C185.107 381.359 184.383 380.634 184.383 379.739C184.383 378.844 185.107 378.118 186.001 378.118C186.894 378.118 187.62 378.844 187.62 379.739Z" fill="white"/>
<path opacity="0.2" d="M167.235 396.242C167.235 397.137 166.51 397.862 165.617 397.862C164.723 397.862 163.998 397.137 163.998 396.242C163.998 395.347 164.723 394.621 165.617 394.621C166.509 394.621 167.235 395.347 167.235 396.242Z" fill="white"/>
<path opacity="0.4" d="M177.427 396.242C177.427 397.137 176.702 397.862 175.808 397.862C174.914 397.862 174.189 397.137 174.189 396.242C174.189 395.347 174.914 394.621 175.808 394.621C176.701 394.621 177.427 395.347 177.427 396.242Z" fill="white"/>
<path opacity="0.4" d="M187.62 396.242C187.62 397.137 186.895 397.862 186.001 397.862C185.107 397.862 184.383 397.137 184.383 396.242C184.383 395.347 185.107 394.621 186.001 394.621C186.894 394.621 187.62 395.347 187.62 396.242Z" fill="white"/>
<path opacity="0.4" d="M167.235 412.742C167.235 413.637 166.51 414.362 165.617 414.362C164.723 414.362 163.998 413.637 163.998 412.742C163.998 411.847 164.723 411.121 165.617 411.121C166.509 411.121 167.235 411.847 167.235 412.742Z" fill="white"/>
<path opacity="0.2" d="M177.427 412.742C177.427 413.637 176.702 414.362 175.808 414.362C174.914 414.362 174.189 413.637 174.189 412.742C174.189 411.847 174.914 411.121 175.808 411.121C176.701 411.121 177.427 411.847 177.427 412.742Z" fill="white"/>
<path opacity="0.4" d="M187.62 412.742C187.62 413.637 186.895 414.362 186.001 414.362C185.107 414.362 184.383 413.637 184.383 412.742C184.383 411.847 185.107 411.121 186.001 411.121C186.894 411.121 187.62 411.847 187.62 412.742Z" fill="white"/>
<path d="M394.132 224.23H392.094V317.729H394.132V224.23Z" fill="#0E82FD"/>
<path opacity="0.7" d="M333.82 372.511H322.406V370.47H333.82V372.511ZM310.175 372.511H297.945V370.47H310.175V372.511ZM285.714 372.511H273.483V370.47H285.714V372.511ZM261.252 372.511H249.021V370.47H261.252V372.511Z" fill="#0E82FD"/>
<path d="M359.647 314.396L344.94 386.631C344.234 390.095 347.539 393.025 350.887 391.905L420.718 368.54C424.067 367.42 424.949 363.09 422.305 360.747L367.181 311.875C364.538 309.531 360.352 310.932 359.647 314.396Z" fill="#0E82FD"/>
<path d="M353.592 380.4L365.174 323.519C365.462 322.107 367.167 321.537 368.244 322.491L411.651 360.974C412.729 361.93 412.369 363.693 411.005 364.15L356.016 382.548C354.651 383.006 353.304 381.812 353.592 380.4Z" fill="white"/>
<path d="M367.615 340.513L369.22 345.32C369.245 345.397 369.276 345.473 369.31 345.546L374.748 356.99C375.183 357.905 376.232 358.352 377.193 358.031L379.324 357.317C380.282 356.997 380.853 356.011 380.655 355.019L378.164 342.587C378.147 342.505 378.126 342.425 378.099 342.346L376.496 337.542C376.145 336.491 375.01 335.924 373.96 336.275L368.881 337.974C367.832 338.325 367.265 339.462 367.615 340.513Z" fill="#263238"/>
<path d="M383.792 362.766C384.422 364.657 383.403 366.703 381.514 367.335C379.625 367.967 377.581 366.946 376.95 365.055C376.32 363.163 377.339 361.118 379.227 360.486C381.117 359.854 383.161 360.874 383.792 362.766Z" fill="#263238"/>
<path d="M170.227 175.985C165.094 177.46 141.836 199.57 153.675 211.023C165.513 222.475 192.26 224.006 198.898 217.202C205.536 210.398 206.621 193.596 198.898 179.272C194.119 170.408 170.227 166.12 170.227 175.985Z" fill="#263238"/>
<path opacity="0.5" d="M170.227 175.985C165.094 177.46 141.836 199.57 153.675 211.023C165.513 222.475 192.26 224.006 198.898 217.202C205.536 210.398 206.621 193.596 198.898 179.272C194.119 170.408 170.227 166.12 170.227 175.985Z" fill="white"/>
<path d="M204.354 238.563L204.341 239.21L204.343 240.029C204.351 240.589 204.351 241.157 204.38 241.732C204.426 242.879 204.525 244.039 204.668 245.191C204.931 247.502 205.385 249.781 205.961 252.009C206.569 254.229 207.332 256.389 208.28 258.45C208.76 259.477 209.285 260.481 209.853 261.457C210.127 261.953 210.434 262.425 210.735 262.903C210.881 263.146 211.049 263.372 211.208 263.605L211.64 264.234C211.654 264.295 211.524 264.172 211.247 264.077C210.972 263.977 210.637 263.973 210.569 264.024C210.407 264.147 211.113 264.057 211.867 263.638C213.444 262.819 215.345 261.291 217.085 259.632C220.628 256.287 224.049 252.272 227.309 248.35L227.371 248.274C228.45 246.978 230.373 246.803 231.667 247.881C232.744 248.778 233.044 250.263 232.497 251.482C231.336 254.063 230.054 256.434 228.64 258.832C227.222 261.21 225.675 263.534 223.903 265.808C223.013 266.944 222.053 268.053 220.987 269.152C219.921 270.249 218.745 271.333 217.272 272.339C215.788 273.307 214.016 274.394 211.192 274.687C209.805 274.82 208.118 274.611 206.648 273.93C205.169 273.27 204.003 272.274 203.172 271.316L202.381 270.378C202.139 270.084 201.888 269.795 201.661 269.489C201.197 268.885 200.73 268.281 200.3 267.651C199.409 266.412 198.636 265.1 197.895 263.773C197.16 262.442 196.51 261.074 195.901 259.688C195.322 258.293 194.805 256.877 194.344 255.446C193.44 252.581 192.802 249.652 192.429 246.693C192.25 245.213 192.126 243.727 192.069 242.224C192.039 241.473 192.023 240.716 192.035 239.948L192.077 238.778L192.113 238.17L192.172 237.439C192.443 234.074 195.387 231.565 198.748 231.837C201.982 232.097 204.424 234.836 204.363 238.041L204.354 238.563Z" fill="#7F3E3B"/>
<path d="M243.063 244.907L240.932 244.054C239.517 243.487 237.937 243.503 236.535 244.096L228.546 247.472L226.49 251.163C229.434 255.873 234.581 253.449 234.581 253.449L239.602 253.819C240.56 253.89 241.474 253.405 241.953 252.57L244.302 248.478C245.06 247.158 244.475 245.472 243.063 244.907Z" fill="#7F3E3B"/>
<path d="M200.414 228.455C204.126 230.725 207.941 246.909 207.941 246.909L191.912 255.061C191.912 255.061 185.078 237.571 188.265 232.893C191.584 228.021 194.998 225.143 200.414 228.455Z" fill="#263238"/>
<path opacity="0.2" d="M203.517 240.631C204.163 242.431 204.302 245.676 203.459 249.189L191.913 255.061C191.913 255.061 187.922 244.851 187.469 237.944C191.556 233.92 200.935 233.406 203.517 240.631Z" fill="black"/>
<path d="M203.036 235.983C202.499 244.113 200.27 265.53 195.296 278.35C193.88 281.999 199.033 283.935 193.374 287.501L153.178 285.265C149.789 282.46 152.801 278.665 152.563 276.82C150.571 261.428 153.508 256.664 149.479 222.846C149.479 222.846 158.277 221.466 167.22 221.562C174.216 221.638 179.946 221.752 186.046 222.674C188.76 223.084 191.588 223.631 194.146 224.177C199.63 225.346 203.406 230.381 203.036 235.983Z" fill="#263238"/>
<path opacity="0.2" d="M151.084 239.091C153.326 240.816 155.253 243.214 156.221 245.663C157.954 250 153.428 258.348 151.777 261.145C151.797 255.634 151.86 249.255 151.084 239.091Z" fill="black"/>
<path d="M183.119 230.613C183.119 230.613 176.269 236.234 175.675 242.207C169.475 237.444 162.34 227.034 167.219 221.564C172.351 220.28 183.119 230.613 183.119 230.613Z" fill="#0E82FD"/>
<path d="M184 232.388C184 232.388 189.266 236.901 189.351 242.205C192.813 237.613 192.813 226.132 186.047 222.673C180.914 221.391 184 232.388 184 232.388Z" fill="#0E82FD"/>
<path d="M219.883 372.688L228.608 377.292L241.207 356.149L232.483 351.546L219.883 372.688Z" fill="#7F3E3B"/>
<path d="M229.865 374.997L224.752 364.695C224.565 364.321 224.154 364.145 223.763 364.275L215.04 367.152C214.135 367.45 213.698 368.574 214.141 369.432C215.985 372.992 217.055 374.618 219.304 379.148C220.687 381.935 222.554 388.019 224.464 391.867C226.332 395.631 230.277 394.03 229.825 392.256C227.802 384.303 229.232 380.24 230.062 376.809C230.213 376.191 230.137 375.545 229.865 374.997Z" fill="#263238"/>
<g opacity="0.2">
<path d="M232.477 351.549L241.206 356.154L233.685 368.763L225.623 363.042L232.477 351.549Z" fill="black"/>
</g>
<path d="M187.247 287.451C187.247 287.451 248.743 278.799 254.298 296.994C264.73 331.161 238.65 365.035 238.65 365.035L226.684 358.467C226.684 358.467 239.291 330.239 234.786 313.379C223.123 310.122 166.496 336.839 166.287 294.676C166.278 292.852 167.235 291.179 169.026 290.846L187.247 287.451Z" fill="#0E82FD"/>
<g opacity="0.3">
<path d="M187.247 287.451C187.247 287.451 248.743 278.799 254.298 296.994C264.73 331.161 238.65 365.035 238.65 365.035L226.684 358.467C226.684 358.467 239.291 330.239 234.786 313.379C223.123 310.122 166.496 336.839 166.287 294.676C166.278 292.852 167.235 291.179 169.026 290.846L187.247 287.451Z" fill="white"/>
</g>
<path d="M224.383 358.536L238.614 368.385L242.656 363.666L227.003 352.613L224.383 358.536Z" fill="#0E82FD"/>
<path d="M231.056 380.391C231.092 380.41 231.13 380.426 231.168 380.44C231.6 380.609 232.047 380.536 232.499 380.226C232.839 379.992 232.901 379.697 232.893 379.491C232.845 378.185 229.668 376.293 229.308 376.081C229.218 376.026 229.119 376.039 229.042 376.096C228.964 376.153 228.927 376.251 228.95 376.346C229.249 377.632 229.914 379.827 231.056 380.391ZM229.565 376.807C230.814 377.601 232.386 378.822 232.411 379.509C232.414 379.596 232.397 379.71 232.227 379.828C231.912 380.044 231.622 380.097 231.345 379.989C230.681 379.742 230.039 378.561 229.565 376.807Z" fill="#0E82FD"/>
<path d="M229.379 376.678C230.519 377.241 232.875 377.731 233.713 377.082C233.89 376.944 234.159 376.627 233.954 376.05C233.825 375.685 233.572 375.427 233.208 375.275C231.832 374.716 229.189 376.017 229.077 376.072C229 376.111 228.949 376.187 228.944 376.273C228.939 376.359 228.978 376.441 229.05 376.489C229.143 376.552 229.254 376.616 229.379 376.678ZM233.094 375.755C233.292 375.853 233.423 376.002 233.498 376.213C233.602 376.507 233.508 376.627 233.416 376.699C232.851 377.138 230.85 376.837 229.721 376.312C230.625 375.925 232.206 375.393 233.027 375.726C233.05 375.734 233.074 375.744 233.094 375.755Z" fill="#0E82FD"/>
<path d="M152.7 282.794L151.421 286.448C151.259 286.727 151.583 287.042 152.062 287.07L194.731 289.589C195.105 289.611 195.425 289.446 195.463 289.212L196.055 285.519C196.096 285.263 195.785 285.026 195.376 285.002L153.393 282.524C153.086 282.504 152.804 282.614 152.7 282.794Z" fill="#0E82FD"/>
<path d="M158.201 287.835L157.077 287.769C156.853 287.756 156.69 287.63 156.713 287.489L157.524 282.693C157.548 282.553 157.751 282.449 157.975 282.462L159.099 282.528C159.323 282.542 159.487 282.667 159.463 282.808L158.652 287.605C158.627 287.744 158.424 287.848 158.201 287.835Z" fill="#263238"/>
<path d="M191.549 289.803L190.425 289.737C190.2 289.723 190.037 289.598 190.061 289.457L190.872 284.661C190.896 284.52 191.098 284.416 191.323 284.429L192.447 284.495C192.671 284.508 192.834 284.634 192.811 284.775L191.999 289.571C191.975 289.712 191.773 289.816 191.549 289.803Z" fill="#263238"/>
<path d="M174.943 288.823L173.819 288.756C173.595 288.743 173.432 288.617 173.455 288.477L174.267 283.68C174.29 283.539 174.493 283.435 174.717 283.448L175.841 283.515C176.066 283.528 176.229 283.654 176.205 283.794L175.394 288.591C175.369 288.732 175.167 288.836 174.943 288.823Z" fill="#263238"/>
<path d="M170.2 202.724C171.031 208.859 171.695 217.765 167.219 221.563C167.219 221.563 174.582 225.895 181.623 234.979C182.366 235.938 183.837 235.868 184.487 234.843C189.669 226.669 186.044 222.674 186.044 222.674C182.101 221.795 182.583 218.28 184.037 213.636L170.2 202.724Z" fill="#7F3E3B"/>
<path d="M186.92 224.369C187.526 226.258 187.728 229.734 184.489 234.843C183.839 235.867 182.368 235.938 181.625 234.978C177.507 229.665 173.279 225.979 170.479 223.833C174.686 225.027 180.598 230.83 183.121 233.645C184.904 232.258 186.972 227.032 186.92 224.369Z" fill="white"/>
<path opacity="0.2" d="M174.007 207.453L181.671 211.77L184.036 213.638C183.292 216.015 182.803 218.097 183.037 219.679C178.012 218.25 172.275 211.576 174.007 207.453Z" fill="black"/>
<path d="M170.409 188.389C168.799 198.421 167.904 202.634 171.759 208.835C177.558 218.162 190.216 217.946 194.788 208.597C198.901 200.182 200.842 185.188 192.049 179.077C183.386 173.056 172.018 178.355 170.409 188.389Z" fill="#7F3E3B"/>
<path d="M198.685 188.799C197.411 183.356 198.041 174.171 187.789 174.682C178.249 175.156 172.445 173.725 172.505 179.211C161.965 184.371 161.316 189.717 168.703 194.77C174.324 196.12 175.763 189.655 175.116 184.36C179.239 186.734 186.958 183.31 190.591 183.442C195.288 183.611 199.959 194.241 198.685 188.799Z" fill="#263238"/>
<path opacity="0.5" d="M198.685 188.799C197.411 183.356 198.041 174.171 187.789 174.682C178.249 175.156 172.445 173.725 172.505 179.211C161.965 184.371 161.316 189.717 168.703 194.77C174.324 196.12 175.763 189.655 175.116 184.36C179.239 186.734 186.958 183.31 190.591 183.442C195.288 183.611 199.959 194.241 198.685 188.799Z" fill="white"/>
<path opacity="0.2" d="M182.988 194.035C182.988 194.035 180.374 194.066 178.846 192.862C181.237 193.185 182.988 194.035 182.988 194.035Z" fill="black"/>
<path opacity="0.2" d="M183.238 193.329C183.238 193.329 180.859 193 179.902 191.646C181.954 192.28 183.238 193.329 183.238 193.329Z" fill="black"/>
<path d="M185.584 194.555C185.404 195.361 185.684 196.11 186.21 196.228C186.736 196.346 187.309 195.788 187.489 194.982C187.669 194.176 187.389 193.428 186.863 193.31C186.337 193.191 185.764 193.749 185.584 194.555Z" fill="#263238"/>
<path d="M194.68 196.598C194.499 197.404 194.78 198.152 195.306 198.27C195.831 198.389 196.404 197.831 196.585 197.025C196.765 196.219 196.485 195.47 195.959 195.353C195.433 195.234 194.86 195.792 194.68 196.598Z" fill="#263238"/>
<path d="M195.717 195.345L197.775 195.222C197.775 195.222 196.445 196.51 195.717 195.345Z" fill="#263238"/>
<path d="M191.551 197.419C191.551 197.419 192.14 201.195 193.269 203.206C191.983 203.961 190.279 203.101 190.279 203.101L191.551 197.419Z" fill="#630F0F"/>
<path d="M186.171 203.631C185.794 203.554 185.391 203.503 184.961 203.483C184.828 203.477 184.713 203.58 184.707 203.713C184.701 203.848 184.804 203.967 184.938 203.966C188.555 204.142 190.125 206.743 190.14 206.77C190.208 206.886 190.356 206.925 190.471 206.857C190.586 206.789 190.625 206.64 190.558 206.525C190.498 206.421 189.185 204.241 186.171 203.631Z" fill="#263238"/>
<path d="M166.076 195.693C166.386 197.776 167.628 199.523 169.034 200.53C171.148 202.045 173.091 200.367 173.245 197.904C173.384 195.687 172.45 192.228 169.971 191.688C167.528 191.156 165.721 193.311 166.076 195.693Z" fill="#7F3E3B"/>
<path d="M184.98 187.72C185.142 187.845 185.371 187.857 185.549 187.733C187.392 186.459 190.109 187.436 190.136 187.447C190.387 187.539 190.665 187.41 190.758 187.159C190.851 186.909 190.724 186.629 190.47 186.536C190.34 186.488 187.252 185.379 184.998 186.935C184.778 187.087 184.723 187.389 184.875 187.61C184.905 187.654 184.941 187.69 184.98 187.72Z" fill="#263238"/>
<path d="M196.212 192.068C196.049 192.094 195.903 192.202 195.837 192.368C195.738 192.617 195.86 192.898 196.108 192.997C198.597 193.987 200.441 192.717 200.516 192.663C200.735 192.507 200.787 192.205 200.633 191.987C200.479 191.769 200.178 191.718 199.958 191.87C199.885 191.921 198.442 192.883 196.465 192.096C196.382 192.062 196.295 192.054 196.212 192.068Z" fill="#263238"/>
<path d="M233.612 406.09L243.017 403.119L236.873 379.279L227.469 382.25L233.612 406.09Z" fill="#7F3E3B"/>
<path d="M242.273 400.607L231.364 396.998C230.967 396.867 230.554 397.036 230.37 397.407L226.276 405.637C225.851 406.49 226.341 407.594 227.262 407.881C231.088 409.073 232.994 409.456 237.791 411.043C240.743 412.019 246.374 414.971 250.449 416.319C254.435 417.638 256.073 413.704 254.496 412.777C247.428 408.621 245.55 404.745 243.699 401.742C243.364 401.2 242.854 400.8 242.273 400.607Z" fill="#263238"/>
<g opacity="0.2">
<path d="M227.467 382.257L236.875 379.284L240.535 393.507L230.803 395.22L227.467 382.257Z" fill="black"/>
</g>
<path d="M173.243 286.545C173.243 286.545 230.062 290.447 231.085 309.445C233.007 345.12 241.38 387.351 241.38 387.351L228.301 391.246C228.301 391.246 211.263 348.362 208.21 320.652C197.672 314.682 146.079 335.47 151.164 288.513C151.361 286.7 152.924 285.347 154.743 285.454L173.243 286.545Z" fill="#0E82FD"/>
<g opacity="0.4">
<path d="M173.243 286.545C173.243 286.545 230.062 290.447 231.085 309.445C233.007 345.12 241.38 387.351 241.38 387.351L228.301 391.246C228.301 391.246 211.263 348.362 208.21 320.652C197.672 314.682 146.079 335.47 151.164 288.513C151.361 286.7 152.924 285.347 154.743 285.454L173.243 286.545Z" fill="white"/>
</g>
<path d="M226.732 392.932L243.733 389.734L243.228 383.538L224.371 386.901L226.732 392.932Z" fill="#0E82FD"/>
<path d="M246.939 403.556C246.977 403.543 247.015 403.527 247.053 403.511C247.476 403.321 247.74 402.953 247.838 402.413C247.911 402.007 247.746 401.754 247.594 401.615C246.633 400.73 243.055 401.66 242.651 401.768C242.549 401.792 242.488 401.871 242.473 401.967C242.459 402.063 242.504 402.158 242.586 402.209C243.709 402.901 245.734 403.972 246.939 403.556ZM243.345 402.095C244.787 401.766 246.759 401.506 247.265 401.972C247.329 402.03 247.397 402.124 247.361 402.327C247.292 402.704 247.127 402.947 246.855 403.068C246.213 403.366 244.924 402.991 243.345 402.095Z" fill="#0E82FD"/>
<path d="M243.124 402.138C244.325 401.724 246.331 400.391 246.459 399.339C246.487 399.116 246.45 398.701 245.897 398.441C245.546 398.276 245.185 398.274 244.821 398.427C243.457 399.014 242.521 401.808 242.481 401.927C242.454 402.01 242.473 402.1 242.53 402.164C242.587 402.228 242.674 402.258 242.758 402.241C242.868 402.218 242.991 402.183 243.124 402.138ZM245.082 398.845C245.29 398.774 245.49 398.785 245.691 398.879C245.973 399.012 245.992 399.163 245.978 399.279C245.891 399.99 244.271 401.203 243.104 401.635C243.465 400.721 244.201 399.221 245.014 398.871C245.036 398.862 245.06 398.853 245.082 398.845Z" fill="#0E82FD"/>
<path d="M186.621 193.303L188.679 193.179C188.679 193.179 187.349 194.469 186.621 193.303Z" fill="#263238"/>
<path d="M154.814 237.867C153.827 240.854 152.762 244.055 151.833 247.189C150.874 250.339 149.973 253.504 149.102 256.669C148.243 259.836 147.473 263.013 146.743 266.187C146.066 269.364 145.435 272.538 144.965 275.699C144.543 278.411 144.553 281.566 144.664 284.773C144.816 287.987 145.037 291.273 145.37 294.565C146.01 301.15 146.817 307.848 147.656 314.47L147.663 314.523C147.875 316.191 146.696 317.716 145.03 317.927C143.569 318.113 142.219 317.227 141.765 315.882C139.552 309.335 137.721 302.762 136.254 295.991C135.548 292.604 134.881 289.184 134.436 285.663C134.009 282.141 133.626 278.505 133.963 274.49C134.527 267.374 135.756 260.467 137.351 253.695C138.145 250.309 139.044 246.955 140.028 243.631C141.051 240.293 142.049 237.054 143.325 233.672C144.518 230.508 148.047 228.913 151.206 230.107C154.282 231.271 155.874 234.65 154.855 237.747L154.814 237.867Z" fill="#7F3E3B"/>
<path d="M149.478 222.846C145.25 223.866 139.418 237.892 139.418 237.892L152.491 249.769C152.491 249.769 161.434 238.771 160.004 233.292C158.517 227.587 154.303 221.683 149.478 222.846Z" fill="#263238"/>
<path d="M156.73 321.871L156.68 321.581C156.344 319.623 155.11 317.935 153.349 317.02L146.339 313.38L142.19 314.156C141.413 318.341 146.538 322.451 146.538 322.451L147.651 324.821C148.426 326.472 150.324 327.268 152.042 326.663L154.409 325.83C156.043 325.254 157.024 323.581 156.73 321.871Z" fill="#7F3E3B"/>
<path d="M225.754 251.259C226.603 252.158 228.424 251.814 229.821 250.492C231.218 249.169 231.664 247.368 230.815 246.469C229.966 245.57 228.145 245.914 226.748 247.236C225.351 248.56 224.906 250.361 225.754 251.259Z" fill="#0E82FD"/>
<path d="M231.205 255.083C231.156 255.083 231.107 255.079 231.057 255.071C230.874 255.046 226.576 254.34 227.534 247.333C227.61 246.774 228.12 246.392 228.682 246.46C229.24 246.537 229.63 247.052 229.554 247.61C228.877 252.553 231.324 253.049 231.35 253.053C231.906 253.133 232.292 253.651 232.212 254.209C232.14 254.717 231.703 255.083 231.205 255.083Z" fill="#0E82FD"/>
<path d="M226.135 250.27C226.638 250.804 227.887 250.442 228.922 249.461C229.959 248.48 230.39 247.253 229.887 246.719C229.383 246.185 228.135 246.548 227.098 247.529C226.061 248.51 225.63 249.736 226.135 250.27Z" fill="white"/>
</g>
<defs>
<clipPath id="clip0_39_15727">
<rect width="509.615" height="450" fill="white" transform="translate(0.191406)"/>
</clipPath>
</defs>
</svg>
