<svg width="144" height="80" viewBox="0 0 144 80" fill="none" xmlns="http://www.w3.org/2000/svg">
<g clip-path="url(#clip0_39_61401)">
<path d="M5.24604 26.2674C9.46797 19.824 14.059 13.3775 21.4781 10.4208C28.1098 7.78413 35.5694 8.14096 42.2885 10.2369C49.6039 12.522 56.0224 17.2366 61.0961 22.9143C63.7065 25.8348 66.0122 29.0005 68.0629 32.3359C69.0739 33.9949 70.032 35.6962 70.9316 37.4166C71.8312 39.1371 72.7467 40.8829 73.0002 42.8254C73.2089 44.4869 72.7307 46.2637 71.4928 47.4243C70.1847 48.6556 68.2992 48.7053 66.6554 48.2139C62.9419 47.102 59.845 43.7463 57.7777 40.5805C53.7682 34.4613 52.0555 25.2329 57.124 19.1654C62.1925 13.0979 71.1702 13.0185 78.2346 15.3117C85.299 17.605 92.6166 22.1766 98.653 26.9997C110.112 36.1495 119.21 48.2639 124.455 61.9867C125.111 63.6844 125.685 65.407 126.201 67.1488C126.799 69.1478 122.596 67.7084 122.161 66.3314C118.315 54.0847 111.693 42.8995 102.578 33.8257C98.0773 29.3503 93.0368 25.3919 87.5496 22.21C81.6337 18.7684 74.7212 15.4694 67.7442 17.3345C64.6074 18.1734 61.7346 20.0471 60.0544 22.8734C58.3743 25.6997 57.8816 29.3584 58.3539 32.7263C58.8262 36.0943 60.197 39.1783 62.1759 41.8257C63.024 42.9604 64.0042 44.0382 65.1134 44.9286C65.6275 45.3376 66.0901 45.7349 66.7681 45.5634C67.5711 45.3661 68.1345 44.6486 68.4801 43.936C69.896 40.9848 67.3604 37.3987 65.9586 34.882C64.2712 31.8563 62.3863 28.9376 60.2668 26.1933C56.379 21.1634 51.515 16.6167 45.6531 13.989C39.5063 11.2319 32.2896 10.6158 25.872 12.7376C18.1921 15.2669 13.4847 21.8929 9.21918 28.3373C8.33128 29.6746 4.44564 27.5054 5.26101 26.2491L5.25071 26.2468L5.24604 26.2674Z" fill="#0E82FD"/>
<path d="M113.272 58.0233L121.735 67.7295L125.812 72.4014C126.948 73.6988 128.073 75.4271 129.684 76.1602L127.322 75.8744C128.677 74.578 128.872 72.3794 129.148 70.6327C129.455 68.6547 129.68 66.6579 129.915 64.6635C130.387 60.6644 130.806 56.4256 132.391 52.6786C132.993 51.2656 136.777 53.2602 136.349 54.7667C135.141 59.0001 134.5 63.2208 133.989 67.5797C133.732 69.7207 133.485 71.864 133.068 73.9906C132.73 75.7233 132.287 77.2481 130.985 78.5024C130.432 79.0273 129.153 78.456 128.622 78.2166C126.629 77.31 125.159 75.7637 123.741 74.1316C122.175 72.3362 120.61 70.5409 119.035 68.7431L109.636 57.9582C108.991 57.2163 109.558 56.5321 110.396 56.516C111.516 56.4988 112.575 57.2263 113.28 58.036L113.272 58.0233Z" fill="#0E82FD"/>
</g>
<defs>
<clipPath id="clip0_39_61401">
<rect width="135.26" height="50.4861" fill="white" transform="matrix(0.975301 0.220881 0.220881 -0.975301 0 49.2383)"/>
</clipPath>
</defs>
</svg>
