<svg width="768" height="450" viewBox="0 0 768 450" fill="none" xmlns="http://www.w3.org/2000/svg">
<g clip-path="url(#clip0_39_16129)">
<path d="M758.477 78.7112L765.582 67.2897L762.072 65.1233C761.046 64.4854 760.479 63.318 760.588 62.1145C760.648 61.4525 760.672 60.7786 760.648 60.1046C760.624 58.9011 761.251 57.7697 762.325 57.2041L765.956 55.2544L759.587 43.3996L755.956 45.3493C754.894 45.915 753.603 45.8187 752.614 45.1327C752.059 44.7475 751.493 44.3985 750.901 44.0736C749.84 43.4959 749.176 42.3886 749.213 41.1731L749.345 37.057L735.883 36.6357L735.763 40.7638C735.726 41.9794 734.978 43.0265 733.881 43.544C733.579 43.6884 733.29 43.8329 733 43.9893C732.711 44.1458 732.421 44.3143 732.144 44.4828C731.106 45.1086 729.828 45.1447 728.802 44.5068L725.268 42.3284L718.163 53.7499L721.673 55.9283C722.699 56.5662 723.266 57.7336 723.157 58.9372C723.097 59.5991 723.073 60.2731 723.097 60.935C723.121 62.1386 722.494 63.2578 721.42 63.8355L717.789 65.7852L724.158 77.64L727.789 75.6903C728.851 75.1246 730.141 75.2209 731.131 75.9069C731.685 76.2921 732.252 76.6411 732.843 76.954C733.905 77.5317 734.568 78.639 734.532 79.8545L734.399 83.9826L747.862 84.4039L747.994 80.2757C748.03 79.0722 748.778 78.0252 749.864 77.5076C750.166 77.3632 750.455 77.2188 750.757 77.0623C751.046 76.9059 751.336 76.7374 751.613 76.5689C752.651 75.943 753.941 75.9069 754.979 76.5448L758.477 78.7112ZM747.077 70.2383C741.71 73.1147 735.027 71.1049 732.144 65.7371C729.261 60.3814 731.275 53.7018 736.643 50.8254C742.011 47.9489 748.706 49.9709 751.589 55.3266C754.472 60.6823 752.445 67.3619 747.077 70.2383Z" fill="#EBEBEB"/>
<path d="M85.903 359.784L81.1865 351.624L78.6895 353.068C77.9536 353.489 77.0489 353.453 76.3372 352.984C75.9391 352.731 75.5411 352.49 75.1189 352.274C74.3589 351.889 73.8764 351.13 73.8764 350.288V347.399H64.4312V350.288C64.4312 351.13 63.9487 351.889 63.1888 352.274C62.7666 352.49 62.3564 352.719 61.9704 352.984C61.2587 353.441 60.354 353.489 59.6182 353.068L57.1212 351.624L52.4046 359.784L54.9137 361.228C55.6495 361.649 56.0597 362.456 56.0114 363.31C55.9994 363.539 55.9994 363.767 55.9994 364.008C55.9994 364.237 55.9994 364.465 56.0114 364.706C56.0597 365.549 55.6495 366.355 54.9137 366.776L52.3926 368.233L57.1091 376.392L59.6182 374.948C60.354 374.527 61.2587 374.563 61.9704 375.032C62.3564 375.285 62.7666 375.526 63.1888 375.731C63.9487 376.116 64.4312 376.874 64.4312 377.716V380.605H73.8764V377.716C73.8764 376.874 74.3589 376.116 75.1189 375.731C75.5411 375.514 75.9391 375.285 76.3372 375.032C77.0489 374.563 77.9536 374.527 78.6895 374.948L81.1985 376.392L85.9151 368.233L83.406 366.788C82.6702 366.367 82.2721 365.561 82.3083 364.718C82.3204 364.49 82.3204 364.249 82.3204 364.02C82.3204 363.791 82.3204 363.563 82.3083 363.322C82.26 362.48 82.6702 361.673 83.406 361.24L85.903 359.784ZM76.88 363.996C76.88 368.257 73.418 371.711 69.1478 371.711C64.8776 371.711 61.4155 368.257 61.4155 363.996C61.4155 359.736 64.8776 356.281 69.1478 356.281C73.4301 356.281 76.88 359.736 76.88 363.996Z" fill="#EBEBEB"/>
<path d="M47.5444 239.792C27.2427 239.792 10.7891 256.208 10.7891 276.464C10.7891 296.719 27.2427 313.135 47.5444 313.135C67.8461 313.135 84.2997 296.707 84.2997 276.464C84.2997 256.208 67.834 239.792 47.5444 239.792ZM47.5444 293.59C38.063 293.59 30.379 285.923 30.379 276.464C30.379 267.004 38.063 259.337 47.5444 259.337C57.0257 259.337 64.7097 267.004 64.7097 276.464C64.7097 285.923 57.0257 293.59 47.5444 293.59Z" fill="#EBEBEB"/>
<path d="M54.6122 241.308H40.4746L41.2587 231.331H53.8281L54.6122 241.308Z" fill="#EBEBEB"/>
<path d="M27.7015 246.062L17.7135 256.039L11.1875 248.421L20.0778 239.551L27.7015 246.062Z" fill="#EBEBEB"/>
<path d="M12.043 268.399V282.505L2.04297 281.723V269.182L12.043 268.399Z" fill="#EBEBEB"/>
<path d="M16.8072 295.251L26.8073 305.216L19.1715 311.727L10.2812 302.857L16.8072 295.251Z" fill="#EBEBEB"/>
<path d="M39.1973 310.872H53.3349L52.5508 320.849H39.9813L39.1973 310.872Z" fill="#EBEBEB"/>
<path d="M66.1094 306.119L76.0974 296.142L82.6233 303.76L73.7331 312.63L66.1094 306.119Z" fill="#EBEBEB"/>
<path d="M81.7656 283.781V269.676L91.7657 270.458V282.999L81.7656 283.781Z" fill="#EBEBEB"/>
<path d="M77.002 256.93L67.002 246.965L74.6377 240.454L83.528 249.324L77.002 256.93Z" fill="#EBEBEB"/>
<path d="M700.166 114.18C679.864 114.18 663.41 130.596 663.41 150.851C663.41 171.107 679.864 187.523 700.166 187.523C720.467 187.523 736.921 171.095 736.921 150.851C736.921 130.596 720.467 114.18 700.166 114.18ZM700.166 167.977C690.684 167.977 683 160.311 683 150.851C683 141.392 690.684 133.725 700.166 133.725C709.647 133.725 717.331 141.392 717.331 150.851C717.331 160.311 709.647 167.977 700.166 167.977Z" fill="#EBEBEB"/>
<path d="M707.233 115.696H693.096L693.88 105.719H706.449L707.233 115.696Z" fill="#EBEBEB"/>
<path d="M680.335 120.45L670.335 130.427L663.809 122.808L672.699 113.938L680.335 120.45Z" fill="#EBEBEB"/>
<path d="M664.676 142.787V156.892L654.664 156.11V143.569L664.676 142.787Z" fill="#EBEBEB"/>
<path d="M669.43 169.639L679.43 179.604L671.806 186.115L662.916 177.245L669.43 169.639Z" fill="#EBEBEB"/>
<path d="M691.83 185.26H705.956L705.184 195.237H692.602L691.83 185.26Z" fill="#EBEBEB"/>
<path d="M718.73 180.507L728.731 170.529L735.244 178.148L726.354 187.018L718.73 180.507Z" fill="#EBEBEB"/>
<path d="M734.387 158.169V144.063L744.387 144.846V157.387L734.387 158.169Z" fill="#EBEBEB"/>
<path d="M729.623 131.318L719.635 121.353L727.258 114.842L736.149 123.712L729.623 131.318Z" fill="#EBEBEB"/>
<path d="M63.2139 323.353C52.1403 338.324 40.5841 355.691 37.7735 374.466C37.7373 374.755 38.1957 374.84 38.256 374.563C39.5467 369.412 41.1632 364.417 43.1535 359.531C50.4394 357.533 57.5806 355.884 61.4045 348.675C65.3008 341.261 64.8062 331.597 64.0704 323.521C64.0222 323.088 63.4431 323.064 63.2139 323.353Z" fill="#0E82FD"/>
<path d="M43.2738 359.386C48.2557 348.242 54.6369 337.061 62.7552 327.89C62.8155 327.83 62.8999 327.914 62.8396 327.974C57.5199 334.497 53.4789 341.61 49.5344 348.831C53.2015 345.112 57.2184 341.791 60.6924 337.843C60.7648 337.771 60.8734 337.879 60.801 337.951C57.3511 342.079 53.5875 346.569 49.088 349.626C47.8818 351.84 46.6634 354.067 45.433 356.293C45.7346 356.125 46.0482 355.98 46.3618 355.824C46.4222 355.8 46.4584 355.872 46.4101 355.908C46.0723 356.077 45.7225 356.269 45.3727 356.414C44.7937 357.461 44.2147 358.52 43.6115 359.567C43.4909 359.832 43.1652 359.627 43.2738 359.386Z" fill="#263238"/>
<path d="M46.9771 355.499C49.9445 353.802 52.8034 351.973 55.4813 349.83C55.5537 349.77 55.6623 349.867 55.5899 349.939C52.9723 352.153 50.1737 354.139 47.1098 355.704C46.9529 355.788 46.8323 355.583 46.9771 355.499Z" fill="#263238"/>
<path d="M36.4953 371.674C36.5194 371.902 36.9055 371.902 36.9055 371.65C36.9658 365.464 36.9055 359.253 37.002 353.043C38.5942 349.842 41.996 348.073 44.3603 345.521C46.0732 343.668 47.5328 341.586 48.7752 339.383C51.7065 334.148 53.2867 328.275 53.9019 322.329C54.5533 315.722 52.0443 293.902 49.2457 294.66C47.7982 295.057 43.1057 305.865 41.8633 309.427C39.8247 315.3 38.3892 321.39 37.4483 327.54C35.1925 342.103 35.3855 357.039 36.4953 371.674Z" fill="#0E82FD"/>
<path d="M36.4472 345.004C36.4593 344.992 36.4714 344.992 36.4714 344.98C36.8091 337.157 38.5823 329.262 40.2349 321.667C42.0202 313.495 44.095 305.805 48.317 298.512C48.4015 298.379 48.5945 298.5 48.5221 298.632C45.6511 304.276 43.6005 310.258 42.0323 316.408C42.3097 315.963 42.6596 315.554 42.9491 315.132C43.0697 314.964 43.3351 315.12 43.2265 315.289C42.8164 315.903 42.4424 316.625 41.9117 317.142C41.8996 317.154 41.8755 317.166 41.8514 317.166C40.4038 323.003 39.3544 328.985 38.4617 334.942C38.5341 334.87 38.5944 334.786 38.6547 334.714C38.703 334.666 38.7753 334.726 38.7512 334.786C38.6427 334.979 38.522 335.183 38.4014 335.376C37.9551 338.397 37.5329 341.417 37.1227 344.414C42.5269 339.805 47.1349 334.389 49.7284 327.697C49.7404 327.661 49.7887 327.673 49.7766 327.709C47.2314 334.642 43.2145 340.816 37.0262 345.016C36.9177 345.822 36.797 346.629 36.6885 347.435C36.6644 347.604 36.399 347.555 36.399 347.399C36.399 346.689 36.4352 345.967 36.4593 345.257C36.3869 345.196 36.3507 345.088 36.4472 345.004Z" fill="#263238"/>
<path d="M38.9916 333.679C43.117 327.541 46.9771 321.571 49.9928 314.783C50.029 314.711 50.1617 314.759 50.1255 314.843C47.5803 321.595 44.0217 328.431 39.1966 333.847C39.1001 333.944 38.9071 333.799 38.9916 333.679Z" fill="#263238"/>
<path d="M44.4688 313.254C46.1817 310.234 47.979 307.297 49.5834 304.228C49.6316 304.144 49.7523 304.216 49.7161 304.3C48.365 307.441 46.7486 310.643 44.7342 313.411C44.6256 313.567 44.3723 313.435 44.4688 313.254Z" fill="#263238"/>
<path d="M43.8064 314.566C43.8426 314.566 43.8426 314.615 43.8064 314.615C43.7702 314.627 43.7702 314.566 43.8064 314.566Z" fill="#263238"/>
<path d="M32.2977 353.801C32.1892 357.893 31.7428 361.997 30.8502 365.981C30.9105 366.426 30.9829 366.86 31.0432 367.317C32.3339 362.876 33.0094 358.327 33.2266 353.741C33.2989 353.609 33.3231 353.476 33.2507 353.32C33.2507 353.32 33.2507 353.32 33.2507 353.308C33.4799 347.182 32.9129 340.984 31.8876 334.918C29.9696 323.556 25.7718 312.653 17.8344 304.144C17.5811 303.879 17.0745 304.023 16.9539 304.324C13.7452 312.448 14.867 322.148 17.5932 330.26C19.0769 334.629 21.2 338.829 23.89 342.584C26.6162 346.387 30.0902 349.625 32.2977 353.801Z" fill="#0E82FD"/>
<path d="M18.7624 307.935C26.2896 320.126 31.5248 334.569 32.1642 348.963C32.1762 349.216 31.742 349.288 31.7058 349.023C31.5248 347.735 31.3318 346.448 31.1268 345.172H31.1147C28.0025 342.199 24.8059 339.058 22.5742 335.339C22.5381 335.279 22.6346 335.195 22.6828 335.255C25.3969 338.348 27.9181 341.513 30.982 344.257C30.4392 341.08 29.7999 337.939 29.052 334.858C28.8469 334.629 28.6539 334.388 28.4609 334.159C28.3282 334.003 28.5453 333.786 28.6901 333.931C28.7504 334.003 28.8107 334.063 28.871 334.135C27.8095 329.899 26.5067 325.747 24.9386 321.667C23.0206 319.392 20.8855 317.418 19.4862 314.674C19.45 314.602 19.5465 314.554 19.5827 314.614C20.7045 316.191 21.7902 317.767 23.0688 319.224C23.5755 319.801 24.1303 320.343 24.6611 320.909C22.9482 316.552 20.9216 312.291 18.497 308.091C18.3643 307.91 18.6538 307.754 18.7624 307.935Z" fill="#263238"/>
<path d="M20.2829 322.967C22.7196 326.229 25.494 329.346 27.7497 332.728C27.8101 332.824 27.6774 332.92 27.5929 332.848C24.6858 330.128 22.225 326.409 20.1261 323.063C20.0537 322.955 20.2105 322.871 20.2829 322.967Z" fill="#263238"/>
<path d="M28.0875 333.486L28.1961 333.594C28.2685 333.666 28.1599 333.775 28.0875 333.702L27.9789 333.594C27.9066 333.522 28.0151 333.414 28.0875 333.486Z" fill="#263238"/>
<path d="M6.97709 331.355C7.58023 337.626 10.8854 345.112 14.9144 349.95C16.6997 352.092 18.871 353.717 21.3559 354.969C24.1424 356.341 27.0616 357.929 29.9567 359.061C31.3077 362.491 32.3331 366.101 32.9965 369.844C33.093 369.531 33.1775 369.206 33.274 368.894C31.4163 353.019 21.1267 339.455 7.95418 330.742C7.48373 330.417 6.91678 330.826 6.97709 331.355Z" fill="#0E82FD"/>
<path d="M11.5238 336.049C11.4273 335.965 11.56 335.796 11.6565 335.88C18.6408 341.044 24.9256 348.566 28.4358 356.509C28.5323 356.726 28.2308 356.918 28.1101 356.701C27.4949 355.63 26.8797 354.595 26.2404 353.572C26.2404 353.572 26.2404 353.572 26.2283 353.572C23.2247 353.007 20.3779 350.9 18.1463 348.891C18.086 348.842 18.1704 348.746 18.2307 348.806C19.4008 349.829 20.6433 350.768 22.0305 351.466C23.2609 352.092 24.5757 352.477 25.8544 352.971C24.7446 351.201 23.5745 349.516 22.3682 347.88C19.1354 346.784 16.0473 344.799 13.3332 342.813C13.2488 342.753 13.3212 342.608 13.4177 342.668C16.1921 344.329 18.9183 345.797 21.8134 347.145C19.9919 344.738 18.0136 342.452 15.8905 340.249C14.8652 339.708 13.8278 339.166 12.8386 338.588C12.7542 338.54 12.8145 338.408 12.899 338.432C13.683 338.697 14.4912 339.106 15.2391 339.575C14.057 338.384 12.8266 337.204 11.5238 336.049Z" fill="#263238"/>
<path d="M11.8009 341.537C11.9818 341.657 12.1507 341.753 12.3075 341.898C12.3558 341.946 12.2955 342.006 12.2472 341.982C12.0542 341.898 11.8974 341.802 11.7164 341.681C11.6199 341.621 11.7044 341.477 11.8009 341.537Z" fill="#263238"/>
<path d="M53.8161 404.218H17.7363L20.6435 371.433L21.2828 364.2H50.2697L50.909 371.433L53.8161 404.218Z" fill="#455A64"/>
<path d="M50.9081 371.433H20.6426L21.2819 364.2H50.2688L50.9081 371.433Z" fill="#263238"/>
<path d="M51.9954 359.146H19.5586V366.306H51.9954V359.146Z" fill="#455A64"/>
<path d="M0.113281 404.218L96.0848 403.929L192.056 403.821L384 403.616L575.943 403.821L671.914 403.929L767.886 404.218L671.914 404.519L575.943 404.627L384 404.82L192.056 404.615L96.0848 404.519L0.113281 404.218Z" fill="#263238"/>
<path d="M650.262 43.5557H117.75V398.946H650.262V43.5557Z" fill="#DBDBDB"/>
<path d="M646.389 47.8887H121.621V394.614H646.389V47.8887Z" fill="#263238"/>
<path d="M719.611 425.604H48.3887V450H719.611V425.604Z" fill="#C7C7C7"/>
<path d="M48.3887 425.604L117.75 398.958H650.25L719.611 425.604H48.3887Z" fill="#DBDBDB"/>
<path d="M123.938 416.156L168.703 398.958H599.308L644.061 416.156H123.938Z" fill="#263238"/>
<path d="M617.114 74.1133H150.875V368.401H617.114V74.1133Z" fill="white"/>
<path d="M617.114 74.1133H150.875V85.4385H617.114V74.1133Z" fill="#455A64"/>
<path d="M159.899 79.77C159.899 81.3226 158.644 82.5743 157.088 82.5743C155.532 82.5743 154.277 81.3226 154.277 79.77C154.277 78.2175 155.532 76.9658 157.088 76.9658C158.644 76.9658 159.899 78.2175 159.899 79.77Z" fill="#0E82FD"/>
<path d="M171.395 79.77C171.395 81.3226 170.14 82.5743 168.584 82.5743C167.028 82.5743 165.773 81.3226 165.773 79.77C165.773 78.2175 167.028 76.9658 168.584 76.9658C170.14 76.9658 171.395 78.2175 171.395 79.77Z" fill="#EBEBEB"/>
<path d="M182.891 79.77C182.891 81.3226 181.636 82.5743 180.08 82.5743C178.524 82.5743 177.27 81.3226 177.27 79.77C177.27 78.2175 178.524 76.9658 180.08 76.9658C181.636 76.9658 182.891 78.2175 182.891 79.77Z" fill="white"/>
<path d="M373.831 277.134H458.777V212.107H373.831V277.134Z" fill="#0E82FD"/>
<path opacity="0.6" d="M382.287 226.324C381.262 231.74 385.93 236.41 391.358 235.375C394.398 234.797 396.847 232.354 397.414 229.333C398.439 223.917 393.771 219.247 388.342 220.282C385.303 220.848 382.866 223.291 382.287 226.324Z" fill="white"/>
<path d="M401.852 263.116H458.776L430.32 228.117L401.852 263.116Z" fill="#0E82FD"/>
<path opacity="0.2" d="M401.852 263.116H458.776L430.32 228.117L401.852 263.116Z" fill="black"/>
<path d="M373.83 263.151H424.313L399.065 240.356L373.83 263.151Z" fill="#0E82FD"/>
<path opacity="0.1" d="M373.83 263.151H424.313L399.065 240.356L373.83 263.151Z" fill="black"/>
<path d="M458.776 263.115H373.83V277.124H458.776V263.115Z" fill="#0E82FD"/>
<path opacity="0.1" d="M458.776 263.115H373.83V277.124H458.776V263.115Z" fill="black"/>
<path d="M237.714 212.099H173.902V217.454H237.714V212.099Z" fill="#DBDBDB"/>
<path d="M358.56 224.531H173.902V229.887H358.56V224.531Z" fill="#DBDBDB"/>
<path d="M358.56 236.313H173.902V241.669H358.56V236.313Z" fill="#DBDBDB"/>
<path d="M358.56 248.097H173.902V253.452H358.56V248.097Z" fill="#DBDBDB"/>
<path d="M358.56 259.879H173.902V265.235H358.56V259.879Z" fill="#DBDBDB"/>
<path d="M358.56 271.661H173.902V277.017H358.56V271.661Z" fill="#DBDBDB"/>
<path d="M391.504 106.958H327.691V121.292H391.504V106.958Z" fill="#DBDBDB"/>
<path d="M458.79 131.161H327.691V136.517H458.79V131.161Z" fill="#DBDBDB"/>
<path d="M458.79 142.956H327.691V148.312H458.79V142.956Z" fill="#DBDBDB"/>
<path d="M458.79 154.738H327.691V160.094H458.79V154.738Z" fill="#DBDBDB"/>
<path d="M458.79 166.521H327.691V171.876H458.79V166.521Z" fill="#DBDBDB"/>
<path d="M458.79 182.19H327.691V187.546H458.79V182.19Z" fill="#DBDBDB"/>
<path d="M458.79 193.985H327.691V199.341H458.79V193.985Z" fill="#DBDBDB"/>
<path d="M594.074 106.958H477.391V121.545H594.074V106.958Z" fill="#0E82FD"/>
<path d="M593.785 121.545H477.717V276.873H593.785V121.545Z" fill="white"/>
<path d="M594.098 277.125H477.391V121.28H594.098V277.125ZM478.042 276.62H593.459V121.798H478.042V276.62Z" fill="#DBDBDB"/>
<path d="M478.017 276.969L477.414 276.777L593.482 121.449L594.073 121.642L478.017 276.969Z" fill="#DBDBDB"/>
<path d="M593.482 276.969L477.414 121.642L478.017 121.449L594.073 276.777L593.482 276.969Z" fill="#DBDBDB"/>
<path d="M313.204 107.21H174.145V199.087H313.204V107.21Z" fill="white"/>
<path d="M173.926 199.341V199.112L173.902 107.006H174.132L313.433 106.97L313.457 199.305H313.228L173.926 199.341ZM174.373 107.463L174.397 198.871L312.998 198.835L312.974 107.427L174.373 107.463Z" fill="#DBDBDB"/>
<path d="M174.373 107.463C186.074 114.853 197.69 122.363 209.307 129.897L244.048 152.607L278.62 175.571L295.845 187.137L312.999 198.823L295.496 187.666L278.065 176.401L243.324 153.678L208.752 130.715C197.256 123.013 185.772 115.298 174.373 107.463Z" fill="#DBDBDB"/>
<path d="M312.999 107.463C301.587 115.298 290.116 123.013 278.62 130.715L244.048 153.678L209.307 176.401L191.876 187.666L174.373 198.823L191.526 187.137L208.752 175.571L243.324 152.607L278.065 129.897C289.669 122.363 301.298 114.853 312.999 107.463Z" fill="#DBDBDB"/>
<path d="M688.573 0.709961H575.617V72.5968H688.573V0.709961Z" fill="white"/>
<path d="M689.286 73.3191H574.906V0H689.286V73.3191ZM576.33 71.8869H687.862V1.42017H576.33V71.8869Z" fill="#EBEBEB"/>
<path d="M688.573 0.709961H575.617V14.3099H688.573V0.709961Z" fill="#455A64"/>
<path d="M588.404 7.6065C588.404 9.49605 586.872 11.0245 584.979 11.0245C583.085 11.0245 581.553 9.49605 581.553 7.6065C581.553 5.71696 583.085 4.18848 584.979 4.18848C586.872 4.18848 588.404 5.71696 588.404 7.6065Z" fill="#0E82FD"/>
<path d="M602.41 7.6065C602.41 9.49605 600.878 11.0245 598.984 11.0245C597.091 11.0245 595.559 9.49605 595.559 7.6065C595.559 5.71696 597.091 4.18848 598.984 4.18848C600.878 4.18848 602.41 5.71696 602.41 7.6065Z" fill="#EBEBEB"/>
<path d="M616.414 7.6065C616.414 9.49605 614.882 11.0245 612.988 11.0245C611.094 11.0245 609.562 9.49605 609.562 7.6065C609.562 5.71696 611.094 4.18848 612.988 4.18848C614.882 4.18848 616.414 5.71696 616.414 7.6065Z" fill="white"/>
<path d="M595.111 41.1848C595.148 33.6868 601.444 27.597 609.044 27.5488C612.385 27.5488 615.425 28.644 617.814 30.4975C618.718 31.2557 618.875 32.5796 618.187 33.5304C617.427 34.4812 616.028 34.6256 615.148 33.9516C613.483 32.5916 611.384 31.8695 609.032 31.8695C606.414 31.8695 603.99 32.9286 602.204 34.5895C600.491 36.3346 599.43 38.6093 599.43 41.1728C599.43 43.7483 600.491 46.0952 602.204 47.7561C603.99 49.417 606.414 50.4761 609.032 50.4761C611.384 50.4761 613.435 49.754 615.148 48.394C616.016 47.7561 617.427 47.9005 618.187 48.8152C618.875 49.766 618.718 51.126 617.814 51.8481C615.425 53.7015 612.385 54.7968 609.044 54.7968C601.444 54.8208 595.148 48.7189 595.111 41.1848Z" fill="#EBEBEB"/>
<path d="M624.713 48.2379C625.4 47.4074 626.643 47.2871 627.487 47.9731C629.152 49.3331 632.047 50.9217 634.737 50.8856C636.631 50.8856 638.344 50.32 639.478 49.4895C640.612 48.6591 641.106 47.7083 641.106 46.7696C641.106 46.2761 640.998 45.9391 640.768 45.554C640.539 45.1689 640.201 44.7958 639.634 44.4227C638.537 43.7006 636.679 43.0627 634.435 42.6414H634.363C632.578 42.3045 630.913 41.8471 629.466 41.1611C628.018 40.4751 626.776 39.5363 625.931 38.2125C625.364 37.2978 625.063 36.2387 625.063 35.1073C625.063 32.8327 626.353 30.8709 628.102 29.5831C629.888 28.2954 632.204 27.5732 634.665 27.5732C638.308 27.5732 640.998 29.3545 642.94 30.6061C643.808 31.2079 644.074 32.4235 643.47 33.29C642.904 34.2047 641.685 34.4695 640.78 33.8557C638.85 32.5679 636.981 31.4366 634.665 31.4366C632.952 31.4366 631.444 31.9661 630.419 32.7244C629.393 33.4826 628.971 34.313 628.971 35.1073C628.971 35.5647 629.043 35.8656 629.236 36.1664C629.429 36.4673 629.767 36.8164 630.262 37.1533C631.251 37.8394 632.952 38.4411 635.002 38.8142H635.075C637.017 39.1873 638.79 39.6808 640.31 40.4029C641.866 41.1611 643.229 42.148 644.11 43.5441C644.677 44.4467 645.027 45.5901 645.027 46.7575C645.027 49.1766 643.663 51.2587 641.758 52.6307C639.9 53.9907 637.427 54.7851 634.737 54.7851C630.636 54.749 627.186 52.703 625.026 50.9939C624.182 50.32 624.061 49.0683 624.713 48.2379Z" fill="#EBEBEB"/>
<path d="M649.646 48.2379C650.334 47.4074 651.576 47.2871 652.421 47.9731C654.085 49.3331 656.981 50.9217 659.671 50.8856C661.564 50.8856 663.277 50.32 664.411 49.4895C665.545 48.6591 666.04 47.7083 666.04 46.7696C666.04 46.2761 665.931 45.9391 665.702 45.554C665.473 45.1689 665.135 44.7958 664.568 44.4227C663.47 43.7006 661.613 43.0627 659.369 42.6414H659.297C657.511 42.3045 655.847 41.8471 654.399 41.1611C652.952 40.4751 651.709 39.5363 650.865 38.2125C650.298 37.2978 649.996 36.2387 649.996 35.1073C649.996 32.8327 651.287 30.8709 653.036 29.5831C654.821 28.2954 657.137 27.5732 659.598 27.5732C663.241 27.5732 665.931 29.3545 667.873 30.6061C668.742 31.2079 669.007 32.4235 668.404 33.29C667.837 34.2047 666.619 34.4695 665.714 33.8557C663.784 32.5679 661.914 31.4366 659.598 31.4366C657.885 31.4366 656.377 31.9661 655.352 32.7244C654.327 33.4826 653.905 34.313 653.905 35.1073C653.905 35.5647 653.977 35.8656 654.17 36.1664C654.363 36.4673 654.701 36.8164 655.195 37.1533C656.184 37.8394 657.885 38.4411 659.936 38.8142H660.008C661.95 39.1873 663.724 39.6808 665.244 40.4029C666.8 41.1611 668.163 42.148 669.043 43.5441C669.61 44.4467 669.96 45.5901 669.96 46.7575C669.96 49.1766 668.597 51.2587 666.691 52.6307C664.833 53.9907 662.361 54.7851 659.671 54.7851C655.569 54.749 652.119 52.703 649.96 50.9939C649.116 50.32 648.995 49.0683 649.646 48.2379Z" fill="#EBEBEB"/>
<path d="M706.342 99.7246H642.928V128.152H706.342V99.7246Z" fill="#455A64"/>
<path d="M661.793 115.202H659.163V119.836C659.163 120.474 658.633 121.016 657.969 121.016C657.33 121.016 656.787 120.486 656.787 119.836V107.235C656.787 106.573 657.318 106.056 657.969 106.056H657.993H661.805C664.35 106.056 666.413 108.102 666.413 110.653C666.401 113.156 664.351 115.202 661.793 115.202ZM659.163 112.832H661.793C663.036 112.832 664.001 111.845 664.025 110.653C664.001 109.414 663.036 108.427 661.793 108.427H659.163V112.832Z" fill="white"/>
<path d="M669.271 119.836V107.235C669.271 106.573 669.79 106.056 670.454 106.056C671.117 106.056 671.648 106.573 671.648 107.235V112.362H677.197V107.235C677.197 106.573 677.715 106.056 678.379 106.056C679.042 106.056 679.573 106.573 679.573 107.235V119.836C679.573 120.498 679.042 121.016 678.379 121.016C677.715 121.016 677.197 120.498 677.197 119.836V114.709H671.648V119.836C671.648 120.498 671.117 121.016 670.454 121.016C669.79 121.016 669.271 120.498 669.271 119.836Z" fill="white"/>
<path d="M689.465 115.202H686.835V119.836C686.835 120.474 686.305 121.016 685.641 121.016C685.002 121.016 684.459 120.486 684.459 119.836V107.235C684.459 106.573 684.99 106.056 685.641 106.056H685.665H689.477C692.022 106.056 694.085 108.102 694.085 110.653C694.073 113.156 692.01 115.202 689.465 115.202ZM686.835 112.832H689.465C690.707 112.832 691.673 111.845 691.697 110.653C691.673 109.414 690.707 108.427 689.465 108.427H686.835V112.832Z" fill="white"/>
<g opacity="0.8">
<path d="M600.683 226.119H412.311V357.785H600.683V226.119Z" fill="white"/>
<path d="M601.408 358.496H411.6V225.409H601.408V358.496ZM413.035 357.075H599.984V226.829H413.035V357.075Z" fill="#EBEBEB"/>
<path d="M600.683 226.119H412.311V239.719H600.683V226.119Z" fill="#455A64"/>
<path d="M601.408 240.429H411.6V225.409H601.408V240.429ZM413.035 238.997H599.984V226.829H413.035V238.997Z" fill="#EBEBEB"/>
<path d="M425.109 233.016C425.109 234.905 423.577 236.434 421.684 236.434C419.79 236.434 418.258 234.905 418.258 233.016C418.258 231.126 419.79 229.598 421.684 229.598C423.577 229.586 425.109 231.126 425.109 233.016Z" fill="#0E82FD"/>
<path d="M439.115 233.016C439.115 234.905 437.583 236.434 435.69 236.434C433.796 236.434 432.264 234.905 432.264 233.016C432.264 231.126 433.796 229.598 435.69 229.598C437.571 229.586 439.115 231.126 439.115 233.016Z" fill="#EBEBEB"/>
<path d="M453.119 233.016C453.119 234.905 451.587 236.434 449.693 236.434C447.8 236.434 446.268 234.905 446.268 233.016C446.268 231.126 447.8 229.598 449.693 229.598C451.575 229.586 453.119 231.126 453.119 233.016Z" fill="white"/>
<path d="M434.218 266.763H426.932V269.423H434.218V266.763Z" fill="#EBEBEB"/>
<path d="M523.096 266.763H439.525V269.423H523.096V266.763Z" fill="#EBEBEB"/>
<path d="M541.408 266.763H527.572V269.423H541.408V266.763Z" fill="#0E82FD"/>
<path d="M568.344 266.763H544.424V269.423H568.344V266.763Z" fill="#A6A6A6"/>
<path d="M441.503 273.863H434.217V276.523H441.503V273.863Z" fill="#EBEBEB"/>
<path d="M501.468 273.863H446.631V276.523H501.468V273.863Z" fill="#A6A6A6"/>
<path d="M491.902 295.179H439.525V297.839H491.902V295.179Z" fill="#A6A6A6"/>
<path d="M483.374 280.965H446.631V283.625H483.374V280.965Z" fill="#0E82FD"/>
<path d="M550.841 288.077H536.824V290.737H550.841V288.077Z" fill="#A6A6A6"/>
<path d="M546.148 280.965H487.463V283.625H546.148V280.965Z" fill="#A6A6A6"/>
<path d="M509.574 302.291H439.525V304.951H509.574V302.291Z" fill="#0E82FD"/>
<path d="M580.841 273.863H542.879V276.523H580.841V273.863Z" fill="#0E82FD"/>
<path d="M539.864 273.863H504.918V276.523H539.864V273.863Z" fill="#EBEBEB"/>
<path d="M572.481 280.965H548.898V283.625H572.481V280.965Z" fill="#EBEBEB"/>
<path d="M441.503 280.965H434.217V283.625H441.503V280.965Z" fill="#EBEBEB"/>
<path d="M434.218 288.077H426.932V290.737H434.218V288.077Z" fill="#A6A6A6"/>
<path d="M482.577 288.077H439.525V290.737H482.577V288.077Z" fill="#EBEBEB"/>
<path d="M541.419 295.179H494.881V297.839H541.419V295.179Z" fill="#EBEBEB"/>
<path d="M574.038 295.179H544.424V297.839H574.038V295.179Z" fill="#0E82FD"/>
<path d="M533.447 288.077H486.969V290.737H533.447V288.077Z" fill="#0E82FD"/>
<path d="M434.218 295.179H426.932V297.839H434.218V295.179Z" fill="#EBEBEB"/>
<path d="M434.218 302.291H426.932V304.951H434.218V302.291Z" fill="#EBEBEB"/>
<path d="M431.432 259.77C431.685 260.035 431.685 260.42 431.432 260.673C431.299 260.793 431.154 260.853 430.998 260.853C430.829 260.853 430.672 260.793 430.539 260.673L427.728 257.832C427.692 257.82 427.692 257.808 427.68 257.772C427.668 257.76 427.644 257.748 427.644 257.748C427.62 257.724 427.62 257.7 427.62 257.664C427.596 257.652 427.584 257.64 427.584 257.628C427.572 257.604 427.572 257.58 427.56 257.568C427.56 257.544 427.535 257.531 427.535 257.519C427.535 257.495 427.535 257.471 427.535 257.447C427.535 257.423 427.523 257.423 427.523 257.387C427.523 257.375 427.535 257.351 427.535 257.339C427.535 257.315 427.535 257.291 427.535 257.267C427.535 257.243 427.56 257.243 427.56 257.231C427.572 257.207 427.572 257.182 427.584 257.146C427.584 257.134 427.596 257.134 427.596 257.122C427.62 257.098 427.632 257.05 427.644 257.038C427.644 257.038 427.644 257.014 427.668 257.014C427.68 256.99 427.692 256.966 427.728 256.942L430.539 254.101C430.792 253.861 431.203 253.861 431.444 254.101C431.697 254.354 431.697 254.751 431.444 255.004L429.08 257.387L431.432 259.77Z" fill="#0E82FD"/>
<path d="M433.977 260.083L436.426 254.27C436.546 253.993 436.86 253.861 437.15 253.981C437.415 254.089 437.548 254.414 437.427 254.691L434.978 260.516C434.882 260.721 434.677 260.841 434.472 260.841C434.411 260.841 434.327 260.829 434.267 260.805C433.989 260.697 433.869 260.36 433.977 260.083Z" fill="#0E82FD"/>
<path d="M442.277 257.736C442.277 257.736 442.277 257.748 442.277 257.736C442.24 257.76 442.228 257.797 442.192 257.821L439.381 260.661C439.261 260.781 439.092 260.842 438.935 260.842C438.766 260.842 438.622 260.781 438.489 260.661C438.235 260.408 438.235 260.023 438.489 259.758L440.853 257.375L438.489 254.992C438.235 254.74 438.235 254.342 438.489 254.09C438.73 253.849 439.14 253.849 439.394 254.09L442.204 256.93C442.24 256.954 442.252 256.978 442.277 257.002C442.289 257.002 442.289 257.026 442.289 257.026C442.313 257.062 442.325 257.087 442.337 257.111C442.337 257.123 442.349 257.123 442.349 257.135C442.361 257.171 442.361 257.183 442.373 257.231C442.373 257.243 442.385 257.243 442.385 257.255C442.385 257.279 442.385 257.303 442.385 257.327C442.385 257.339 442.397 257.363 442.397 257.375C442.397 257.387 442.385 257.411 442.385 257.423C442.385 257.448 442.385 257.472 442.385 257.508C442.385 257.52 442.373 257.52 442.373 257.532C442.349 257.568 442.349 257.604 442.349 257.616C442.349 257.628 442.337 257.628 442.337 257.64C442.325 257.676 442.301 257.7 442.277 257.736Z" fill="#0E82FD"/>
</g>
<path d="M187.593 231.402H110.645V259.83H187.593V231.402Z" fill="#0E82FD"/>
<path d="M121.742 251.513V238.912C121.742 238.25 122.261 237.732 122.924 237.732C123.588 237.732 124.119 238.25 124.119 238.912V244.039H129.667V238.912C129.667 238.25 130.186 237.732 130.85 237.732C131.513 237.732 132.044 238.25 132.044 238.912V251.513C132.044 252.175 131.513 252.692 130.85 252.692C130.186 252.692 129.667 252.175 129.667 251.513V246.386H124.119V251.513C124.119 252.175 123.588 252.692 122.924 252.692C122.261 252.692 121.742 252.175 121.742 251.513Z" fill="white"/>
<path d="M146.098 240.103H142.696V251.513C142.696 252.175 142.177 252.692 141.514 252.692C140.874 252.692 140.332 252.175 140.332 251.513V240.103H136.942C136.278 240.103 135.76 239.55 135.76 238.912C135.76 238.25 136.278 237.732 136.942 237.732H146.086C146.725 237.732 147.268 238.25 147.268 238.912C147.268 239.55 146.737 240.103 146.098 240.103Z" fill="white"/>
<path d="M163.696 238.912V251.513C163.696 252.151 163.141 252.692 162.502 252.692C161.839 252.692 161.32 252.163 161.32 251.513V242.522L158.232 246.795C157.991 247.12 157.653 247.288 157.267 247.288H157.243H157.219C156.833 247.288 156.471 247.12 156.229 246.795L153.165 242.522V251.513C153.165 252.151 152.635 252.692 151.971 252.692C151.332 252.692 150.789 252.163 150.789 251.513V238.912C150.789 238.274 151.32 237.732 151.971 237.732C151.995 237.732 151.995 237.732 152.032 237.732C152.369 237.732 152.755 237.901 152.972 238.226L157.231 244.123L161.489 238.226C161.73 237.901 162.068 237.732 162.454 237.732C162.454 237.732 162.454 237.732 162.478 237.732C163.141 237.756 163.696 238.274 163.696 238.912Z" fill="white"/>
<path d="M168.883 251.513V238.912C168.883 238.274 169.402 237.732 170.065 237.732C170.728 237.732 171.259 238.262 171.259 238.912V250.321H177.061C177.677 250.321 178.244 250.851 178.244 251.513C178.244 252.151 177.689 252.692 177.061 252.692H170.125C170.089 252.692 170.089 252.692 170.089 252.692C170.065 252.692 170.065 252.692 170.065 252.692C169.389 252.692 168.883 252.163 168.883 251.513Z" fill="white"/>
<path d="M725.704 197.885H682.748V226.312H725.704V197.885Z" fill="#0E82FD"/>
<path d="M694.412 214.854C694.786 215.998 695.86 216.816 697.126 216.816C698.707 216.816 699.985 215.528 699.985 213.976V205.756C699.985 205.118 700.504 204.612 701.143 204.612C701.771 204.612 702.289 205.106 702.289 205.756V213.976C702.289 216.816 699.961 219.103 697.126 219.103C694.847 219.103 692.892 217.61 692.229 215.54C692.024 214.915 692.374 214.277 692.953 214.108C693.58 213.928 694.231 214.253 694.412 214.854Z" fill="white"/>
<path d="M705.185 215.516C705.559 215.059 706.246 214.999 706.705 215.372C707.621 216.118 709.189 216.985 710.661 216.961C711.699 216.961 712.627 216.648 713.255 216.19C713.882 215.733 714.147 215.215 714.147 214.698C714.147 214.433 714.087 214.241 713.966 214.036C713.846 213.831 713.653 213.627 713.339 213.41C712.736 213.013 711.723 212.664 710.492 212.435H710.456C709.479 212.255 708.574 212.002 707.778 211.629C706.994 211.256 706.306 210.738 705.848 210.016C705.534 209.523 705.366 208.945 705.366 208.319C705.366 207.08 706.065 205.996 707.03 205.298C708.007 204.6 709.274 204.203 710.625 204.203C712.615 204.203 714.087 205.178 715.149 205.864C715.631 206.201 715.776 206.863 715.438 207.332C715.124 207.826 714.461 207.97 713.966 207.645C712.905 206.947 711.892 206.321 710.625 206.321C709.696 206.321 708.864 206.61 708.297 207.019C707.742 207.429 707.513 207.886 707.513 208.319C707.513 208.572 707.549 208.728 707.658 208.897C707.766 209.065 707.947 209.246 708.212 209.438C708.755 209.812 709.684 210.137 710.806 210.353H710.842C711.904 210.558 712.869 210.835 713.701 211.22C714.557 211.629 715.293 212.17 715.776 212.941C716.089 213.434 716.27 214.06 716.27 214.698C716.27 216.022 715.523 217.165 714.485 217.911C713.472 218.658 712.121 219.091 710.649 219.091C708.405 219.067 706.524 217.959 705.341 217.021C704.895 216.66 704.835 215.974 705.185 215.516Z" fill="white"/>
<path d="M142.31 29.3535H29.3535V101.24H142.31V29.3535Z" fill="white"/>
<path d="M143.022 101.951H28.6426V28.6436H143.022V101.951ZM30.066 100.53H141.586V30.0637H30.066V100.53Z" fill="#EBEBEB"/>
<path d="M142.31 29.3535H29.3535V42.9534H142.31V29.3535Z" fill="#455A64"/>
<path d="M143.022 43.6636H28.6426V28.6436H143.022V43.6636ZM30.066 42.2314H141.586V30.0637H30.066V42.2314Z" fill="#EBEBEB"/>
<path d="M42.1407 36.2501C42.1407 38.1396 40.6088 39.6681 38.7149 39.6681C36.821 39.6681 35.2891 38.1396 35.2891 36.2501C35.2891 34.3605 36.821 32.832 38.7149 32.832C40.6088 32.832 42.1407 34.3605 42.1407 36.2501Z" fill="#0E82FD"/>
<path d="M56.1466 36.2501C56.1466 38.1396 54.6146 39.6681 52.7208 39.6681C50.8269 39.6681 49.2949 38.1396 49.2949 36.2501C49.2949 34.3605 50.8269 32.832 52.7208 32.832C54.6146 32.832 56.1466 34.3605 56.1466 36.2501Z" fill="#EBEBEB"/>
<path d="M70.1505 36.2501C70.1505 38.1396 68.6185 39.6681 66.7247 39.6681C64.8308 39.6681 63.2988 38.1396 63.2988 36.2501C63.2988 34.3605 64.8308 32.832 66.7247 32.832C68.6185 32.832 70.1505 34.3605 70.1505 36.2501Z" fill="white"/>
<path d="M50.4395 69.8284C50.4756 62.3304 56.7724 56.2405 64.372 56.1924C67.7134 56.1924 70.7532 57.2876 73.1416 59.141C74.0463 59.8993 74.2032 61.2231 73.5156 62.1739C72.7556 63.1247 71.3563 63.2691 70.4758 62.5952C68.8111 61.2352 66.7242 60.5131 64.372 60.5131C61.7544 60.5131 59.3297 61.5722 57.5444 63.233C55.8315 64.9782 54.77 67.2528 54.77 69.8163C54.77 72.3919 55.8315 74.7388 57.5444 76.3997C59.3297 78.0605 61.7544 79.1196 64.372 79.1196C66.7242 79.1196 68.7749 78.3975 70.4758 77.0375C71.3443 76.3997 72.7556 76.5441 73.5156 77.4588C74.2032 78.4096 74.0463 79.7695 73.1416 80.4917C70.7532 82.3451 67.7134 83.4403 64.372 83.4403C56.7845 83.4644 50.4756 77.3625 50.4395 69.8284Z" fill="#EBEBEB"/>
<path d="M86.8324 72.2118H81.4404C80.3065 72.2118 79.3535 71.3091 79.3535 70.1296C79.3535 68.9983 80.3065 68.0475 81.4404 68.0475H86.8324V62.7881C86.8324 61.5725 87.7854 60.6338 88.9917 60.6338C90.1738 60.6338 91.1509 61.5846 91.1509 62.7881V68.0475H96.543C97.6769 68.0475 98.6299 68.9983 98.6299 70.1296C98.6299 71.3091 97.6769 72.2118 96.543 72.2118H91.1509V77.4712C91.1509 78.6867 90.1618 79.6255 88.9917 79.6255C87.7733 79.6255 86.8324 78.6747 86.8324 77.4712V72.2118Z" fill="#EBEBEB"/>
<path d="M110.368 72.2118H104.976C103.842 72.2118 102.889 71.3091 102.889 70.1296C102.889 68.9983 103.842 68.0475 104.976 68.0475H110.368V62.7881C110.368 61.5725 111.321 60.6338 112.527 60.6338C113.709 60.6338 114.686 61.5846 114.686 62.7881V68.0475H120.078C121.212 68.0475 122.165 68.9983 122.165 70.1296C122.165 71.3091 121.212 72.2118 120.078 72.2118H114.686V77.4712C114.686 78.6867 113.697 79.6255 112.527 79.6255C111.309 79.6255 110.368 78.6747 110.368 77.4712V72.2118Z" fill="#EBEBEB"/>
<path d="M504.337 427.326C505.097 425.196 544.277 375.707 546.907 374.792C547.208 374.672 564 387.128 564 387.128C564.687 388.079 597.233 381.917 597.233 381.917L596.738 420.923L537.739 418.444C537.739 418.444 529.669 422.957 522.299 426.616C522.286 426.616 522.274 426.628 522.274 426.616C517.739 428.879 513.722 430.792 512.588 431.057C509.608 431.767 503.565 429.456 504.337 427.326Z" fill="#EB9481"/>
<path d="M512.576 431.081C513.722 430.816 517.727 428.902 522.263 426.64C522.275 426.652 522.287 426.64 522.287 426.64C529.657 422.981 537.727 418.468 537.727 418.468L550.864 419.021L572.118 386.333C567.583 387.031 564.205 387.441 563.988 387.14C563.988 387.14 547.196 374.683 546.895 374.804C544.265 375.718 505.085 425.195 504.325 427.326C503.565 429.456 509.609 431.779 512.576 431.081Z" fill="white"/>
<path d="M503.988 427.386C504.784 425.196 544.145 375.755 546.835 374.816C547.86 374.455 556.087 379.763 564 387.14L538.584 418.986C538.584 418.986 515.508 430.576 512.444 431.286C509.392 431.996 503.192 429.577 503.988 427.386Z" fill="#0E82FD"/>
<path d="M506.534 428.253C513.337 420.129 539.996 386.707 546.1 378.15C546.148 378.077 546.1 378.041 546.051 378.114C539.139 386.021 512.746 419.659 506.401 428.144C506.268 428.325 506.389 428.421 506.534 428.253Z" fill="#263238"/>
<path d="M516.763 429.516C518.403 427.615 519.007 424.955 518.681 422.945C518.367 421.019 517.487 418.889 515.713 417.577C515.665 417.541 515.593 417.625 515.629 417.673C518.5 420.718 519.007 425.942 516.642 429.42C516.606 429.504 516.703 429.588 516.763 429.516Z" fill="#263238"/>
<path d="M535.69 420.923C538.38 417.637 540.262 412.859 539.189 408.647C539.152 408.479 538.911 408.551 538.887 408.683C538.055 412.908 536.933 416.675 535.232 420.658C535.111 420.947 535.497 421.164 535.69 420.923Z" fill="#263238"/>
<path d="M532.649 422.693C535.339 419.407 537.221 414.629 536.147 410.417C536.111 410.248 535.87 410.32 535.846 410.453C535.014 414.677 533.892 418.444 532.191 422.428C532.07 422.705 532.456 422.933 532.649 422.693Z" fill="#263238"/>
<path d="M529.61 424.461C532.3 421.176 534.182 416.398 533.108 412.185C533.072 412.017 532.831 412.089 532.807 412.221C531.974 416.446 530.853 420.213 529.152 424.196C529.031 424.473 529.417 424.702 529.61 424.461Z" fill="#263238"/>
<path d="M526.569 426.231C529.259 422.945 531.141 418.179 530.067 413.955C530.031 413.786 529.79 413.858 529.766 413.991C528.933 418.215 527.812 421.982 526.111 425.966C525.99 426.243 526.376 426.471 526.569 426.231Z" fill="#263238"/>
<path d="M552.312 386.514C555.267 382.783 549.453 378.198 546.498 381.941C543.554 385.672 549.357 390.257 552.312 386.514Z" fill="#263238"/>
<path d="M541.709 431.538C544.447 430.961 544.761 427.771 544.134 425.581C543.12 422.042 540.744 418.288 538.03 415.832C537.957 415.772 537.897 415.808 537.849 415.856C537.559 415.736 537.125 415.856 537.101 416.242C536.86 419.9 536.148 423.788 537.041 427.41C537.559 429.528 539.115 432.092 541.709 431.538ZM537.873 421.874C537.945 420.069 538.114 418.287 538.126 416.482C539.308 418.384 540.575 420.237 541.564 422.259C542.035 423.222 542.505 424.221 542.843 425.244C543.374 426.833 543.555 432.297 539.67 429.757C537.535 428.361 537.789 424.028 537.873 421.874Z" fill="#263238"/>
<path d="M543.35 406.614C540.611 409.153 539.055 412.788 537.246 415.965C537.053 416.29 537.342 416.627 537.656 416.699C537.656 416.771 537.704 416.832 537.789 416.82C541.42 416.266 545.473 414.425 548.271 412.03C549.996 410.549 551.492 407.709 549.526 405.723C547.668 403.87 544.954 405.133 543.35 406.614ZM546.848 406.12C551.492 406.132 548.319 410.585 547.005 411.632C546.16 412.306 545.219 412.884 544.29 413.426C542.348 414.569 540.274 415.411 538.235 416.35C539.224 414.834 540.081 413.257 541.009 411.705C542.107 409.863 544.278 406.108 546.848 406.12Z" fill="#263238"/>
<path d="M599.151 372.649L625.761 370.555C625.761 370.555 664.193 359.446 686.401 365.259C711.865 371.927 715.46 401.618 689.573 413.509C663.964 425.28 551.201 420.935 551.201 420.935L575.375 385.214C575.375 385.214 612.504 376.512 645.001 378.282L598.982 383.565L599.151 372.649Z" fill="#37474F"/>
<path d="M599.416 380.208C603.372 379.558 607.377 379.233 611.37 378.86C615.399 378.487 619.44 378.198 623.469 377.945C631.515 377.44 639.609 377.271 647.667 377.584C648.427 377.608 649.175 377.656 649.935 377.704C650.091 377.656 650.272 377.632 650.429 377.596C650.815 377.512 651.201 377.427 651.599 377.355C652.335 377.235 653.071 377.139 653.795 377.042C655.327 376.838 656.859 376.717 658.379 376.465C658.475 376.453 658.499 376.585 658.415 376.609C656.883 376.91 655.375 377.319 653.831 377.62C653.385 377.704 652.95 377.789 652.504 377.873C655.459 378.089 658.403 378.378 661.358 378.703C661.455 378.715 661.455 378.86 661.358 378.848C657.341 378.523 653.3 378.414 649.271 378.402C645.278 378.39 641.286 378.39 637.281 378.535C629.199 378.824 621.129 379.377 613.071 380.051C608.547 380.424 604.024 380.894 599.488 380.99C599.066 380.99 598.969 380.28 599.416 380.208Z" fill="#263238"/>
<path d="M562.746 420.128C564.241 417.853 565.52 415.422 566.895 413.075C568.27 410.716 569.645 408.37 571.021 406.011C573.771 401.317 583.626 385.539 584.591 384.443C584.652 384.371 584.772 384.455 584.736 384.54C584.266 385.767 578.101 396.214 576.678 398.549C573.843 403.206 570.876 407.768 567.945 412.365C567.112 413.677 566.244 414.977 565.399 416.277C564.555 417.577 563.65 418.864 562.866 420.2C562.818 420.285 562.697 420.2 562.746 420.128Z" fill="#263238"/>
<path d="M695.122 434.522C694.47 432.356 657.679 381.073 655.097 380.038C654.808 379.906 637.437 391.556 637.437 391.556C636.714 392.471 604.494 384.78 604.494 384.78L603.131 423.763L662.19 424.075C662.19 424.075 670.043 428.962 677.233 432.97C677.245 432.97 677.245 432.982 677.257 432.97C681.684 435.449 685.604 437.543 686.726 437.868C689.645 438.71 695.797 436.676 695.122 434.522Z" fill="#EB9481"/>
<path d="M686.714 437.88C685.58 437.555 681.672 435.461 677.245 432.981C677.233 432.993 677.221 432.981 677.221 432.981C670.031 428.974 662.19 424.087 662.19 424.087L649.042 424.015L629.355 390.364C633.843 391.279 637.196 391.845 637.438 391.556C637.438 391.556 654.796 379.906 655.097 380.05C657.679 381.085 694.47 432.356 695.122 434.534C695.785 436.676 689.645 438.71 686.714 437.88Z" fill="white"/>
<path d="M695.472 434.607C694.784 432.38 657.811 381.134 655.17 380.063C654.169 379.654 645.688 384.576 637.438 391.557L661.31 424.569C661.31 424.569 683.807 437.23 686.835 438.097C689.862 438.94 696.159 436.821 695.472 434.607Z" fill="#0E82FD"/>
<path d="M692.89 435.341C686.485 426.904 661.43 392.255 655.737 383.433C655.689 383.361 655.737 383.325 655.785 383.397C662.323 391.629 687.088 426.471 693.023 435.245C693.156 435.425 693.023 435.522 692.89 435.341Z" fill="#263238"/>
<path d="M682.612 436.123C681.056 434.149 680.597 431.453 681.008 429.468C681.406 427.566 682.395 425.472 684.216 424.244C684.265 424.208 684.337 424.304 684.289 424.353C681.273 427.265 680.513 432.44 682.708 436.039C682.757 436.123 682.66 436.195 682.612 436.123Z" fill="#263238"/>
<path d="M664.119 426.652C661.586 423.246 659.933 418.384 661.212 414.231C661.26 414.075 661.489 414.147 661.514 414.279C662.153 418.54 663.082 422.355 664.59 426.411C664.686 426.688 664.3 426.892 664.119 426.652Z" fill="#263238"/>
<path d="M667.063 428.565C664.529 425.159 662.877 420.297 664.155 416.144C664.204 415.988 664.433 416.06 664.457 416.193C665.096 420.453 666.025 424.268 667.533 428.324C667.642 428.601 667.243 428.806 667.063 428.565Z" fill="#263238"/>
<path d="M670.018 430.467C667.484 427.061 665.832 422.199 667.11 418.047C667.159 417.89 667.388 417.963 667.412 418.095C668.051 422.355 668.98 426.171 670.488 430.227C670.597 430.515 670.199 430.72 670.018 430.467Z" fill="#263238"/>
<path d="M672.973 432.38C670.439 428.974 668.787 424.112 670.066 419.96C670.114 419.803 670.343 419.876 670.367 420.008C671.006 424.269 671.935 428.084 673.443 432.14C673.54 432.416 673.154 432.621 672.973 432.38Z" fill="#263238"/>
<path d="M649.137 391.496C646.363 387.633 652.382 383.324 655.157 387.2C657.931 391.063 651.912 395.36 649.137 391.496Z" fill="#263238"/>
<path d="M662.456 433.067C663.517 429.492 662.986 425.581 662.914 421.91C662.902 421.525 662.492 421.393 662.19 421.489C662.154 421.429 662.082 421.393 662.009 421.453C659.174 423.776 656.629 427.422 655.447 430.901C654.723 433.055 654.892 436.256 657.594 436.966C660.152 437.628 661.828 435.161 662.456 433.067ZM659.717 435.281C655.724 437.628 656.171 432.188 656.762 430.624C657.148 429.613 657.667 428.638 658.185 427.699C659.271 425.725 660.622 423.944 661.901 422.091C661.828 423.896 661.901 425.689 661.889 427.495C661.864 429.637 661.913 433.982 659.717 435.281Z" fill="#263238"/>
<path d="M651.007 410.826C648.956 412.715 650.307 415.628 651.972 417.18C654.65 419.708 658.619 421.73 662.213 422.452C662.298 422.464 662.346 422.404 662.346 422.331C662.66 422.283 662.961 421.958 662.792 421.621C661.128 418.348 659.752 414.653 657.135 411.981C655.603 410.441 652.949 409.044 651.007 410.826ZM659.246 417.192C660.102 418.781 660.874 420.406 661.791 421.958C659.801 420.923 657.762 419.985 655.88 418.745C654.976 418.155 654.071 417.529 653.251 416.831C651.984 415.736 649.029 411.127 653.661 411.331C656.23 411.439 658.232 415.291 659.246 417.192Z" fill="#263238"/>
<path d="M603.023 372.781L576.533 372.083C576.533 372.083 549.174 358.062 526.714 362.828C500.959 368.292 496.834 400.27 515.664 412.113C539.512 427.121 647.426 427.193 647.426 427.193L625.158 387.151C625.158 387.151 589.5 378.667 556.955 378.907L602.673 386.357L603.023 372.781Z" fill="#37474F"/>
<path d="M626.642 389.739C626.618 389.69 626.606 389.594 626.594 389.534C626.582 389.474 626.57 389.426 626.558 389.365C626.534 389.233 626.497 389.113 626.461 388.98C626.389 388.716 626.304 388.463 626.208 388.198C626.111 387.945 626.015 387.693 625.894 387.44C625.786 387.187 625.629 386.97 625.472 386.73C625.46 386.706 625.436 386.706 625.412 386.682C625.4 386.67 625.388 386.658 625.376 386.658C625.351 386.646 625.339 386.633 625.315 386.633C625.291 386.621 625.279 386.609 625.255 386.609C621.334 385.767 594.64 381.242 590.659 380.676C586.654 380.11 582.637 379.629 578.62 379.184C570.598 378.293 562.528 377.751 554.458 377.679C553.698 377.667 552.951 377.679 552.191 377.691C552.034 377.631 551.865 377.595 551.696 377.559C551.31 377.451 550.924 377.354 550.538 377.27C549.814 377.114 549.078 376.981 548.355 376.849C546.835 376.572 545.303 376.379 543.795 376.054C543.698 376.03 543.662 376.175 543.759 376.199C545.279 376.572 546.762 377.053 548.282 377.426C548.716 377.535 549.163 377.643 549.597 377.739C546.63 377.812 543.674 377.968 540.719 378.149C540.622 378.149 540.622 378.293 540.719 378.293C544.736 378.161 548.789 378.245 552.806 378.413C556.799 378.582 560.791 378.774 564.772 379.111C572.83 379.785 580.876 380.724 588.886 381.771C593.385 382.361 620.599 387.067 625.122 387.368C625.146 387.368 625.158 387.356 625.183 387.356C625.219 387.464 625.255 387.56 625.303 387.669C625.424 387.921 625.544 388.162 625.665 388.403C625.786 388.643 625.906 388.872 626.051 389.089C626.123 389.197 626.196 389.317 626.268 389.426C626.304 389.486 626.341 389.534 626.377 389.594C626.413 389.642 626.473 389.715 626.485 389.763C626.534 389.895 626.69 389.823 626.642 389.739Z" fill="#263238"/>
<path d="M639.078 424.569C637.69 422.222 636.532 419.731 635.278 417.324C634.011 414.905 632.757 412.486 631.49 410.079C628.969 405.265 619.874 389.041 618.957 387.898C618.897 387.826 618.776 387.898 618.8 387.982C619.21 389.234 624.88 399.957 626.182 402.352C628.788 407.142 631.538 411.836 634.252 416.566C635.024 417.914 635.833 419.25 636.617 420.598C637.401 421.934 638.245 423.257 638.957 424.642C638.993 424.726 639.126 424.654 639.078 424.569Z" fill="#263238"/>
<path d="M575.905 371.626C576.894 372.673 639.85 374.106 640.164 373.708C641.02 372.625 632.89 332.764 626.316 317.54C617.884 298.006 613.143 296.249 610.32 295.082C606.714 293.589 600.139 293.95 598.547 294.6C596.75 295.335 588.933 304.084 586.593 311.149C581.888 325.363 575.049 370.7 575.905 371.626Z" fill="#0E82FD"/>
<path d="M602.19 319.983C601.767 320.777 601.55 321.596 601.369 322.438C601.225 323.269 601.128 324.135 601.212 325.014C601.647 324.22 601.864 323.401 602.045 322.559C602.177 321.728 602.286 320.862 602.19 319.983ZM611.044 361.06C610.633 361.842 610.404 362.672 610.235 363.503C610.079 364.345 609.982 365.188 610.067 366.09C610.489 365.296 610.706 364.466 610.887 363.635C611.032 362.781 611.14 361.938 611.044 361.06ZM587.027 342.598C586.604 343.392 586.375 344.222 586.206 345.053C586.062 345.907 585.953 346.75 586.05 347.628C586.472 346.846 586.689 346.016 586.87 345.185C587.003 344.343 587.123 343.5 587.027 342.598ZM628.812 339.24C628.39 340.034 628.173 340.852 627.992 341.707C627.847 342.537 627.751 343.392 627.835 344.27C628.269 343.5 628.486 342.658 628.667 341.827C628.8 340.985 628.909 340.142 628.812 339.24ZM609.089 298.031C608.245 297.874 607.389 297.778 606.496 297.862C607.292 298.284 608.112 298.5 608.957 298.681C609.789 298.837 610.658 298.945 611.538 298.837C610.742 298.428 609.922 298.199 609.089 298.031ZM628.836 324.256C628.161 323.943 627.449 323.762 626.737 323.606C625.905 323.461 625.036 323.365 624.156 323.449C624.952 323.871 625.772 324.087 626.617 324.268C627.353 324.4 628.125 324.496 628.897 324.436C629.005 324.448 629.102 324.436 629.198 324.424C629.078 324.364 628.957 324.304 628.836 324.256ZM585.446 315.049C585.398 315.253 585.338 315.458 585.278 315.675C586.037 315.807 586.797 315.879 587.606 315.795C586.918 315.422 586.182 315.217 585.446 315.049ZM594.566 370.64C593.721 370.495 592.865 370.387 591.972 370.483C592.768 370.905 593.601 371.133 594.433 371.302C595.278 371.446 596.134 371.554 597.015 371.458C596.231 371.037 595.398 370.82 594.566 370.64ZM596.11 336.074C595.265 335.942 594.409 335.822 593.516 335.93C594.313 336.351 595.145 336.568 595.977 336.748C596.834 336.893 597.678 336.989 598.559 336.905C597.775 336.472 596.942 336.255 596.11 336.074ZM640.006 370.977C639.632 370.965 639.259 370.965 638.873 371.001C639.271 371.217 639.681 371.374 640.079 371.506C640.055 371.338 640.03 371.157 640.006 370.977ZM618.848 351.949C618.016 351.792 617.147 351.684 616.267 351.78C617.063 352.202 617.883 352.418 618.716 352.599C619.56 352.755 620.428 352.852 621.309 352.755C620.513 352.346 619.693 352.105 618.848 351.949ZM596.882 307.683C596.387 306.997 595.857 306.311 595.157 305.757C595.434 306.612 595.857 307.358 596.315 308.068C596.81 308.766 597.34 309.44 598.04 310.006C597.775 309.151 597.34 308.405 596.882 307.683ZM596.436 357.16C595.941 356.45 595.41 355.788 594.711 355.223C594.976 356.077 595.398 356.811 595.881 357.533C596.363 358.231 596.894 358.905 597.582 359.471C597.328 358.616 596.906 357.882 596.436 357.16ZM621.574 370.784C621.092 370.086 620.561 369.412 619.874 368.847C620.127 369.701 620.561 370.435 621.032 371.157C621.514 371.867 622.045 372.541 622.745 373.095C622.479 372.24 622.057 371.506 621.574 370.784ZM615.543 331.609C615.061 330.911 614.53 330.237 613.83 329.672C614.096 330.526 614.53 331.26 614.988 331.982C615.483 332.68 616.001 333.366 616.713 333.92C616.436 333.066 616.014 332.331 615.543 331.609ZM586.206 325.652C585.519 326.145 584.843 326.663 584.276 327.361C585.133 327.108 585.881 326.663 586.58 326.205C587.292 325.724 587.968 325.194 588.534 324.484C587.678 324.761 586.93 325.182 586.206 325.652ZM581.381 361.926C580.694 362.408 580.018 362.937 579.451 363.635C580.308 363.37 581.056 362.949 581.767 362.48C582.467 361.986 583.142 361.469 583.709 360.771C582.853 361.024 582.105 361.445 581.381 361.926ZM606.508 344.319C605.796 344.8 605.121 345.33 604.554 346.016C605.41 345.763 606.158 345.342 606.882 344.86C607.582 344.379 608.257 343.849 608.812 343.151C607.956 343.416 607.208 343.837 606.508 344.319ZM630.67 360.891C629.958 361.373 629.295 361.914 628.728 362.612C629.584 362.335 630.332 361.914 631.032 361.445C631.743 360.951 632.419 360.434 632.986 359.736C632.129 359.989 631.381 360.434 630.67 360.891ZM613.649 311.895C612.937 312.389 612.274 312.906 611.707 313.616C612.564 313.352 613.299 312.93 614.023 312.449C614.723 311.968 615.41 311.438 615.965 310.752C615.109 311.005 614.373 311.426 613.649 311.895Z" fill="white"/>
<path d="M620.755 300.377C647.897 320.728 671.371 348.975 669.127 357.918C666.739 367.377 647.981 377.956 631.407 380.111C628.017 380.556 617.511 355.727 620.985 354.584C623.687 353.693 636.015 350.203 637.486 348.518C638.512 347.351 619.392 320.524 613.18 306.515C606.666 291.856 613.482 294.925 620.755 300.377Z" fill="#EB9481"/>
<path d="M627.981 353.825C627.981 353.825 617.62 354.86 610.876 355.859C607.113 356.413 600.756 357.941 598.174 359.614C594.326 362.118 579.803 375.019 582.867 378.594C585.641 381.831 589.815 376.704 589.815 376.704C589.815 376.704 584.712 381.879 588.452 384.25C592.227 386.645 597.016 379.436 597.016 379.436C597.016 379.436 591.226 384.551 595.448 386.706C599.115 388.571 605.545 380.869 605.545 380.869C605.545 380.869 598.874 385.574 602.444 387.861C606.389 390.376 617.487 380.038 617.487 380.038C626.353 381.025 631.817 380.423 638.054 378.678C639.224 378.365 627.981 353.825 627.981 353.825Z" fill="#EB9481"/>
<path d="M595.472 381.169C595.871 380.616 596.293 380.074 596.691 379.532C597.475 378.461 598.259 377.414 599.176 376.427C600.056 375.477 600.973 374.574 601.926 373.707C602.927 372.781 604.037 371.95 605.014 370.999C605.099 370.927 605.195 371.036 605.111 371.108C604.109 371.986 603.241 373.069 602.348 374.056C601.468 375.043 600.587 376.03 599.719 377.029C598.862 378.004 597.957 378.907 597.077 379.857C596.643 380.327 596.22 380.82 595.81 381.314C595.424 381.771 595.062 382.301 594.592 382.686C594.544 382.722 594.483 382.662 594.507 382.613C594.737 382.096 595.135 381.627 595.472 381.169Z" fill="#263238"/>
<path d="M588.777 377.812C589.272 376.777 592.396 372.901 593.252 371.95C594.905 370.121 596.739 368.436 598.717 366.98C598.789 366.932 598.874 367.028 598.813 367.088C597.161 368.93 595.484 370.735 593.807 372.552C592.987 373.443 589.392 377.583 588.97 377.968C588.874 378.064 588.729 377.92 588.777 377.812Z" fill="#263238"/>
<path d="M601.673 384.491C602.192 383.529 605.147 379.918 605.98 379.063C606.752 378.257 610.371 375.333 611.541 374.659C611.613 374.61 611.709 374.707 611.637 374.767C609.9 376.368 608.151 377.932 606.486 379.617C605.678 380.436 602.65 383.89 601.806 384.612C601.746 384.684 601.625 384.576 601.673 384.491Z" fill="#263238"/>
<path d="M650.937 325.458L630.261 338.83C630.261 338.83 614.929 315.144 610.948 303.915C606.968 292.686 611.612 292.662 622.456 300.798C633.301 308.934 650.937 325.458 650.937 325.458Z" fill="#0E82FD"/>
<path d="M614.302 311.498C614.398 311.678 614.483 311.859 614.579 312.051C615.086 311.666 615.556 311.257 615.966 310.752C615.363 310.932 614.82 311.185 614.302 311.498ZM637.969 326.626C637.257 327.12 636.594 327.637 636.027 328.347C636.871 328.07 637.619 327.649 638.343 327.18C639.042 326.698 639.73 326.169 640.273 325.471C639.428 325.736 638.693 326.157 637.969 326.626ZM637.715 316.745C637.233 316.059 636.69 315.373 636.003 314.82C636.268 315.674 636.69 316.42 637.148 317.13C637.655 317.828 638.186 318.502 638.874 319.068C638.62 318.214 638.186 317.467 637.715 316.745ZM626.738 323.605C625.906 323.461 625.037 323.365 624.157 323.449C624.953 323.87 625.773 324.087 626.618 324.267C627.45 324.412 628.319 324.52 629.199 324.424C628.403 324.003 627.583 323.786 626.738 323.605ZM649.332 323.978C649.03 323.966 648.729 323.978 648.415 324.003C648.946 324.279 649.477 324.472 650.032 324.616C649.839 324.424 649.597 324.207 649.332 323.978ZM609.549 298.139C609.561 298.343 609.573 298.56 609.609 298.777C610.236 298.873 610.888 298.921 611.539 298.837C610.888 298.5 610.224 298.283 609.549 298.139ZM627.088 305.757C626.666 306.551 626.437 307.37 626.268 308.212C626.123 309.043 626.015 309.897 626.111 310.788C626.533 309.993 626.75 309.175 626.931 308.333C627.076 307.49 627.173 306.636 627.088 305.757Z" fill="white"/>
<path d="M646.244 322.51C638.355 328.768 630.574 333.041 629.03 334.1C628.958 334.148 628.885 334.028 628.958 333.979C630.526 333.029 638.958 326.842 646.159 322.377C646.244 322.329 646.316 322.45 646.244 322.51Z" fill="#263238"/>
<path d="M631.588 337.915C631.443 337.939 630.526 338.457 630.333 338.565C628.029 334.606 625.556 330.598 623.228 326.662C622.082 324.737 620.936 322.811 619.79 320.873C618.608 318.864 617.522 316.769 616.232 314.82C616.195 314.759 616.111 314.808 616.135 314.868C616.931 316.793 617.969 318.635 618.958 320.476C618.741 320.199 618.548 319.911 618.318 319.634C617.812 319.032 617.305 318.418 616.847 317.78C616.774 317.684 616.606 317.78 616.678 317.877C617.112 318.49 617.51 319.128 617.896 319.778C618.282 320.428 618.717 321.042 619.151 321.656C619.573 322.257 620.031 322.811 620.49 323.377C620.55 323.449 620.598 323.521 620.659 323.581C621.286 324.737 621.901 325.892 622.565 327.023C624.869 331.007 630.08 339.023 630.152 338.999C630.43 338.902 631.539 338.096 631.648 338.012C631.708 337.988 631.648 337.915 631.588 337.915Z" fill="#263238"/>
<path d="M586.726 301.315C564.88 313.098 544.422 327.324 540.694 337.036C538.354 343.15 541.539 354.102 544.108 360.674C545.363 363.875 575.616 350.841 573.047 348.205C566.678 341.706 565.64 339.07 566.28 337.722C566.69 336.856 590.465 315.589 597.064 306.057C606.292 292.794 596.292 296.164 586.726 301.315Z" fill="#EB9481"/>
<path d="M585.049 377.836C582.202 379.497 578.692 372.131 578.692 372.131C578.692 372.131 578.632 374.406 577.051 375.922C575.254 377.667 571.72 375.609 571.72 375.609C571.72 375.609 571.177 377.896 569.355 379.34C567.461 380.833 563.613 379.268 563.613 379.268C563.613 379.268 561.937 381.122 559.464 381.242C555.242 381.446 551.563 376.151 549.186 372.805C546.81 369.459 543.227 357.761 542.311 355.607L563.686 340.226C563.686 340.226 578.595 352.189 580.827 356.521C582.721 360.168 589.416 375.296 585.049 377.836Z" fill="#EB9481"/>
<path d="M578.754 372.023C577.692 367.666 575.581 363.586 573.506 359.663C573.458 359.578 573.325 359.651 573.374 359.735C575.485 363.61 576.606 368.147 578.561 372.107C578.609 372.215 578.778 372.143 578.754 372.023Z" fill="#263238"/>
<path d="M571.973 375.344C571.707 374.369 571.104 373.479 570.598 372.612C570.043 371.685 569.476 370.759 568.885 369.844C567.715 368.015 566.508 366.221 565.242 364.452C565.181 364.38 565.049 364.44 565.109 364.524C566.267 366.342 567.401 368.183 568.487 370.049C569.03 370.987 569.56 371.926 570.091 372.865C570.586 373.743 571.032 374.706 571.707 375.464C571.804 375.597 572.009 375.489 571.973 375.344Z" fill="#263238"/>
<path d="M563.578 379.196C563.373 378.341 562.685 377.535 562.203 376.813C561.648 375.994 561.105 375.164 560.562 374.346C559.476 372.697 558.403 371.036 557.377 369.351C557.329 369.267 557.197 369.339 557.245 369.423C558.27 371.144 559.283 372.877 560.333 374.598C560.852 375.441 561.37 376.283 561.889 377.114C562.335 377.824 562.806 378.763 563.493 379.268C563.53 379.28 563.59 379.232 563.578 379.196Z" fill="#263238"/>
<path d="M555.193 318.947L571.575 334.461C571.575 334.461 592.479 315.373 598.451 305.07C604.422 294.768 599.862 293.89 587.703 299.907C575.555 305.913 555.193 318.947 555.193 318.947Z" fill="#0E82FD"/>
<path d="M584.084 303.855C583.384 304.336 582.721 304.866 582.154 305.564C582.998 305.299 583.746 304.878 584.458 304.396C585.169 303.915 585.845 303.385 586.4 302.699C585.555 302.952 584.808 303.373 584.084 303.855ZM573.625 326.722C573.131 326.024 572.612 325.35 571.912 324.796C572.178 325.639 572.612 326.373 573.071 327.095C573.553 327.805 574.084 328.479 574.795 329.032C574.518 328.19 574.096 327.444 573.625 326.722ZM595.157 305.756C595.435 306.611 595.857 307.357 596.315 308.067C596.34 308.103 596.364 308.139 596.4 308.175C596.545 307.983 596.689 307.778 596.81 307.586C596.34 306.936 595.821 306.286 595.157 305.756ZM585.145 314.975C584.301 314.831 583.457 314.722 582.552 314.819C583.348 315.24 584.18 315.457 585.025 315.637C585.869 315.782 586.714 315.89 587.606 315.794C586.822 315.372 585.978 315.156 585.145 314.975ZM561.551 319.645C560.694 319.513 559.85 319.392 558.957 319.501C559.753 319.922 560.586 320.138 561.418 320.319C562.262 320.451 563.107 320.56 563.999 320.475C563.215 320.042 562.383 319.825 561.551 319.645ZM572.974 312.267C572.552 313.062 572.335 313.88 572.154 314.722C572.009 315.553 571.9 316.419 571.997 317.298C572.419 316.504 572.636 315.685 572.817 314.843C572.962 314.012 573.058 313.146 572.974 312.267Z" fill="white"/>
<path d="M574.868 330.284C567.316 324.098 561.719 317.623 560.404 316.372C560.344 316.311 560.453 316.227 560.513 316.287C561.731 317.575 569.307 324.291 574.988 330.188C575.037 330.26 574.94 330.345 574.868 330.284Z" fill="#263238"/>
<path d="M587.281 311.774C586.497 313.507 585.713 315.24 585.061 317.033C585.073 316.913 585.073 316.793 585.085 316.672C585.158 315.577 585.302 314.506 585.532 313.423C585.556 313.302 585.375 313.254 585.351 313.375C585.121 314.446 584.916 315.541 584.76 316.636C584.687 317.154 584.651 317.683 584.615 318.213C584.615 318.273 584.603 318.333 584.591 318.405C584.579 318.43 584.579 318.454 584.567 318.478C583.831 320.849 583.372 323.28 582.733 325.687C582.697 325.807 582.89 325.855 582.914 325.735C583.529 323.376 584.446 321.101 585.242 318.791C586.038 316.492 586.666 314.145 587.425 311.834C587.45 311.75 587.317 311.69 587.281 311.774Z" fill="#263238"/>
<path d="M600.707 305.601C604.313 306.299 610.224 300.594 612.456 296.081C612.613 295.768 612.009 292.603 611.467 288.715C611.141 286.356 610.839 283.72 610.743 281.289C610.719 280.796 595.652 285.622 595.652 285.622C595.652 285.622 597.365 290.641 597.51 294.865C597.522 295.214 597.498 295.551 597.45 295.864C597.45 295.912 597.438 295.96 597.438 296.033C597.208 297.934 597.221 304.927 600.707 305.601Z" fill="#EB9481"/>
<path d="M609.814 281.397C609.283 285.526 607.136 295.539 599.006 296.056C598.439 296.093 597.92 296.093 597.438 296.032C597.426 295.96 597.45 295.912 597.45 295.864C597.498 295.551 597.522 295.214 597.522 294.865C597.365 290.629 595.652 285.61 595.652 285.61C595.652 285.61 606.533 282.132 609.814 281.397Z" fill="#263238"/>
<path d="M608.379 261.275C611.286 266.113 612.287 281.927 609.392 286.236C605.194 292.47 596.449 295.13 590.67 289.678C585.061 284.383 584.132 263.754 587.534 259.65C592.552 253.608 604.084 254.126 608.379 261.275Z" fill="#EB9481"/>
<path d="M596.981 275.981C596.981 275.945 597.065 276.03 597.065 276.066C597.101 277.137 597.331 278.352 598.32 278.641C598.356 278.653 598.356 278.701 598.32 278.701C597.138 278.617 596.848 276.992 596.981 275.981Z" fill="#263238"/>
<path d="M597.862 274.802C599.575 274.561 599.936 277.979 598.356 278.208C596.8 278.437 596.438 275.007 597.862 274.802Z" fill="#263238"/>
<path d="M591.033 276.656C591.021 276.62 590.961 276.717 590.961 276.753C591.106 277.812 591.094 279.051 590.177 279.497C590.153 279.509 590.153 279.569 590.189 279.557C591.347 279.268 591.347 277.631 591.033 276.656Z" fill="#263238"/>
<path d="M589.959 275.645C588.234 275.693 588.463 279.135 590.068 279.087C591.648 279.039 591.407 275.597 589.959 275.645Z" fill="#263238"/>
<path d="M599.152 271.926C598.669 271.938 598.211 271.878 597.74 271.854C597.198 271.818 596.763 271.842 596.317 271.505C596.076 271.324 596.028 270.879 596.184 270.626C596.558 270.037 597.234 269.916 597.885 269.94C598.597 269.952 599.14 270.157 599.683 270.614C600.189 271.048 599.791 271.902 599.152 271.926Z" fill="#263238"/>
<path d="M588.126 273.31C588.596 273.178 589.007 272.985 589.453 272.816C589.96 272.624 590.382 272.516 590.707 272.046C590.876 271.793 590.792 271.36 590.575 271.168C590.044 270.722 589.368 270.807 588.741 271.023C588.066 271.252 587.607 271.601 587.233 272.203C586.871 272.78 587.499 273.478 588.126 273.31Z" fill="#263238"/>
<path d="M599.828 285.658C599.598 285.935 599.381 286.308 598.995 286.38C598.633 286.452 598.175 286.332 597.825 286.236C597.789 286.224 597.765 286.26 597.789 286.296C598.115 286.669 598.718 286.862 599.2 286.729C599.671 286.597 599.864 286.151 599.936 285.706C599.936 285.622 599.852 285.61 599.828 285.658Z" fill="#263238"/>
<path d="M598.367 282.589C597.872 283.576 597.052 284.166 596.123 284.454C595.713 284.587 595.267 284.647 594.832 284.659C594.748 284.671 594.664 284.671 594.579 284.659C594.495 284.659 594.434 284.659 594.338 284.647C594.217 284.647 594.133 284.551 594.097 284.43V284.418C594.097 284.382 594.085 284.346 594.097 284.31C594.097 284.31 594.097 284.31 594.097 284.298L594.084 284.202C593.976 283.383 593.916 282.132 593.916 282.132C593.638 282.312 592.179 283.167 592.154 282.733C591.986 279.171 591.805 275.223 592.384 271.649C592.396 271.529 592.577 271.541 592.577 271.661C592.878 275.079 592.565 278.509 592.818 281.951C593.288 281.71 594.048 281.289 594.471 281.253C594.591 281.277 594.531 283.672 594.615 284.033C594.615 284.033 594.615 284.045 594.627 284.069C596.027 284.093 597.016 283.576 598.246 282.505C598.331 282.445 598.415 282.505 598.367 282.589Z" fill="#263238"/>
<path d="M595.256 284.19C595.256 284.19 596.088 285.093 597.126 285.334C597.512 285.43 597.91 285.43 598.308 285.285C599.128 284.972 599.068 284.19 598.839 283.54C598.658 283.011 598.344 282.565 598.344 282.565C598.344 282.565 597.234 283.865 595.256 284.19Z" fill="#263238"/>
<path d="M597.126 285.346C597.512 285.442 597.91 285.442 598.308 285.298C599.128 284.985 599.068 284.203 598.838 283.553C597.946 283.733 597.101 284.455 597.126 285.346Z" fill="#FF98B9"/>
<path d="M611.021 274.609C607.1 275.476 604.724 268.543 604.724 268.543C604.724 268.543 597.74 268.965 595.617 264.126C595.617 264.126 590.152 269.639 584.712 268.953C579.272 268.267 579.042 262.357 579.332 261.021C579.609 259.685 582.915 261.31 582.915 261.31C582.915 261.31 582.504 258.024 583.288 257.507C584.073 256.989 585.448 258.723 585.448 258.723C585.448 258.723 591.431 255.1 597.342 253.945C603.252 252.789 607.498 258.037 607.498 258.037C607.498 258.037 610.792 257.988 612.299 259.962C613.819 261.924 613.518 274.056 611.021 274.609Z" fill="#263238"/>
<path d="M595.484 263.14C595.75 264.175 596.172 265.162 596.775 266.004C597.39 266.834 598.199 267.496 599.151 267.894C600.104 268.267 601.142 268.387 602.191 268.387C602.71 268.375 603.241 268.303 603.772 268.255C604.29 268.17 604.821 268.062 605.352 267.978C604.845 268.17 604.338 268.327 603.82 268.495C603.289 268.592 602.758 268.712 602.215 268.772C601.13 268.868 599.996 268.76 598.946 268.351C597.909 267.918 597.016 267.147 596.437 266.209C595.87 265.282 595.533 264.211 595.484 263.14Z" fill="#263238"/>
<path d="M607.716 258.831C606.944 257.279 605.822 255.883 604.411 254.944C603 253.993 601.299 253.536 599.61 253.608C599.188 253.644 598.754 253.608 598.343 253.704L597.089 253.957C596.257 254.174 595.46 254.499 594.652 254.787C593.88 255.173 593.072 255.51 592.324 255.931C591.576 256.364 590.828 256.821 590.068 257.243C590.768 256.725 591.48 256.22 592.191 255.714C592.927 255.245 593.723 254.86 594.483 254.426C596.088 253.728 597.789 253.102 599.598 253.078C601.383 253.03 603.217 253.524 604.64 254.607C606.076 255.678 607.137 257.182 607.716 258.831Z" fill="#263238"/>
<path d="M608.211 274.417C608.211 274.417 610.539 268.724 613.048 269.434C615.569 270.156 614.592 277.871 612.192 279.436C609.791 281 608.283 278.822 608.283 278.822L608.211 274.417Z" fill="#EB9481"/>
<path d="M612.723 271.636C612.76 271.624 612.784 271.684 612.748 271.709C611.071 272.876 610.492 274.79 610.214 276.715C610.612 275.909 611.264 275.367 612.325 275.813C612.386 275.837 612.349 275.921 612.301 275.921C611.505 275.933 610.998 276.186 610.624 276.908C610.359 277.413 610.239 278.015 610.094 278.557C610.046 278.737 609.732 278.725 609.744 278.521C609.744 278.508 609.744 278.484 609.744 278.472C609.177 276.138 610.251 272.443 612.723 271.636Z" fill="#263238"/>
<path d="M614.386 297.055C612.818 299.209 611.334 301.388 609.537 303.35C607.86 305.179 605.797 306.876 603.336 307.321C600.948 307.755 598.499 307.478 597.353 304.613C596.448 302.351 596.352 299.932 596.497 296.923C596.509 296.79 596.328 296.766 596.316 296.911C596.111 300.798 596.05 306.804 599.669 307.827C603.71 308.97 607.377 306.623 609.898 303.687C611.599 301.701 613.228 299.462 614.458 297.115C614.482 297.067 614.422 297.007 614.386 297.055Z" fill="#263238"/>
<path d="M621.648 386.068H552.166V389.173H621.648V386.068Z" fill="#C7C7C7"/>
<path d="M606.786 386.068L609.163 389.173H552.166V386.068H606.786Z" fill="#A6A6A6"/>
<path d="M603.807 389.174H536.099L530.453 343.283H598.174L603.807 389.174Z" fill="#C7C7C7"/>
<path d="M571.261 366.234C571.297 368.509 569.488 370.35 567.208 370.35C564.928 370.35 563.059 368.509 563.01 366.234C562.974 363.96 564.784 362.118 567.063 362.118C569.343 362.118 571.213 363.96 571.261 366.234Z" fill="white"/>
</g>
<defs>
<clipPath id="clip0_39_16129">
<rect width="767.773" height="450" fill="white" transform="translate(0.113281)"/>
</clipPath>
</defs>
</svg>
